<?xml version="1.0" encoding="utf-8"?>
<!-- Generator: Adobe Illustrator 22.1.0, SVG Export Plug-In . SVG Version: 6.00 Build 0)  -->
<svg version="1.1" id="Layer_1" xmlns="http://www.w3.org/2000/svg" xmlns:xlink="http://www.w3.org/1999/xlink" x="0px" y="0px"
	 viewBox="0 0 500 500" style="enable-background:new 0 0 500 500;" xml:space="preserve">
<style type="text/css">
	.st0{fill:#89D2DC;}
	.st1{fill:#FFFFFF;}
	.st2{fill:#231F20;}
</style>
<g>
	<g>
		<path class="st0" d="M48.8,158.9c-0.5,0.1-1,0.1-1.5,0.2c-2.2,0.3-5.3,1.2-8.1,2.9c-2.8,1.8-5.3,4.4-7,7c-1.7,2.7-2.4,5.3-2.7,6.9
			c0.1-1.1,0.4-1.9,0.6-2.5c0.1-0.6,0.3-1,0.4-1.3c0.2-0.6,0.2-0.5,0-0.2c-0.3,0.6-0.9,2.6-1.1,3.4v0.6c-0.4,2.6-0.4,3.9-0.5,4.9
			c-0.1,1-0.1,1.7-0.2,3l0.1-0.2l0-0.3c0-0.2,0.1-0.1,0.1,0.2c0-0.1,0.1,0.2,0.1,1.6l0-0.3c0,2.2,0,6,0,7.7l-0.2,0
			c0.4,3.9-0.6,26.3-0.6,31.6c-0.2,5.3,0.1,11.8-0.1,18.4c-0.1,10.5-0.3,5.3-0.4,10.5c-0.1,6.6,0.2-1.3,0.2,1.3l-0.3,7.9
			c0-4.6-0.1-2.1-0.2-1.3c0,6.8-0.4,17.6,0,19.7c-0.2,9.2-0.3,9.2-0.4,13.2c0-0.7,0.1-1.6,0.1-2.5c0-0.8,0.1-1.5,0.1-1.5
			c-0.2,3.7,0,1.8,0.1,0.3c0.2,5.6-0.7,29.2-0.3,30.4H27c0.4,1.3,0.5-0.8,1,3.2c0.1,0.9,0.2,1.8,0.4,2.7c0.2,0.7,0.4,1.3,0.7,2
			c0.3,0.6,0.5,1.3,0.8,1.9c1.1,2.5,0.5,1.3,0.4,1.4c1.7,3,4.3,6.1,7.9,8.5c1.8,1.2,3.8,2.1,5.8,2.8c2.1,0.6,4.2,1,6.3,1.1
			c-2.9-0.3-5.7-1.2-8.2-2.6c1.6,0.6,3.5,1.4,5.6,1.7c1,0.2,2.1,0.2,3.2,0.3c1.1,0,2.1,0.1,3.1,0.1c4,0.1,7.3,0.1,8,0l4,0.3
			c13.4,0.5,9.3-0.2,14.7-0.1l6.7,0.3l-6.7,0c6.7,0.2,9.4,0.3,14.7,0.5l0.1,0c-0.4,0-0.6,0-0.7,0l0.9,0c0.8-0.2,4.3-0.3,9-0.2
			c6.7,0,11.9-0.2,22.6,0.1l2.7-0.3l8,0.2v0.2c-7.8,0-22.6,0.1-32.7,0.1l-0.2,0.1c6,0,12.8-0.1,16.7-0.1c1.9,0,6.9,0.3,3.3,0.5
			l3.7-0.2c20,0,20.1,0,40.9,0.2L168,345c4.1-0.1,8.3-0.1,9.4,0.1c12.5,0,25.5,0.2,33.6,0.5l1.8-0.3c2.6,0,6.6,0.5,7.9,0l5.6-0.1
			c3.6,0,5.8-0.1,9.9,0l0,0c0.3,0,0.5,0,0.8,0l0,0c8.2,0.1-0.1-0.3,9.3-0.1c3,0.2,3.3-0.4,7.9-0.3l4.6,0.4c8.3,0.2,9.7-0.2,21.7-0.2
			c5.8,0.1,8.5,0.5,4.7,0.8c5.2-0.4,2.4-0.3,9.3-0.4c1.1,0.2,0.3,0.2-1.2,0.3c6.2,0.2,3.8-0.1,8.5-0.1c1.4-0.3,2.9-0.8,4.4-0.8
			l-1.8-0.1c4.9-0.2,10.3-0.2,16-0.1l-0.2,0.2l6.1-0.1l0.4,0.2l8.7-0.1l-1.2-0.1c2,0,8.8-0.1,12.6,0l-0.1,0.1
			c10.8,0.3,19.8-0.1,32.4-0.1l-1.7,0.2c4.3,0.2,1.2-0.3,6.3-0.2l0.3,0.3c4.5-0.4,5.9,0.1,9,0.2l-1.5-0.3l5.9,0.1
			c6.5,0.1,4,0.4,3,0.6l4.4-0.3l0.9,0.3c3.2-0.4,3.2,0.1,8.9-0.1c0.5,0.1-1,0.2,1,0.2l9.3-0.4l-5.6,0.2l0.7-0.5
			c5.8-0.3,7.9,0,12.1-0.1l-2.9,0.1c6.8-0.1,7.2,0.1,11,0.2c-1.2-0.1-3-0.2-0.3-0.3c2,0,1.1,0.2,3,0.2c0.2-0.2,1.6-0.3,3.4-0.3
			c0.9,0,2,0,3,0c0.5,0,1.1,0,1.8,0c0.6,0,1.2,0,1.8-0.1c-0.1,0.1-0.2,0.1-0.5,0.2c1.2-0.3,1.9-0.3,4-0.8l-1.2,0.6l2-0.7l1.9-0.9
			c1.3-0.5,2.8-1.3,3.9-2c1.1-0.7,1.8-1.3,1.7-1.1c-0.4,0.3-0.8,0.7-1.2,1c5.9-3.8,10-10.2,10.9-17.1l0.3-0.3c0-0.5,0-1.5,0-2.7
			c0-1,0-2.3,0-3.4c0-2.3,0-4.2-0.2-3.9c0.3-3.6-0.2-14,0.3-11.9c0-12.4-0.5-19.1-0.2-34.2c0.4-5.4,0.3-20.1,0.3-29.8
			c-0.2-18.9-0.3-31.2-0.5-50.5c0.1-1.5,0.1-3,0.2-4.6c0-0.8,0-1.6,0-2.5c0-0.4,0-0.8,0-1.3c0-0.5,0-1-0.1-1.4
			c-0.1-1.9-0.5-3.9-1.1-5.8c-0.7-1.9-1.5-3.8-2.6-5.5c-2.2-3.5-5.4-6.3-8.8-8.2c-3.5-2-7.3-2.9-10.8-3.2c-1.3,0-2.4,0.1-3.6,0.2
			c-8.4-0.4-21.3,0.1-33.1-0.3c-2.9,0.1-4.4,0.1-5.1,0.1c0.5,0,1.4,0.1,1.6,0.2c-3.4-0.1-10.2,0-9.7-0.3l0.9,0
			c0.5-0.3-10.3,0.1-14-0.1l2.1,0.3l-6.4-0.1l1.7-0.1c-27.8,0.7-40.4-0.3-66.5,0.4c3.5-0.4-5.1,0.2-5.5-0.2
			c-6.6-0.5-12.2,0.1-17.6,0.2c0,0-0.1,0-0.4,0.1l-9.4,0c5.6-0.5-6.8,0.4-1.6,0c-24.6-0.4-56.7,0-85.2-0.2l1.2,0.1
			c-7.2,0-16.2,0.1-21.7-0.1c-5.5-0.2-12,0.3-14.1,0.3c-6,0.2-11.5-0.2-8.9-0.2c-6.4,0.1-12.5,0.5-21.4,0.3
			c-3-0.4-24.3,0.4-24.6-0.1l-0.1,0c-11.4-0.3-22.2,0.2-34.5-0.1c0,0,0.3,0,0.7-0.1L51,157"/>
		<path class="st0" d="M464.3,356.4c-2.7,0.2-5.3,0.3-8,0.5c-17.9,1.3-35.7,0.8-53.6,0.8c-13,0-26-0.1-38.9,0
			c-10.5,0.1-21,0.4-31.6,0.4c-7.2,0.1-14.3-0.1-21.5-0.1c-28.1,0-56.1,0.1-84.1,0.1c-5.9,0-11.8-0.2-17.7-0.1
			c-5.5,0-11,0.3-16.5,0.4c-5.6,0-11.2-0.2-16.7-0.2c-5.3,0-10.5,0.1-15.8,0.1c-16.1,0-32.2,0-48.3,0c-7.3,0-14.7,0.2-22,0.3
			c-2.3,0-4.6-0.3-6.9-0.3c-13.2,0-26.3,0.1-39.5,0.1c-2.4,0-4.9-0.1-7.3-0.1c-8.4,0-16.9-6.7-19.3-15.4c-0.5-1.9-0.8-3.8-0.8-5.8
			c-0.1-32.8-0.2-65.6-0.2-98.4c0-14.2,0-28.3,0.1-42.5c0-4,0.2-8,0.2-12c0-4.3-0.3-8.6-0.1-12.9c0.2-4.3-0.3-8.7,1-13
			c2-6.6,6.5-10.8,12.5-13.5c2.1-0.9,4.7-1.1,7-1.2c6.4-0.2,12.8-0.3,19.2-0.3c2.5,0,5.1,0.3,7.6,0.2c3.2-0.1,6.4-0.6,9.5-0.7
			c3.8-0.1,7.6-0.1,11.4,0c4.4,0.1,8.7,0.5,13.1,0.7c3.3,0.1,6.5-0.1,9.8-0.1c13.2,0,26.4,0,39.5,0.1c6.5,0,13.1,0,19.6,0
			c7.6,0.1,15.1,0.2,22.7,0.2c1.6,0,3.1-0.3,4.7-0.4c3-0.3,5.9-0.6,8.9-0.7c3-0.1,6-0.2,8.9,0.1c10,1.3,20,0.2,30,0.4
			c12.1,0.2,24.2,0.1,36.3,0.1c15.7,0,31.4,0,47.1,0.1c19.1,0.1,38.2,0.1,57.3,0.2c1.5,0,3,0,4.5,0.3c-4.5,0-9.1,0-13.6,0l0,0.4
			c3.2,0,6.4,0,9.6,0c3.4,0,6.9,0,10.3,0c4.5,0,9.1,0,13.6,0c6.3,0,12.6-0.1,18.9,0c2.4,0,4.7,0.4,7.1,0.4c3.3,0,6.6-0.2,9.9-0.2
			c7.9,0.1,15.9,0.3,23.8,0.6c1.8,0.1,3.6,0.6,5.7,0.9c-0.6-0.3-1.2-0.6-1.7-0.8l0-0.1c0.7,0.2,1.5,0.4,2.1,0.7
			c6.6,2.6,10.8,7.4,12.5,14.2c0.6,2.6,0.4,5.4,0.5,8.1c0.1,1.9-0.4,3.9,0.6,5.7c0.3,0.6,0.1,1.5,0.1,2.3c-0.1,8.7-0.3,17.3-0.4,26
			c-0.1,12.1,0,24.2-0.1,36.3c-0.4,22.8-0.9,45.5-1.3,68.3c-0.1,6.4,0,12.8-0.1,19.2c-0.1,3.8-0.4,7.5-0.5,11.3
			c-0.2,4.5-2.1,8.1-5.3,11.1c-2.3,2.1-4.9,3.5-7.8,4.5c0.5-0.3,1.1-0.5,1.6-0.9c2.2-1.6,4.6-3,6.4-4.9c3.2-3.3,4.5-7.3,3.9-12
			c-0.2-1.1,0-2.3,0-3.4c-0.1-8.3-0.2-16.6-0.2-24.9c0-17.3,0.2-34.6,0.2-51.9c0-24.6-0.1-49.1-0.2-73.7c0-0.9,0-1.9-0.3-2.8
			c0,0.7-0.1,1.3-0.1,2l-0.1,0c0-5.2,0-10.3,0-15.5c-0.1-9.2-6.9-16.1-16.1-16.2c-14.7-0.1-29.3-0.1-44-0.1c-28.7,0-57.4,0-86.1-0.1
			c-32.7-0.1-65.4-0.3-98-0.3c-50.9,0-101.8,0.2-152.7,0.2c-12.7,0-25.3-0.2-38-0.2c-3.5,0-7.1-0.1-10.6,0.1
			c-9,0.6-15.4,7.5-15.4,16.6c0,11.1,0.3,22.2,0.3,33.4c0,17.4-0.3,34.9-0.3,52.3c-0.1,28.9,0,57.7,0,86.6c0,9.5,7.2,16.6,16.6,16.6
			c19.7,0,39.5-0.1,59.2-0.1c3.2,0,6.4,0.2,9.7,0.2c25.9,0,51.9,0,77.9-0.1c23.1-0.1,46.3-0.3,69.4-0.3c39.2,0.1,78.4,0.3,117.7,0.4
			c20.8,0,41.6-0.2,62.4-0.2c5.4,0,10.8,0.5,16.2,0.8c4.9,0.2,9.7,0.4,14.4,1.7l0.4,0.1L464.3,356.4z"/>
	</g>
	<g>
		<path class="st0" d="M483,363.9c-0.5,1.5-1.1,2-2.6,1.9c-1.7-0.2-3.5,0.1-5.3,0.1c-3.6,0-7.3-0.2-10.9-0.2c-1.1,0-2.2,0.2-3.3,0.3
			c-0.1,0.1-0.1,0.3-0.2,0.4c0.4,0.4,0.7,0.8,1.1,1.1c3.5,2.2,4.4,5.6,4.1,9.4c0,0.3-0.1,0.7-0.2,0.9c-1.5,1.9-2.3,4.2-4.6,5.5
			c-3.2,1.8-6.1,1.8-9.6,0.5c-3.1-1.1-4.2-3.4-5.2-5.9c-0.7-1.8,0.1-3.5,2.1-4.4c0.2,1,0.6,2,0.6,3c0,2.5,2.7,5.2,5.2,5.1
			c0.6,0,1.3-0.1,1.7,0.1c1.5,0.7,2.9,0,3.9-0.8c2.3-1.8,3.8-4.1,3-7.2c-0.2-0.9-0.8-1.9-1.5-2.6c-2.1-2.2-4.7-3.4-7.7-3.8
			c-2.5-0.4-5-1.2-7.6-1.4c-2.9-0.3-5.9-0.3-8.8-0.3c-3.2,0-6.3,0.2-9.5,0.2c-3.8,0-7.7,0.1-11.5,0c-1.3,0-2.6-0.3-3.9-0.5
			c-0.4,0-0.9-0.1-1.3,0.1c-0.9,0.4-1.3-0.2-1.4-0.8c-0.1-0.4,0.2-1.3,0.5-1.4c1.1-0.3,2.2-0.4,3.3-0.4c2-0.1,4-0.2,6.1-0.2
			c1.6,0,3.1,0.2,4.7,0.3c1.1,0,2.1-0.1,3.2-0.1c1,0,1.9,0,2.9,0c2.4,0,4.9,0,7.3-0.1c0.7,0,1.4-0.2,2.2-0.1
			c3.6,0.1,7.1,0.2,10.7,0.2c5.5,0,11,0,16.5,0c4.4,0,8.7-0.1,13.1,0C481.3,362.9,482.2,363.5,483,363.9z"/>
		<path class="st0" d="M468.6,368.5c1.5,0.7,2.8,1.3,4.1,1.9c2.9,1.4,5.9,2.8,8.8,4.3c0.5,0.3,1,0.8,1.2,1.3
			c0.1,0.4-0.1,1.1-0.3,1.5c-0.1,0.2-0.8,0-1.2-0.1c-2.8-1.2-5.5-2.3-8.2-3.6c-1.7-0.8-3.3-1.8-4.9-2.8c-0.4-0.3-0.8-1.1-0.7-1.4
			C467.5,369.1,468.2,368.9,468.6,368.5z"/>
		<path class="st0" d="M439.8,377.7c0.3-2.5,0.4-4.6,2.7-5.4c1-0.4,1.5-0.1,1.4,1c-0.1,0.6-0.4,1.1-0.6,1.6c-0.7,1.2-1,2.4-0.1,3.6
			c0.3,0.4,0.5,1,0.5,1.5c0,0.6-0.3,1.2-0.5,1.7c-0.6-0.3-1.6-0.3-1.9-0.8C440.6,379.8,440.2,378.5,439.8,377.7z"/>
		<path class="st0" d="M476.1,381.8c-0.4,0.6-0.6,1-1,1.3c-0.2,0.1-0.8,0-0.9-0.2c-1.6-1.8-3.2-3.7-4.7-5.6c-0.2-0.3-0.4-0.7-0.4-1
			c0.1-0.6,0.3-1.1,0.5-1.7c0.4,0.2,1,0.3,1.3,0.6c1,0.9,2.1,1.8,2.9,2.8C474.7,379.2,475.3,380.5,476.1,381.8z"/>
		<path class="st0" d="M434.4,375.6c-0.1-1.6,0.5-3.1,1.9-4.2c0.4-0.3,1.2-0.3,1.8-0.4c0.1,0.7,0.3,1.4,0.2,2.1
			c-0.3,1.2-0.9,2.2-1.3,3.4c-0.3,0.8-0.6,1.4-1.6,1.3c-1-0.1-1.1-0.9-1.1-1.7C434.4,376,434.4,375.8,434.4,375.6z"/>
		<path class="st0" d="M480.1,371.4c-1.4-0.3-2.4-0.4-3.3-0.8c-0.4-0.2-0.9-1-0.8-1.4c0.1-0.4,0.8-1,1.3-1c1.5-0.1,3,0.1,4.5,0.2
			c0.9,0.1,1.3,1.2,0.6,1.8C481.7,370.8,480.7,371.1,480.1,371.4z"/>
		<path class="st0" d="M404.9,365.2c-0.4,0.3-1,1-1.6,1.1c-1,0.2-1.6-0.6-1.6-1.6c0-0.9,0.5-1.6,1.5-1.6
			C404.2,363.1,404.7,363.8,404.9,365.2z"/>
	</g>
	<g>
		<path class="st0" d="M52.7,373.3c1.9,0.9,2.8,2.6,2.2,4.2c-0.6,1.6-1.5,3-2.3,4.5c-0.1,0.2-0.3,0.5-0.6,0.6
			c-2.3,0.8-4.2,2.3-6.9,2.2c-2.8,0-5.1-1.1-6.9-2.9c-3.9-3.7-4.7-9.9,0.2-14c0.6-0.5,1.3-1,2.2-1.8c-0.8-0.2-1.2-0.4-1.7-0.4
			c-2.8,0-5.7,0.1-8.5,0.1c-2.3,0-4.5-0.1-6.8-0.1c-1.2,0-2.4-0.1-3.7,0c-1.3,0.1-1.6-0.8-2-1.6c1.6-2.1,3.8-1.3,5.7-1.3
			c4.8-0.1,9.6,0,14.4,0c2.2,0,4.4-0.1,6.6,0c4,0,8,0.2,12,0.2c0.8,0,1.6-0.2,2.4-0.2c3.2,0,6.5,0.1,9.7,0.2c0.2,0,0.4,0.1,0.5,0
			c2-0.8,3.9,0.1,5.9,0.1c0.4,0,0.9-0.1,1.3-0.2c1-0.1,2-0.4,2.9-0.3c3.2,0.1,6.3,0.2,9.4,0.3c0.6,0,1.2,0.3,1.7,0.6
			c0.3,0.2,0.4,0.9,0.3,1.1c-0.2,0.4-0.7,0.8-1.2,0.9c-1.4,0.1-2.9,0.1-4.4,0.1c-1.4,0-2.9,0.1-4.3,0.1c-2.7,0-5.4,0.1-8.1,0
			c-2.9,0-5.9-0.2-8.8-0.2c-4.5,0.1-9,0.2-13.4,0.7c-2.7,0.3-5.4,1.2-8,2c-4,1.3-6.2,5.5-4.8,8.9c0.9,2.2,2.5,4,5,4.6
			c0.4,0.1,0.8,0,1.2,0c0.7-0.1,1.3-0.3,2-0.3c2.1,0,4.9-1.9,5.6-3.9c0.1-0.2-0.1-0.5,0-0.8C52.4,375.6,52.5,374.5,52.7,373.3z"/>
		<path class="st0" d="M18.3,376.1c0.5-0.5,0.9-1.2,1.5-1.5c1.5-0.8,3.2-1.5,4.7-2.3c2.3-1.1,4.6-2.4,6.9-3.5
			c0.5-0.2,1.3-0.3,1.8-0.2c0.9,0.2,1.1,0.9,0.5,1.7c-0.2,0.3-0.5,0.6-0.8,0.7c-2.1,1.1-4.3,2.3-6.5,3.3c-2.2,1-4.4,1.9-6.6,2.9
			C18.9,377.8,18.6,377.3,18.3,376.1z"/>
		<path class="st0" d="M58.1,381.6c-0.9-1.2-0.8-2.3-0.1-3.3c0.9-1.2,0.6-2.3,0-3.5c-0.1-0.2-0.3-0.3-0.3-0.4
			c-0.1-0.8-0.1-1.5-0.2-2.3c0.6,0.2,1.3,0.2,1.8,0.5c1.6,0.9,2.4,4.1,1.7,6.1C60.2,381,60.1,381.1,58.1,381.6z"/>
		<path class="st0" d="M32.4,375.6c-0.2,0.6-0.3,1.1-0.6,1.5c-1.5,1.9-3.1,3.7-4.7,5.6c-0.2,0.2-0.9,0.3-1,0.1
			c-0.3-0.4-0.7-1.1-0.5-1.4c0.6-1.4,1.4-2.7,2.3-3.9c0.7-1,1.7-1.7,2.6-2.5c0.3-0.3,0.9-0.7,1.1-0.5
			C32,374.7,32.2,375.2,32.4,375.6z"/>
		<path class="st0" d="M67,375.7c0,0.8,0.1,1.7-1,1.9c-1.1,0.2-1.4-0.6-1.7-1.5c-0.3-1.1-0.9-2.1-1.2-3.1c-0.2-0.6,0-1.4,0.1-2.1
			c0.7,0.1,1.4,0,1.9,0.4C66.5,372.3,67,374,67,375.7z"/>
		<path class="st0" d="M20.9,371.2c-0.6-0.3-1.4-0.7-2.1-1.3c-0.2-0.2-0.2-0.9-0.1-1.2c0.1-0.3,0.7-0.5,1-0.5
			c1.2-0.1,2.5-0.1,3.8-0.2c0.9-0.1,1.6,0,1.8,1c0.3,1-0.3,1.5-1.2,1.7C23.2,370.8,22.3,370.9,20.9,371.2z"/>
		<path class="st0" d="M99.9,364.2c-0.4,1.2-0.7,1.9-1.7,1.9c-1.1,0-1.6-0.6-1.6-1.6c0-1,0.6-1.7,1.6-1.6
			C98.8,363.1,99.3,363.8,99.9,364.2z"/>
	</g>
	<g>
		<path class="st0" d="M50.6,127.7c-0.2-1.3-0.2-2.5-0.5-3.6c-0.1-0.6-0.4-1.2-0.7-1.7c-1.3-1.9-2.8-3.1-5.4-2.9
			c-1.3,0.1-2.7-0.5-4,0.3c-2.7,1.5-5.1,5.2-3.5,8.9c0.1,0.2,0.2,0.5,0.4,0.7c2.2,2.2,4.7,4,8,4.4c2.9,0.4,5.8,1.4,8.7,1.6
			c4.4,0.3,8.8,0.2,13.1,0.2c5.3,0,10.6-0.2,16-0.2c1.3,0,2.7,0.3,4,0.5c0.4,0,0.8,0,1.2-0.1c0.9-0.4,1.4,0.2,1.5,0.8
			c0.1,0.4-0.4,1.3-0.7,1.4c-1,0.3-2.1,0.3-3.2,0.3c-1.9,0.1-3.9,0.2-5.8,0.1c-1.6,0-3.2-0.2-4.8-0.2c-1,0-2.1,0-3.1,0
			c-1.1,0-2.3,0-3.4,0.1c-2.4,0.1-4.8,0.1-7.1,0.2c-0.5,0-1,0.1-1.5,0.1c-3.6-0.1-7.2-0.2-10.8-0.2c-5.6,0-11.2,0-16.8,0
			c-3.9,0-7.9-0.2-11.8-0.1c-1.5,0-2.8-0.1-3.9-1.2c0.2-1.1,0.8-1.7,2.1-1.7c3,0.1,6.1,0,9.1,0c2.4,0,4.8,0.2,7.1,0.2
			c1.2,0,2.5-0.2,3.7-0.4c0.2-0.3,0.3-0.5,0.5-0.8c-0.5-0.3-1.1-0.5-1.6-0.8c-3.6-2.3-4.4-5.8-4.1-9.7c0-0.2,0-0.4,0.2-0.5
			c1.4-1.9,2.2-4.2,4.4-5.5c3.3-1.9,6.3-1.9,9.8-0.6c3.1,1.2,4.2,3.4,5.2,6C53.6,125.1,52.7,126.8,50.6,127.7z"/>
		<path class="st0" d="M30.6,132.7c-1.6-0.7-2.9-1.3-4.2-1.9c-2.8-1.4-5.7-2.8-8.5-4.2c-0.6-0.3-1.1-0.9-1.3-1.5
			c-0.4-1.2,0.3-1.7,1.5-1.2c2.8,1.2,5.6,2.3,8.3,3.6c1.7,0.8,3.3,1.8,4.9,2.9c0.4,0.3,0.8,1.1,0.7,1.4
			C31.7,132.1,31,132.4,30.6,132.7z"/>
		<path class="st0" d="M56,119.5c1.9-0.1,2.4,1.4,2.9,2.7c1.1,2.4-0.1,5.7-2.3,6.7c-1,0.5-1.4,0.3-1.3-0.8c0-0.5,0.2-1.1,0.5-1.5
			c0.8-1.3,1.1-2.5,0.1-4C55.3,121.6,55.2,120.5,56,119.5z"/>
		<path class="st0" d="M30.4,125.3c-0.3,0.4-0.5,1-0.9,1.3c-0.2,0.1-0.8-0.2-1.1-0.5c-1.4-1.4-2.8-2.8-4.1-4.4
			c-0.5-0.7-0.7-1.6-0.9-2.5c-0.1-0.3,0.3-0.8,0.6-1.1c0.2-0.1,0.8,0,0.9,0.2c1.6,1.9,3.2,3.8,4.8,5.7
			C30.1,124.3,30.2,124.8,30.4,125.3z"/>
		<path class="st0" d="M64.9,125.6c0,1.8-0.6,3.3-2.1,4.4c-0.4,0.3-1.4,0.4-1.6,0.2c-0.3-0.4-0.5-1.2-0.3-1.8c0.3-1.2,1-2.3,1.4-3.5
			c0.3-0.8,0.6-1.6,1.7-1.4c1,0.2,1.1,1,1,1.8C64.9,125.3,64.9,125.4,64.9,125.6z"/>
		<path class="st0" d="M19.3,129.9c1.1,0.2,2.2,0.4,3.1,0.8c0.4,0.2,0.8,1,0.7,1.5c-0.1,0.4-0.8,0.9-1.2,0.9c-1.5,0-3.1-0.1-4.6-0.3
			c-0.9-0.1-1.2-0.8-0.7-1.6C17.2,130.2,18.2,129.9,19.3,129.9z"/>
		<path class="st0" d="M96.1,134.9c1,0.1,1.4,0.7,1.4,1.7c-0.1,1-0.6,1.5-1.6,1.5c-1,0-1.5-0.7-1.5-1.7
			C94.5,135.4,95.1,134.9,96.1,134.9z"/>
	</g>
	<g>
		<path class="st0" d="M446.5,127.5c-2-0.8-2.9-2.5-2.2-4.2c0.5-1.4,1.2-2.8,2.1-4.1c0.5-0.7,1.4-1.1,2.1-1.5
			c0.5-0.3,1.1-0.6,1.7-0.8c1-0.3,2-0.7,3-0.8c3.1-0.4,5.8,0.9,7.8,3c3.8,3.9,4.5,10-0.7,14.1c-0.6,0.5-1.1,0.9-2,1.6
			c0.9,0.2,1.3,0.4,1.7,0.4c2.8,0.2,5.6,0.4,8.5,0c2.3-0.3,4.8,0,7.2,0.1c0.9,0,1.8,0.1,2.7,0c1.6-0.2,1.9,0,2.5,1.6
			c-1,0.8-2,1.3-3.4,1.2c-1.9-0.2-3.8,0-5.7,0c-0.9,0-1.9-0.3-2.8-0.3c-3.9,0.1-7.8,0.2-11.7,0.3c-4.9,0-9.8-0.1-14.6-0.1
			c-0.5,0-1,0-1.5,0c-2,0-4,0.1-5.9,0.1c-2.6,0.1-5.1,0.2-7.7,0.2c-1.3,0-2.6-0.3-3.9-0.4c-0.4,0-0.9,0-1.3,0.1
			c-1.1,0.1-2.1,0.4-3.2,0.4c-3.2,0-6.3-0.2-9.5-0.3c-0.6,0-1.2-0.3-1.7-0.6c-0.2-0.2-0.3-0.9-0.1-1.1c0.2-0.4,0.7-0.8,1.1-0.8
			c1.5-0.1,2.9-0.1,4.4-0.1c1.1,0,2.2-0.2,3.4-0.2c3.1,0,6.1-0.1,9.2,0c3.4,0,6.9,0.3,10.3,0.2c5.2-0.1,10.5,0,15.6-1.6
			c2.8-0.8,5.3-1.6,7.6-3.6c1.7-1.5,2.2-3.3,1.8-5.4c-0.6-2.9-2.4-4.9-5.4-5.7c-0.4-0.1-0.8,0-1.2,0.1c-0.6,0.1-1.2,0.3-1.9,0.3
			c-2.1,0-4.9,1.8-5.6,3.8c-0.1,0.2,0,0.5,0,0.8C446.9,125.2,446.7,126.3,446.5,127.5z"/>
		<path class="st0" d="M480.7,124.9c-0.2,0.3-0.6,1-1.2,1.3c-1.3,0.8-2.7,1.3-4.1,2c-2.6,1.3-5.1,2.6-7.7,3.8
			c-0.9,0.4-1.9,0.5-2.4-0.4c-0.2-0.4,0.4-1.5,0.9-1.8c1.9-1.2,3.9-2.2,5.9-3.2c2.3-1.1,4.7-2.1,7.1-3.1
			C480.2,123.1,480.7,123.4,480.7,124.9z"/>
		<path class="st0" d="M441.8,120.6c-0.2,0.7-0.3,1.4-0.6,1.8c-1,1.3-0.7,2.6,0.1,3.8c0.2,0.3,0.4,0.6,0.5,1c0,0.5-0.1,1-0.2,1.6
			c-0.5-0.1-1.1-0.1-1.5-0.3c-1.8-1-2.8-4-2.1-6.1c0.3-0.8,0.6-1.6,1.1-2.2c0.4-0.5,1.2-0.8,1.9-0.8
			C441.2,119.3,441.6,120.2,441.8,120.6z"/>
		<path class="st0" d="M474,119.2c-0.8,1.3-1.4,2.7-2.3,3.8c-0.9,1.2-2.1,2.1-3.2,3.1c-0.7,0.6-1.2,0.4-1.4-0.4
			c-0.1-0.6-0.1-1.5,0.3-2c1.5-1.9,3.1-3.8,4.7-5.6c0.2-0.2,0.7-0.3,0.9-0.2C473.4,118.2,473.6,118.6,474,119.2z"/>
		<path class="st0" d="M432.3,125.5c0-0.6-0.1-1,0-1.2c0.3-0.4,0.7-1.1,1-1.1c0.5,0,1.2,0.4,1.4,0.8c0.7,1.3,1.2,2.7,1.6,4.1
			c0.2,0.5,0,1.4-0.3,1.7c-0.3,0.3-1.2,0.2-1.6-0.1C432.9,128.6,432.2,127.1,432.3,125.5z"/>
		<path class="st0" d="M477.7,129.7c1.1-0.1,2.1,0.1,2.7,1.1c0.2,0.3,0.3,0.9,0.1,1.2c-0.2,0.3-0.7,0.5-1.1,0.5
			c-1.2,0.1-2.4,0.1-3.6,0.2c-0.9,0.1-1.6,0-1.9-1c-0.3-1,0.4-1.4,1.2-1.6C475.9,130,476.8,129.9,477.7,129.7z"/>
		<path class="st0" d="M401.2,137.9c-1-0.1-1.6-0.7-1.5-1.7c0-1,0.6-1.5,1.5-1.5c1.1,0,1.5,0.7,1.5,1.7
			C402.6,137.3,402.1,137.8,401.2,137.9z"/>
	</g>
	<path class="st1" d="M168.3,235.3c0.1,0.3,0.3,0.6,0.4,0.9c0.1,0.1,0.2,0.2,0.4,0.3c0.9-2.3,1.7-4.6,2.7-6.8
		c0.5-0.9,1.4-1.9,2.3-2.3c1.3-0.7,2.7-0.2,3.8,0.8c1,1,0.9,2.2,0.5,3.5c-2.4,6.7-4.9,13.4-7.3,20.2c-1.2,3.3-2.3,6.7-2.4,10.3
		c-0.1,3.6,1.7,5.1,5.3,4.5c2.1-0.4,3.9-1.5,5.2-3.1c1.8-2.3,3.5-4.7,5.2-7.1c2.1-3.2,4.1-6.4,6.1-9.7c0.3-0.5,0.5-1.2,0.7-1.8
		c1.8-5.5,3.6-11.1,5.4-16.6c0.6-1.7,2.1-2.5,3.8-2.1c2,0.5,3.3,2.2,2.7,4.1c-0.8,3.1-1.9,6.1-2.8,9.2c-1.5,4.9-3.1,9.7-4.3,14.6
		c-0.4,1.5-0.3,3.3,0,4.9c0.6,3.3,3.1,4.8,6.2,3.4c1.8-0.8,3.4-2.2,4.7-3.6c2.9-3.2,4.8-7,6.5-11c2.5-5.9,4.8-11.9,7.2-17.9
		c0.8-2,1.7-4.1,2.6-6.1c0.9-1.9,2.7-2.5,4.6-1.7c1.9,0.8,2.5,2.5,1.6,4.6c-3.5,8.3-6.3,16.9-8.3,25.7c-0.4,1.9-0.5,4-0.4,6
		c0.1,2.9,1.8,3.9,4.2,2.5c2.2-1.3,4.4-2.9,6.1-4.8c3-3.4,5.7-7.2,8.5-10.8c0.4-0.5,0.5-1.2,0.7-1.8c2.2-7.4,4.3-14.9,6.5-22.3
		c0.2-0.8,0.8-1.7,1.5-2.2c1.2-1,3-0.8,4.2,0.1c1.1,0.9,1.5,2.1,1,3.7c-1.2,3.8-2.4,7.5-3.6,11.3c-0.1,0.4-0.2,0.9-0.2,1.4
		c0.5-0.7,0.9-1.4,1.4-2.1c3-4,5.9-8.1,9.1-11.9c1.7-2,4-3.7,6.2-5.1c3.7-2.2,7.4-1.3,10.3,1.9c2.9,3.2,3.4,7.1,2.9,11.2
		c-0.5,4.4-2.1,8.5-3.6,12.7c-1.4,3.7-2.7,7.4-3.8,11.2c-0.3,1-0.2,2.3,0.1,3.4c0.4,1.5,1.5,1.8,2.5,0.6c1.7-1.7,3.4-3.5,4.9-5.4
		c2.8-3.4,5.5-6.9,8.3-10.3c0.3-0.4,0.6-0.9,0.7-1.5c1.5-8.4,5.5-15.5,10.4-22.2c2.3-3.2,5.1-6,8.6-8.1c2.4-1.4,5-2.3,7.8-2.5
		c2.3-0.1,4.4,0.8,6.3,2c0.2,0.1,0.5,0.3,0.8,0.5c1.1-2.9,2.1-5.7,3.3-8.5c3.4-7.7,6.8-15.4,10.3-23.1c1-2.3,2.7-3,4.6-2
		c2,1,2.6,3,1.5,5.2c-6.7,13.3-12.1,27.1-17,41.2c-1.7,4.9-3.1,9.9-3.6,15.1c-0.2,2.4,0.2,4.7,1.4,6.8c1.7,2.9,4,3.2,6.2,0.8
		c1-1,1.8-2.2,2.5-3.4c4.4-8.5,8.6-17,12.8-25.2c-0.6-0.7-1.1-1.4-1.7-2.1c-1.6-2-2.1-4.1-1.5-6.6c1-4.8,5.5-8.9,10.3-9.4
		c2.2-0.2,3.6,0.9,4.1,3c0.5,2.7,0.3,5.3-0.4,7.9c-0.1,0.5-0.3,1-0.4,1.4c3,0.2,5.9,0.2,8.7,0.5c1.7,0.2,3.4,0.8,4.9,1.6
		c3.2,1.7,4.4,4.9,3.2,8.3c-0.6,1.6-1.3,3.1-2.2,4.6c-1.4,2.3-3,4.5-4.3,6.9c-0.8,1.5-1.4,3.2-1.6,4.9c-0.3,2,0.8,3.1,2.8,3.3
		c2.6,0.3,5-0.4,7-1.9c2.5-1.9,4.8-4,6.9-6.3c1.9-2.1,3.5-4.5,5-6.9c0.7-1.1,0.7-2.6,0.9-3.9c1.3-8.2,4.5-15.6,8.9-22.5
		c1.1-1.7,3.1-2,4.8-0.9c1.6,1.1,2,2.9,0.9,4.7c-3.9,6.2-6.8,12.8-7.8,20.1c-0.3,2.4-0.5,5-0.1,7.4c0.5,3.8,3.2,5.2,6.7,3.5
		c1.4-0.6,2.6-1.5,3.7-2.5c4.2-3.9,7.8-8.4,10.8-13.3c0.9-1.5,1.3-3.2,2.1-4.8c2.8-5.7,5.7-11.4,8.6-17.1c0.9-1.7,2.2-2.3,3.8-2
		c2.4,0.4,3.5,2.4,2.6,4.6c-2.6,6.6-5.4,13.1-9.2,19.1c-1.8,2.8-3.1,5.8-4.1,9c-1.2,3.9-2.3,7.8-3.6,12c6.1-2.7,11.5-5.9,16.1-10.2
		c3.1-2.9,5.9-6.2,7.7-10.1c1.7-3.7,2.3-7.5,1.2-11.5c-0.6-2,0.3-3.6,2.3-4.2c2-0.6,3.7,0.3,4.3,2.3c1.6,5.2,1,10.4-1.2,15.3
		c-3.2,7.3-8.6,12.8-15,17.5c-5.1,3.8-10.7,6.5-16.6,8.7c-1,0.4-1.5,0.9-1.9,1.9c-2.4,7.1-6,13.6-11.2,19.1
		c-2.7,2.8-5.6,5.2-9.3,6.4c-7.4,2.4-15.7-2.4-17-9.8c-0.7-4,0.6-7.5,3.3-10.5c2.6-2.9,5.9-4.8,9.6-6c4.7-1.5,9.5-2.7,14.3-4.1
		c1.5-0.4,2.9-1,4.3-1.4c0.8-0.2,1.2-0.7,1.4-1.5c0.3-1.3,0.7-2.5,1.2-4.1c-0.9,0.7-1.5,1.2-2.2,1.7c-3,2.2-6.2,3.5-10,3.1
		c-3.5-0.4-6-2.1-7.8-5.1c-0.3-0.5-0.6-1-0.8-1.5c-1.8,2-3.6,4.1-5.5,6c-3.5,3.5-7.6,6.1-12.7,6.7c-3.4,0.4-6.5-0.4-9.2-2.5
		c-3.2-2.6-4.5-6-3.2-9.9c0.9-2.7,2.5-5.3,3.8-7.9c1-2,2.3-3.9,3.2-5.9c1-2.4,0.4-3.4-2.2-3.6c-3.1-0.2-6.2-0.2-9.4-0.1
		c-0.4,0-0.9,0.6-1.2,1.1c-3.7,7.2-7.3,14.4-11.1,21.5c-1.7,3.1-3.6,6.1-5.7,8.9c-1.1,1.5-2.7,2.7-4.2,3.7c-2.7,1.7-5.6,1.6-8.4,0
		c-3.3-1.9-5.5-4.8-6.6-8.7c-0.3,0.4-0.5,0.7-0.7,1c-1.8,2.6-3.4,5.3-5.4,7.8c-2.6,3.4-6,5.3-10.3,5.5c-4.2,0.2-7.4-1.8-9.1-5.6
		c-0.2-0.4-0.3-0.8-0.6-1.4c-1.8,2.1-3.5,4.1-5.3,6.1c-1.6,1.8-3.2,3.5-5,5.1c-2.3,2.1-5.1,2.9-8.2,2.3c-2.8-0.6-4.7-2.7-5.2-5.9
		c-0.6-3.6-0.1-7.2,1-10.6c1.2-3.8,2.7-7.4,4.1-11.1c1.4-3.6,2.5-7.2,2.1-11.1c-0.1-1.3-0.1-2.9-1.6-3.3c-1.6-0.5-3,0.2-4.2,1.5
		c-8.3,8.5-14.1,18.5-19,29.2c-1.6,3.4-3,6.9-4.5,10.3c-0.6,1.4-2.2,2.2-3.6,1.9c-1.7-0.4-3.1-2.2-3-4c0-0.6,0.2-1.2,0.3-2.1
		c-0.9,0.9-1.5,1.7-2.2,2.4c-2.6,2.6-5.4,5-9,6.1c-5.9,1.8-10.1-0.5-11.7-6.4c-0.1-0.3-0.1-0.5-0.2-1c-0.7,0.9-1.3,1.7-2,2.5
		c-2.3,2.8-5.1,5-8.7,6c-5.9,1.6-10.7-0.8-12.9-6.5c-0.2-0.5-0.3-0.9-0.6-1.6c-0.4,0.5-0.7,0.9-1,1.4c-2.2,3.1-4.6,6.1-7.7,8.4
		c-4.9,3.7-9.9,3.9-14.7,0.7c-2.3-1.5-3.9-3.6-4.3-6.4c-0.1-0.3-0.2-0.6-0.2-0.8c-1.7,2.3-3.4,4.7-5.2,6.9c-2.5,2.9-5.4,5.2-9.2,6.1
		c-5.7,1.3-10.2-0.8-12.9-6.6c-0.4,0.6-0.5,1.1-0.9,1.5c-3.8,3.9-7.8,7.5-12.8,9.9c-7.1,3.4-14.3,3.8-21.5,0.3
		c-2.5-1.2-4.9-2.5-7.4-3.7c-0.7-0.4-1.4-0.7-2.1-1.1c-1.1,1.8-2.2,3.6-3.3,5.3c-1.9,2.8-4.1,5.3-7,7.2c-2.8,1.8-5.9,2.9-9.3,2.3
		c-7.5-1.4-11-9.8-7.1-16.6c2.4-4.2,6.3-6.3,10.8-7.5c4.1-1,8.2-0.9,12.3,0.5c3.6-8.1,5.7-16.7,8.3-25.1c-2.5-0.5-5-0.6-7.4-1.4
		c-2.8-0.9-5.6-1.9-8-3.5c-10.7-7.2-9.5-22.9,2-28.7c1.9-1,3.9-0.4,4.8,1.4c1,1.8,0.4,3.4-1.5,4.6c-4.5,2.6-6.5,7-5.4,11.4
		c0.6,2.5,2.1,4.4,4.2,5.8c3.9,2.6,8.3,3.3,12.9,3.4c0.4,0,0.9-0.7,1.1-1.1c2-5.6,4.3-11.1,7.5-16.2c3.1-5.1,6.8-9.6,11.6-13.1
		c4.2-3.1,8.8-5,14.1-4.7c7.1,0.5,12,7,10.9,14c-0.7,4.6-3,8.4-6.1,11.7c-8.4,9.3-18.9,14.5-31.3,16c-1.7,0.2-2.4,0.8-2.8,2.4
		c-2.5,8.8-4.8,17.6-8.6,26.1c5,2.8,9.8,6,15.8,6.4c3.9,0.2,7.4-0.9,10.8-2.8c4.6-2.6,8.2-6.4,11.7-10.2c2.2-2.4,3.7-5,4.6-8.2
		c2.2-8,6.2-15.2,12-21.3c2.4-2.5,5.2-4.5,8.8-5.1C160.9,229.9,165,231.4,168.3,235.3L168.3,235.3z M103.9,236.5
		c10.6-1.8,19.6-6.2,26.4-14.4c1.4-1.7,2.7-3.8,3.4-5.9c1.6-4.8-2.1-8.7-7-7.7c-2.7,0.5-5.1,1.9-7.2,3.6
		C111.8,218.5,107.4,227,103.9,236.5z M294.4,245.1c0.3,1.7,0.5,3.1,0.9,4.4c0.7,2,2.9,2.9,4.8,1.9c1.2-0.7,2.4-1.6,3.3-2.6
		c1.6-1.9,3.2-3.8,4.4-6c3.1-5.8,6.1-11.7,8.9-17.7c1-2,1.5-4.3,2-6.6c0.6-2.8-1.4-4.8-4.2-4.3c-3.7,0.7-6.4,3.1-8.7,5.9
		c-4.3,5.2-7.5,11-9.8,17.3C295.3,240.1,295,242.8,294.4,245.1z M163,243.8c0.2-4.9-2.6-7.3-6.2-6.3c-1.2,0.3-2.5,1-3.5,1.8
		c-1.3,1.1-2.6,2.4-3.6,3.8c-3.4,4.4-5.9,9.3-7.8,14.5c-0.8,2.3-1.3,4.7-1.8,7.1c-0.4,2,0,4,1.8,5.3c1.7,1.2,3.6,0.6,5.2-0.3
		c1.2-0.7,2.5-1.5,3.4-2.5c1.3-1.4,2.6-3,3.6-4.7c2.3-4.1,4.5-8.2,6.6-12.4C162,247.8,162.6,245.2,163,243.8z M403.7,250.1
		c-1.4,0.4-2.4,0.7-3.4,1c-4.2,1.3-8.3,2.4-12.5,3.8c-2.3,0.8-4.4,2-5.8,4.2c-2.4,3.5-0.9,7.3,3.2,8.3c3.2,0.8,5.9-0.4,8.3-2.3
		C398.4,261.2,401.3,256,403.7,250.1z M83,275.2c-3.8-1.1-7.3-0.8-10.6,1c-2.1,1.1-3.5,2.9-4.2,5.2c-0.7,2.7,1.8,5.2,4.5,4.5
		c0.9-0.2,1.7-0.7,2.4-1.2C78.6,282.2,80.8,278.8,83,275.2z"/>
	<path class="st2" d="M275.1,255.3c-0.4-0.3-0.7-0.6-1-0.8c0.1-0.2,0.2-0.4,0.4-0.6c3.6-4.3,7.2-8.6,10.7-13
		c0.5-0.7,0.9-1.6,1.1-2.4c2.2-11.9,7.6-21.9,17.1-29.5c4.1-3.3,8.8-4.7,14-3.7c1.1,0.2,2.1,0.6,3.3,0.9c4.5-10,9-19.9,13.5-29.9
		c0.4,0.2,0.8,0.3,1.3,0.5c-4.7,10.5-9.4,20.8-14,31.1c-2.2-0.5-4.2-1.2-6.2-1.4c-4.6-0.4-8.5,1.4-11.8,4.3
		c-8.7,7.5-13.8,17-15.7,28.3c-0.2,0.9-0.6,1.8-1.1,2.6C282.7,246.2,278.9,250.7,275.1,255.3z"/>
	<path class="st2" d="M168.3,235.3c-1-3.8-4.2-6.3-8.4-6.6c-7-0.4-12.6,2.3-16.8,7.7c-4.9,6.1-8.7,12.8-10.2,20.5
		c-0.6,3.2-2.2,5.5-4.2,7.8c-4,4.5-8.5,8.3-14.3,10.2c-6.1,2-11.9,1.4-17.2-2.7c-0.2-0.2-0.5-0.4-0.9-0.6c0.5-0.4,0.7-0.7,1.1-1
		c4.2,3.6,8.9,4.7,14.2,3.6c3.6-0.7,6.8-2.4,9.7-4.6c3.5-2.6,6.4-5.7,9-9.2c0.3-0.5,0.5-1.1,0.6-1.6c1.8-9.5,6.1-17.8,12.5-24.9
		c4.8-5.3,11-7.4,18.2-6.3c2.5,0.4,4.6,1.8,6.4,3.9c0.6-1.6,1.1-3,1.6-4.5c0.4,0.1,0.8,0.2,1.4,0.4
		C170.2,230.1,169.2,232.7,168.3,235.3L168.3,235.3z"/>
	<path class="st2" d="M87.2,219.4c0.2,0.4,0.3,0.7,0.5,1.1c-0.1,0.1-0.2,0.3-0.3,0.3c-4.2,2.5-3,9.1,1.2,10.8
		c0.2,0.1,0.4,0.2,0.6,0.3c3.7,1.5,4.1,1.3,5.6-2.2c3.1-7.1,6.6-13.9,11.4-20c4.7-6,10.6-10,18.2-11.3c0.5-0.1,1.1-0.1,1.7-0.2
		c0,0.5,0.1,0.8,0.1,1.2c-0.2,0.1-0.2,0.2-0.3,0.2c-7.8,0.9-13.9,4.8-18.6,10.9c-5.3,6.7-9,14.4-12.3,22.2c-0.5,1.3-1.1,1.7-2.5,1.5
		c-2.3-0.4-4.5-0.9-6.4-2.3C82.1,228.5,82.5,221.9,87.2,219.4z"/>
	<path class="st2" d="M326.7,245.8c-0.4-0.8-0.6-1.1-0.8-1.5c0.1,0.1,0.3,0.1,0.4,0.2c2.3-4.1,4.6-8.2,6.7-12.4
		c2.4-4.7,4.5-9.4,6.7-14.2c0.3-0.7,0.4-1.1-0.2-1.8c-1.4-1.3-1.7-3.1-1.7-4.9c0.2-4.2,1.4-8.1,4.1-11.5c2.5-3.1,5.7-4.7,9.8-4.6
		c0,0.5,0,0.8,0,1.2c-0.2,0.1-0.3,0.2-0.4,0.2c-4.2,0.2-7.3,2.2-9.4,5.8c-1.5,2.7-2.4,5.5-2.6,8.6c-0.2,2.6,0.6,4,2.8,5.3
		C337.3,226.1,333.2,236.4,326.7,245.8z"/>
	<path class="st2" d="M368.7,239.4c-0.1-0.4-0.2-0.8-0.3-1.2c6.5-2.4,10.3-7.6,13.5-13.2c0.7-1.3,0.7-3,0.9-4.5
		c1-8.5,4.9-15.9,9.2-23.2c0.4,0.2,0.7,0.4,1.2,0.6c-0.1,0.3-0.2,0.5-0.3,0.8c-2.2,4.5-4.8,8.9-6.5,13.6c-1.4,3.7-1.8,7.7-2.6,11.6
		c-0.1,0.5-0.2,1.1-0.4,1.6c-2.3,4-4.9,7.6-8.4,10.6C373.1,237.6,371.1,238.9,368.7,239.4z"/>
	<path class="st2" d="M422.5,193.9c0.4,0.2,0.7,0.4,1.1,0.6c-0.2,0.5-0.5,0.9-0.7,1.4c-3.5,7.1-7.1,14.2-10.6,21.3
		c-3.2,6.4-7.5,11.9-13.8,15.5c-0.3,0.2-0.6,0.3-1,0.5c-0.2,0.1-0.4,0.2-0.8,0.3c-0.2-0.4-0.4-0.8-0.6-1.2
		c7.6-3.9,12.3-10.2,15.8-17.7c3.2-6.8,6.7-13.5,10.1-20.2C422.1,194.3,422.3,194.2,422.5,193.9z"/>
	<path class="st2" d="M269.3,223.8c2.2,1.4,2.6,3.6,2.1,5.9c-0.4,2.1-1.2,4.1-2,6.1c-2,5.2-4.1,10.3-5.9,15.5
		c-0.7,2-0.8,4.2-0.7,6.4c0.1,3.8,2,6.5,5.6,7.9c0.9,0.3,1.3,0.6,0.8,1.6c-3.3-0.2-6.8-3.5-7.6-7.3c-0.9-4-0.1-7.9,1.3-11.6
		c1.6-4.3,3.5-8.6,5.2-12.9c0.7-1.9,1.4-3.8,1.9-5.7c0.4-1.6,0.2-3.1-0.9-4.4c-0.3-0.3-0.1-0.9-0.2-1.4
		C269,223.9,269.2,223.8,269.3,223.8z"/>
	<path class="st2" d="M243.5,220c0.5,0.1,0.8,0.2,1.3,0.4c-0.8,2.6-1.5,5.2-2.2,7.8c-1.1,3.9-2.4,7.7-3.4,11.6
		c-1.5,5.8-4.9,10.6-8.6,15.2c-1.7,2.1-3.8,3.7-6.5,4.6c-0.1-0.5-0.2-0.9-0.4-1.3c3.3-1.2,5.5-3.7,7.5-6.3c3.9-5,6.3-10.6,7.8-16.6
		c1.2-4.7,2.7-9.4,4.1-14.1C243.2,220.8,243.3,220.4,243.5,220z"/>
	<path class="st2" d="M360.4,220.8c-3-1-5.7-0.5-8.5-0.3c-0.1-0.4-0.1-0.8-0.2-1.3c2.8-0.4,5.6-0.6,8.4,0.1c1.5,0.4,2,1.4,1.3,2.8
		c-0.8,1.7-1.7,3.3-2.6,4.9c-1.9,3.6-3.8,7.1-4.4,11.2c-0.7,5,1.5,8.7,6.3,10.1c1,0.3,0.8,0.7,0.7,1.4c-3.7,0-7.4-3.3-8.2-7.3
		c-0.8-3.6,0.1-7,1.6-10.3c1.2-2.8,2.7-5.4,4.1-8.1C359.3,223,359.8,222,360.4,220.8z"/>
	<path class="st2" d="M219.8,223.6c0.5,0.2,0.8,0.3,1.1,0.4c0,0.1,0.1,0.2,0.1,0.3c-2.7,7.1-5.3,14.3-8.2,21.3
		c-1.8,4.4-4.3,8.4-7.5,11.9c-1.5,1.6-3.2,3-5.5,3.5c-0.1-0.5-0.2-0.8-0.3-1.2c3.8-1.4,6.1-4.4,8.2-7.5c3.4-4.9,5.4-10.5,7.4-16.1
		C216.6,232.1,218.2,227.9,219.8,223.6z"/>
	<path class="st2" d="M194.2,227c0.3,0,0.4,0,0.6,0.1c0.2,0.1,0.4,0.2,0.7,0.3c-0.8,1.9-1.5,3.9-2.2,5.8c-2.6,6.5-4.6,13.3-8.6,19.2
		c-2.1,3.2-4.4,6.3-6.9,9.2c-1,1.2-2.7,2-4.2,3.1c-0.3-0.7-0.4-1.1-0.5-1.4c0.1-0.2,0.2-0.3,0.2-0.3c1.6-1.3,3.6-2.3,4.9-3.9
		c5-5.9,8.5-12.7,11.2-19.9C190.9,235.1,192.6,231.1,194.2,227z"/>
	<path class="st2" d="M64.7,269.6c-0.3-0.1-0.4-0.2-0.6-0.3c-0.2-0.1-0.3-0.2-0.4-0.3c0-0.1,0-0.3,0.1-0.4c2.2-3,5.3-4.3,8.8-4.8
		c3.9-0.6,7.8-0.1,11.6,0.6c2-5.8,4-11.5,6-17.4c0.6,0.2,0.9,0.4,1.3,0.5c-2.1,6.2-4.2,12.3-6.2,18.4c-2-0.3-4.1-0.7-6.3-0.8
		c-2.5-0.1-5,0-7.4,0.4C68.8,265.8,66.4,267.2,64.7,269.6z"/>
	<path class="st2" d="M418.9,235c-0.2-0.2-0.3-0.4-0.4-0.5c-0.1-0.2-0.2-0.4-0.2-0.5c3.4-2.6,6.8-4.9,10-7.6c2.3-2,4.4-4.3,6.3-6.7
		c2-2.6,3.1-5.7,2.5-9c-0.2-1.2-0.8-2.3-1.2-3.6c0.2-0.1,0.4-0.4,0.8-0.8c2,2.6,2.4,5.5,1.6,8.5c-0.5,1.9-1.3,3.9-2.4,5.5
		C431.4,226.6,425.2,230.8,418.9,235z"/>
	<path class="st2" d="M313.5,215.3c2.4,0.3,3.8,1.6,3.7,3.7c-0.1,1.8-0.5,3.7-1.2,5.3c-3,7.2-6.8,14-11.3,20.5
		c-1.7,2.5-4.1,4.4-7,5.7c-0.2-0.5-0.3-0.8-0.4-1.3c4.3-1.9,6.8-5.4,8.9-9.3c2.9-5.2,5.6-10.4,8.3-15.7c0.6-1.2,0.9-2.5,1.2-3.8
		c0.4-1.8-0.1-2.7-1.7-3.8C313.8,216.4,313.8,215.8,313.5,215.3z"/>
	<path d="M158.4,238.5c2.3,1.3,2.7,3.1,2.5,5.1c-0.1,1-0.4,2.1-0.8,3c-2.9,6.9-6.4,13.4-11.1,19.3c-0.8,1-1.7,1.8-2.7,2.6
		c-0.6,0.5-1.4,0.6-2.2,0.9c-0.1-0.2-0.2-0.4-0.3-0.5c0.4-0.4,0.8-0.8,1.2-1.1c0.8-0.7,1.7-1.2,2.3-2c5-6.1,8.8-12.9,11.7-20.2
		c0.7-1.8,1.2-3.8-0.6-5.5C158.2,239.9,158.4,239.2,158.4,238.5z"/>
	<path class="st2" d="M382.9,261c0.3,0.4,0.7,0.8,0.8,1.3c0.2,1.1,1,1.6,1.9,1.9c2,0.6,4.1,0.6,5.7-0.9c1.9-1.6,3.6-3.4,5.2-5.3
		c1.5-1.8,2.6-3.9,3.9-5.9c0.3,0.2,0.7,0.3,1.2,0.6c-2.6,4.5-5.2,8.8-9.5,11.8c-2.2,1.6-4.7,1.7-7.2,0.9c-2-0.7-2.7-2-2.4-4.1
		C382.6,261.2,382.8,261.1,382.9,261z"/>
	<path class="st1" d="M117.3,308.2c-0.3,0.3-0.4,0.5-0.6,0.7c-1.4,2.1-2.9,4.3-4.3,6.4c-0.1,0.2-0.2,0.4-0.4,0.5
		c-0.3,0.4-0.8,0.5-1.2,0.1c-0.6-0.5-0.9-1.1-1-1.8c0-0.5,0-1,0.1-1.5c0.3-1.6,0.8-3.2,1.3-4.7c0.7-2,1.4-4.1,2.2-6
		c0.1-0.3,0.3-0.6,0.5-0.9c0.1-0.3,0.3-0.5,0.7-0.5c0.4,0,0.6,0.3,0.7,0.6c0.2,0.5,0.3,1,0.2,1.5c-0.1,0.7-0.3,1.3-0.5,1.9
		c-0.5,1.5-1.1,3-1.6,4.5c-0.1,0.2-0.1,0.4-0.1,0.7c0.2-0.2,0.3-0.4,0.5-0.6c1.7-2.5,3.6-5,5.5-7.5c0.1-0.2,0.3-0.4,0.5-0.5
		c0.3-0.3,0.8-0.3,1.1,0.1c0.4,0.5,0.5,1,0.5,1.6c0,0.6-0.2,1.1-0.3,1.7c-0.5,1.6-1.1,3.3-1.6,4.9c-0.1,0.3-0.2,0.5-0.2,1
		c0.2-0.3,0.4-0.5,0.5-0.7c1.9-2.8,3.9-5.5,6-8.1c0.2-0.3,0.5-0.6,0.7-0.9c0.1-0.1,0.2-0.2,0.4-0.3c0.4-0.3,0.9-0.1,1,0.4
		c0.1,0.5,0.1,1-0.1,1.4c-0.2,0.4-0.4,0.9-0.6,1.3c-0.3,0.5-0.6,0.9-1,1.4c-1.9,2.6-3.8,5.1-5.6,7.7c-0.7,0.9-1.3,1.9-1.9,2.8
		c-0.1,0.2-0.2,0.4-0.4,0.5c-0.3,0.4-0.8,0.5-1.2,0.1c-0.6-0.5-1-1.2-1-1.9c0-0.5,0-1,0.1-1.4c0.3-1.2,0.6-2.4,0.9-3.6
		C117.2,308.6,117.2,308.5,117.3,308.2z"/>
	<path class="st1" d="M285.5,293.2c-0.4,2.4-0.7,3.3-2.7,4.4c-0.8,0.4-1.7,0.6-2.7,0.4c-0.8-0.1-1.5-0.5-2.1-1.1
		c-0.7-0.7-0.9-1.6-0.8-2.5c0.1-0.8,0.3-1.6,0.8-2.4c0.6-1,1.3-1.8,2.2-2.4c0.2-0.2,0.4-0.3,0.7-0.5l-0.1-0.2
		c-0.7-0.7-0.7-1.6-0.5-2.5c0.1-0.4,0.2-0.8,0.5-1.2c1.1-1.9,2.6-3.3,4.7-3.9c0.6-0.2,1.2-0.3,1.8-0.1c0.6,0.2,1.2,0.5,1.6,1
		c0.3,0.3,0.5,0.7,0.4,1.2c0,0.4-0.1,0.7-0.2,1.1c-0.3,0.9-0.7,1.7-1.1,2.6c-0.3,0.6-0.5,0.5-1,0.1c-0.4-0.3-0.3-0.7-0.3-1.2
		c0-0.4,0-0.8,0.1-1.2c0.1-0.4,0.3-0.9,0.5-1.3c0.1-0.3,0.2-0.5,0.4-0.9c-0.2,0-0.9,0.3-1,0.4c-0.2,0.1-0.4,0.2-0.6,0.3
		c-1,0.6-1.8,1.3-2.5,2.1c-0.3,0.4-0.6,0.9-0.8,1.4c-0.1,0.2-0.1,0.4-0.1,0.6c0,0.3,0.2,0.5,0.5,0.5c0.3,0,0.5,0,0.8,0
		c0.3,0,0.6,0,0.9,0c0.6,0.1,1,0.4,1.2,1c0.1,0.3,0,0.6-0.3,0.7c-0.2,0.1-0.4,0.1-0.6,0.2c-1,0.3-2,0.7-2.9,1.3l-0.3,0.2
		c0.1,0.2,0.2,0.5,0.3,0.5c0.6-0.2,1.6-0.3,2.2-0.5c0.7-0.2,1.4-0.4,2.1-0.7c0.5-0.1,1-0.2,1.4-0.1c0.7,0.1,0.7,0,1,0.6
		c0.3,0.5,0,1-0.6,1c-0.5,0.1-1,0.1-1.4,0.2C286.9,292.6,285.6,293.2,285.5,293.2z M283.8,293.5c-0.3,0-0.6,0.1-0.9,0.1
		c-0.9,0-1.5-0.4-1.9-1.2l-0.1-0.2c-0.7,0.6-1.2,1.3-1.5,2.1c-0.1,0.3-0.1,0.6-0.1,0.9c0,0.6,0.4,1,1.1,1c0.4,0,0.8-0.2,1.1-0.4
		c0.9-0.5,1.6-1.2,2.2-2.1L283.8,293.5z"/>
	<path class="st1" d="M246.5,291.3c0,1.5-0.4,2.9-0.9,4.2c-0.7,1.7-1.6,3.3-2.7,4.7c-0.7,0.9-1.5,1.7-2.4,2.3
		c-0.7,0.5-1.4,0.8-2.3,1c-0.8,0.1-1.5,0.1-2.2-0.2c-1.4-0.5-2.1-1.5-2.4-2.9c-0.3-1.3-0.1-2.7,0.2-4c0.2-0.9,0.6-1.8,1-2.6
		c1.1-2.2,2.6-4,4.5-5.5c0.7-0.6,1.4-1,2.3-1.3c0.9-0.3,1.8-0.3,2.6,0.3l0.2,0.1c1.3,0.5,1.8,1.5,2,2.8
		C246.5,290.6,246.5,291,246.5,291.3z M235.9,299.7c0,0.5,0,1,0.2,1.5c0.2,0.6,0.6,0.8,1.3,0.7c0.5-0.1,0.9-0.4,1.3-0.6
		c0.6-0.4,1.2-1,1.6-1.5c1.6-1.9,2.7-4,3.4-6.4c0.2-0.7,0.3-1.4,0.4-2.1c0.1-0.5,0.1-1.1-0.1-1.6c-0.1-0.2-0.1-0.4-0.2-0.5
		c-0.1-0.2-0.3-0.3-0.5-0.3c-0.3,0.1-0.6,0.1-0.8,0.3c-0.6,0.3-1.1,0.7-1.6,1.1c-2,1.7-3.4,3.8-4.3,6.3
		C236.2,297.5,235.9,298.6,235.9,299.7z"/>
	<path class="st1" d="M302.3,279.3c0.5-0.5,2.8-0.7,3.6-0.7c0.3,0,0.7,0,1,0c0.8,0.1,1.3,0.5,1.7,1.2c0.6,1.1,0.7,2.2,0.4,3.3
		c-0.2,0.8-0.6,1.5-1.1,2.1c-0.6,0.8-1.4,1.5-2.2,2.1c-0.9,0.7-1.9,1.3-3,1.7c-0.2,0.1-0.4,0.2-0.6,0.3c0.2,0.3,0.4,0.5,0.5,0.7
		c0.4,0.6,0.9,1.2,1.3,1.9c0.3,0.5,0.4,1.1,0.4,1.7c0,0.3-0.1,0.6-0.3,0.8c-0.2,0.3-0.6,0.3-0.8,0.1c-0.2-0.1-0.3-0.3-0.4-0.5
		c-0.9-1-1.7-2-2.6-3.1c-0.1-0.2-0.3-0.3-0.5-0.5c-0.1,0.2-0.2,0.4-0.3,0.6c-0.5,1.1-0.9,2.2-1.4,3.3c-0.1,0.2-0.2,0.4-0.3,0.6
		c-0.2,0.3-0.6,0.4-0.9,0.1c-0.2-0.2-0.3-0.4-0.4-0.6c-0.2-0.5-0.2-1-0.1-1.5c0.1-0.6,0.3-1.2,0.5-1.9c1-2.7,1.8-4.4,3.2-7
		c0.1-0.3,0.3-1.5,1-3.2C301.1,281,301.7,279.9,302.3,279.3z M301.4,287.1c0.2,0,0.2,0,0.3,0c1.6-0.7,3.1-1.6,4.3-2.9
		c0.4-0.5,0.8-1,1.1-1.6c0.1-0.3,0.2-0.6,0.3-0.9c0.1-0.7-0.1-0.9-0.8-0.8l-0.3,0.1c-0.9,0.3-1.7,0.7-2.6,1.1
		C303.3,283.9,302.2,285.4,301.4,287.1z"/>
	<path class="st1" d="M194.8,293c0.5-0.5,2.8-0.7,3.6-0.7c0.3,0,0.7,0,1,0c0.8,0.1,1.3,0.5,1.7,1.2c0.6,1.1,0.7,2.2,0.4,3.3
		c-0.2,0.8-0.6,1.5-1.1,2.1c-0.6,0.8-1.4,1.5-2.2,2.1c-0.9,0.7-1.9,1.3-3,1.7c-0.2,0.1-0.4,0.2-0.6,0.3c0.2,0.3,0.4,0.5,0.5,0.7
		c0.4,0.6,0.9,1.2,1.3,1.9c0.3,0.5,0.4,1.1,0.4,1.7c0,0.3-0.1,0.6-0.3,0.8c-0.2,0.3-0.6,0.3-0.8,0.1c-0.2-0.1-0.3-0.3-0.4-0.5
		c-0.9-1-1.7-2-2.6-3.1c-0.1-0.2-0.3-0.3-0.5-0.5c-0.1,0.2-0.2,0.4-0.3,0.6c-0.5,1.1-0.9,2.2-1.4,3.3c-0.1,0.2-0.2,0.4-0.3,0.6
		c-0.2,0.3-0.6,0.4-0.9,0.1c-0.2-0.2-0.3-0.4-0.4-0.6c-0.2-0.5-0.2-1-0.1-1.5c0.1-0.6,0.3-1.2,0.5-1.9c1-2.7,1.8-4.4,3.2-7
		c0.1-0.3,0.3-1.5,1-3.2C193.6,294.7,194.2,293.6,194.8,293z M193.8,300.7c0.2,0,0.2,0,0.3,0c1.6-0.7,3.1-1.6,4.3-2.9
		c0.4-0.5,0.8-1,1.1-1.6c0.1-0.3,0.2-0.6,0.3-0.9c0.1-0.7-0.1-0.9-0.8-0.8l-0.3,0.1c-0.9,0.3-1.7,0.7-2.6,1.1
		C195.7,297.5,194.6,299,193.8,300.7z"/>
	<path class="st1" d="M261.4,287.8c-0.2,0.3-0.3,0.5-0.4,0.8c-1.1,2-2.1,4-3,6.1c-0.3,0.7-0.5,1.5-0.7,2.2c-0.4,1.2,0,2,0.9,2.8
		l0.3,0.2c0.6,0.5,1.2,0.5,1.9,0.2c0.1-0.1,0.3-0.1,0.4-0.2c3.4-1.8,6-4.3,7.8-7.8c0.3-0.5,0.5-1.1,0.7-1.7c0.3-0.9,0.4-1.8,0.4-2.8
		c0-1-0.4-1.9-1-2.7c-1-1.2-2.3-1.7-3.8-1.1c-0.6,0.2-1.1,0.5-1.7,0.8c-0.2,0.1-0.3,0.2-0.5,0.2l-0.3,0.3
		C262.1,285.8,261.4,287.8,261.4,287.8z M267,289.7c-1.5,3.6-4,6.3-7.3,8.3l-0.2,0.1c0,0-0.1,0-0.2,0c0.1-0.3,0.1-0.5,0.2-0.7
		c0.3-0.8,0.6-1.6,0.9-2.3c0.8-1.6,1.6-3.2,2.4-4.8c0.5-1,1-1.9,1-3.1c0.7-0.4,1.4-0.8,2.1-1.1c0.2-0.1,0.4-0.1,0.6-0.2
		c0.4-0.1,0.6,0.1,0.8,0.4c0.2,0.4,0.2,0.9,0.2,1.3C267.4,288.4,267.3,289.1,267,289.7z"/>
	<path class="st1" d="M180.8,297.9c-0.2,0.3-0.3,0.5-0.4,0.8c-1.1,2-2.1,4-3,6.1c-0.3,0.7-0.5,1.5-0.7,2.2c-0.4,1.2,0,2,0.9,2.8
		l0.3,0.2c0.6,0.5,1.2,0.5,1.9,0.2c0.1-0.1,0.3-0.1,0.4-0.2c3.4-1.8,6-4.3,7.8-7.8c0.3-0.5,0.5-1.1,0.7-1.7c0.3-0.9,0.4-1.8,0.4-2.8
		c0-1-0.4-1.9-1-2.7c-1-1.2-2.3-1.7-3.8-1.1c-0.6,0.2-1.1,0.5-1.7,0.8c-0.2,0.1-0.3,0.2-0.5,0.2c-0.1,0.1-0.2,0.2-0.3,0.3
		C181.5,295.9,180.8,297.9,180.8,297.9z M186.4,299.8c-1.5,3.6-4,6.3-7.3,8.3l-0.1,0.1c0,0-0.1,0-0.2,0c0.1-0.3,0.1-0.5,0.2-0.7
		c0.3-0.8,0.6-1.6,0.9-2.3c0.8-1.6,1.6-3.2,2.4-4.8c0.5-1,1-1.9,1-3.1c0.7-0.4,1.4-0.8,2.1-1.1c0.2-0.1,0.4-0.1,0.6-0.2
		c0.4-0.1,0.6,0.1,0.8,0.4c0.2,0.4,0.2,0.9,0.2,1.3C186.8,298.5,186.7,299.2,186.4,299.8z"/>
	<path class="st1" d="M151.3,307.4c0.1-0.3,0.3-0.5,0.4-0.8c1.1-2.3,2.2-4.5,3.4-6.7c0.2-0.4,0.4-0.7,0.6-1c0.1-0.2,0.2-0.3,0.4-0.4
		c0.3-0.3,0.7-0.2,0.9,0.1c0.2,0.2,0.3,0.5,0.3,0.8c0,0.4,0,0.9-0.1,1.3c-0.1,0.7-0.4,1.4-0.8,2c-0.6,1.2-1.2,2.3-1.8,3.5
		c-0.1,0.2-0.2,0.5-0.4,0.8c1.3-0.2,2.4-0.6,3.5-0.8c0.1-0.3,0.3-0.5,0.4-0.8c1-1.9,2-3.8,2.9-5.6c0.3-0.6,0.6-1.1,1-1.7
		c0.1-0.2,0.2-0.4,0.4-0.5c0.3-0.3,0.7-0.2,1,0.1c0.1,0.2,0.2,0.4,0.2,0.7c0.1,0.5,0,1-0.1,1.5c-0.2,0.7-0.5,1.4-0.8,2
		c-0.7,1.3-1.3,2.5-2,3.8c-0.1,0.2-0.2,0.4-0.3,0.7l-1,1.9c-0.1,0.3-0.3,0.5-0.4,0.7c-0.6,1.3-1.2,2.5-1.7,3.8
		c-0.1,0.2-0.2,0.4-0.3,0.6c-0.2,0.4-0.7,0.4-0.9,0.1c-0.3-0.3-0.4-0.7-0.5-1.2c0-0.6,0.1-1.2,0.3-1.8c0.1-0.4,0.3-0.8,0.5-1.2
		c0-0.1,0.1-0.2,0.1-0.4c-0.2,0-0.3,0-0.4,0c-0.9,0.2-1.9,0.4-2.8,0.5c-0.3,0.1-0.4,0.2-0.5,0.4c-0.6,1.2-1.1,2.5-1.7,3.7
		c-0.1,0.2-0.2,0.4-0.3,0.6c-0.3,0.4-0.7,0.4-1,0c-0.3-0.3-0.4-0.7-0.4-1.1c0-0.7,0.1-1.3,0.3-2c0.1-0.4,0.3-0.8,0.5-1.2
		c0.1-0.2,0.2-0.5,0.3-0.7L151.3,307.4z"/>
	<path class="st1" d="M147.8,300.9c-0.3,0.1-0.7,0.2-0.9,0.4c-1.6,0.9-3,2-4.1,3.5c-0.4,0.5-0.6,1-0.8,1.6c-0.2,0.6,0,1,0.4,1.4
		c0.3,0.3,0.6,0.5,1,0.7c0.6,0.3,1.2,0.6,1.8,1c0.3,0.2,0.7,0.4,1,0.6c0.5,0.4,0.8,0.9,0.7,1.5c0,0.3-0.1,0.7-0.3,1
		c-0.7,1.4-1.9,2.2-3.4,2.4c-1.4,0.2-2.8,0-4.1-0.7c-1-0.5-1.8-1.2-2.5-2c-0.6-0.7-0.5-1.2,0.5-1.4c0.8-0.2,1.6,0,2.3,0.5
		c0.5,0.3,0.9,0.6,1.4,0.9c0.5,0.3,1,0.5,1.6,0.7c0.5,0.1,1.1,0.1,1.6-0.1c0.1,0,0.2-0.1,0.4-0.2c0.3-0.2,0.3-0.5,0-0.7
		c-0.2-0.1-0.4-0.3-0.6-0.4c-0.5-0.3-1.1-0.6-1.6-0.9c-0.5-0.3-1.1-0.7-1.6-1.1c-1.2-1-1.5-2.2-1.1-3.7c0.2-0.7,0.4-1.3,0.8-1.8
		c1.3-2.1,3.1-3.6,5.4-4.7c0.6-0.3,1.2-0.4,1.8-0.4c0.6,0,1.1,0.2,1.5,0.6c0.2,0.2,0.4,0.4,0.6,0.7c0.8,1.1,0.8,2.3,0.1,3.5
		c-0.2,0.3-0.4,0.7-0.6,1c-0.4,0.7-0.8,1.4-1.2,2.1c-0.3,0.6-0.9,0.7-1.4,0.1c-0.4-0.5-0.5-1.2-0.4-1.8c0.1-0.6,0.4-1.1,0.7-1.5
		c0.3-0.6,0.7-1.1,1-1.7c0.1-0.2,0.2-0.4,0.2-0.6C147.9,301.2,147.9,301.1,147.8,300.9z"/>
	<path class="st1" d="M126.3,309.8c0.2-0.3,0.3-0.5,0.5-0.8c1.4-2.3,2.8-4.5,4.5-6.6c0.7-0.9,1.5-1.7,2.3-2.5
		c0.2-0.2,0.4-0.4,0.6-0.5c0.4-0.2,0.7-0.2,1,0.1c0.7,0.8,1.1,1.7,0.8,2.8c-0.2,0.7-0.4,1.4-0.6,2.2c-0.4,1.4-0.7,2.8-1,4.2
		c0,0.2,0,0.3-0.1,0.5l-0.4,2.7c-0.1,0.8-0.1,1.6-0.2,2.4l0,0.2c0,0.3-0.1,0.5-0.3,0.7c-0.3,0.2-0.6,0.1-0.9-0.2
		c-0.4-0.3-0.6-0.8-0.7-1.2c-0.1-0.5-0.1-1-0.1-1.5c0-0.2,0-0.5,0-0.8c-0.1,0-0.3,0-0.4,0c-1.1,0.1-2.2,0.3-3.3,0.4
		c-0.3,0-0.4,0.2-0.5,0.4c-0.4,0.8-0.8,1.6-1.2,2.4c-0.1,0.2-0.2,0.4-0.3,0.6c-0.2,0.3-0.6,0.3-0.9,0c-0.2-0.2-0.3-0.5-0.4-0.8
		c0-0.5,0-0.9,0.1-1.4c0.2-0.6,0.4-1.2,0.6-1.8L126.3,309.8z M132,309.2c0.1-0.6,0.2-1.1,0.3-1.6c0.1-0.5,0.2-1,0.3-1.6
		c0.1-0.5,0.3-0.9,0.3-1.5c-0.6,0.5-2.2,2.6-3.4,4.6c-0.1,0.1-0.1,0.3-0.2,0.5C130.2,309.5,131.1,309.3,132,309.2z"/>
	<path class="st1" d="M344.3,285.1c0.2-0.3,0.3-0.5,0.5-0.8c1.4-2.3,2.8-4.5,4.5-6.6c0.7-0.9,1.5-1.7,2.3-2.5
		c0.2-0.2,0.4-0.4,0.6-0.5c0.4-0.2,0.7-0.2,1,0.1c0.7,0.8,1.1,1.7,0.8,2.8c-0.2,0.7-0.4,1.4-0.6,2.2c-0.4,1.4-0.7,2.8-1,4.2
		c0,0.2,0,0.3,0,0.5l-0.4,2.7c-0.1,0.8-0.1,1.6-0.2,2.4l0,0.2c0,0.3-0.1,0.5-0.3,0.7c-0.3,0.2-0.6,0.1-0.9-0.2
		c-0.4-0.3-0.6-0.8-0.7-1.2c-0.1-0.5-0.1-1-0.1-1.5c0-0.2,0-0.5,0-0.8c-0.1,0-0.3,0-0.4,0c-1.1,0.1-2.2,0.3-3.3,0.4
		c-0.3,0-0.4,0.2-0.5,0.4c-0.4,0.8-0.8,1.6-1.2,2.4c-0.1,0.2-0.2,0.4-0.3,0.6c-0.2,0.3-0.6,0.3-0.9,0c-0.2-0.2-0.3-0.5-0.4-0.8
		c0-0.5,0-0.9,0.1-1.4c0.2-0.6,0.4-1.2,0.6-1.8L344.3,285.1z M350,284.4c0.1-0.6,0.2-1.1,0.3-1.6c0.1-0.5,0.2-1,0.3-1.6
		c0.1-0.5,0.3-0.9,0.3-1.5c-0.6,0.5-2.2,2.6-3.4,4.6c-0.1,0.1-0.1,0.3-0.2,0.5C348.2,284.7,349.1,284.6,350,284.4z"/>
	<path class="st1" d="M324.6,280.2c-0.2-0.1-0.4-0.2-0.6-0.4c-0.3-0.2-0.5-0.5-0.6-0.8c-0.1-0.3,0-0.7,0.3-0.8l0.3-0.1
		c1-0.2,1.9-0.6,2.9-1c0.7-0.2,1.3-0.5,2-0.6c0.3-0.1,0.7-0.1,1-0.1c1,0,1.7,0.5,2.2,1.3c0.6,1.1,0.7,2.3,0.4,3.5
		c-0.3,1-0.8,1.9-1.5,2.7c-1.7,1.9-3.8,3.2-6.3,3.8c-0.3,0.1-0.5,0.1-0.8,0.1c-0.2,0-0.4,0-0.6,0c-0.1,0.3-0.3,0.5-0.4,0.7
		c-0.5,1.1-1,2.3-1.5,3.4c-0.1,0.2-0.1,0.4-0.2,0.5c-0.2,0.4-0.7,0.5-1,0.1c-0.2-0.2-0.3-0.4-0.4-0.7c-0.1-0.4-0.1-0.7-0.1-1.1
		c0.1-0.6,0.3-1.3,0.5-1.9c0.8-2.1,1.7-4,2.7-6c0.4-0.7,0.8-1.5,1.2-2.2C324.4,280.6,324.5,280.4,324.6,280.2z M324.8,285.1
		c0.2,0,0.3,0,0.4-0.1c1.5-0.6,2.8-1.4,4-2.5c0.5-0.5,0.9-0.9,1.2-1.5c0.2-0.4,0.4-0.8,0.5-1.2c0.1-0.2,0-0.4,0-0.6
		c0-0.2-0.2-0.4-0.4-0.4c-0.3,0-0.6,0-0.9,0.2c-0.8,0.3-1.5,0.6-2.3,0.9C326.9,281.8,325.6,283.3,324.8,285.1z"/>
	<path class="st1" d="M337.3,283.6c0.3,0.1,0.5,0,0.8,0c0.3,0,0.7,0,1,0.1c0.7,0.1,1.1,0.6,1.3,1.2c0.1,0.4,0,0.7-0.4,0.8
		c-0.2,0-0.3,0.1-0.5,0.1c-1.1,0.1-2.2,0.4-3.3,0.7c-0.3,0.1-0.6,0.3-0.7,0.6c-0.3,0.6-0.6,1.3-0.9,1.9c-0.1,0.1-0.1,0.2-0.1,0.4
		c0.2,0,0.3-0.1,0.5-0.1c0.7-0.2,1.5-0.3,2.2-0.5c0.5-0.1,1-0.1,1.4,0.1c0.5,0.2,0.9,0.5,1.1,1c0.2,0.5,0,0.9-0.5,0.9
		c-1.7,0.2-3.4,0.7-5,1.2c-0.8,0.3-1.3,0.3-1.9-0.8c-0.1-0.2-0.2-0.3-0.3-0.5c-0.2-0.4-0.2-0.7-0.1-1.1c0.2-0.5,0.3-0.9,0.5-1.4
		c1.2-3,2.7-5.9,4.4-8.7c0.1-0.3,0.3-0.5,0.4-0.8c-0.2-0.2-0.3-0.4-0.5-0.6c-0.1-0.2-0.2-0.4-0.3-0.6c-0.1-0.5,0.1-0.9,0.6-0.9
		c1.6,0,3.1-0.5,4.6-0.7c0.4-0.1,0.9-0.2,1.4-0.2c1-0.1,1.7,0.4,2,1.3c0.2,0.5,0,0.9-0.6,0.9c-1.4,0-2.8,0.4-4.1,0.7
		c-0.3,0.1-0.5,0.2-0.7,0.5c-0.8,1.4-1.5,2.8-2.3,4.1L337.3,283.6z"/>
	<path class="st1" d="M313.7,280.6c-0.1-0.2-0.3-0.3-0.4-0.4c-0.2-0.3-0.3-0.6-0.4-0.9c-0.1-0.3,0.1-0.6,0.4-0.7l0.2,0
		c1.5-0.1,2.8-0.5,4.3-0.8c0.5-0.1,1-0.2,1.6-0.3c0.3,0,0.5,0,0.8,0c0.7,0.1,1.2,0.6,1.4,1.3c0.1,0.3-0.1,0.6-0.4,0.7l-0.3,0
		c-0.9,0-1.8,0.2-2.6,0.5c-0.5,0.1-1,0.3-1.5,0.4c-0.2,0.1-0.4,0.2-0.5,0.4c-0.8,1.4-1.6,2.9-2.4,4.3l0,0.2c0.2,0.2,0.3,0,0.5,0
		c0.4,0,0.9-0.1,1.3,0c0.7,0.1,1.2,0.6,1.3,1.3c0.1,0.3-0.1,0.6-0.4,0.7c-0.2,0-0.3,0.1-0.5,0.1c-1.2,0.1-2.3,0.5-3.4,0.8
		c-0.3,0.1-0.6,0.3-0.7,0.6c-0.3,0.8-0.7,1.5-1.1,2.3c0.2,0,0.3,0,0.5-0.1c0.6-0.2,1.2-0.3,1.8-0.5c0.5-0.1,1.1-0.2,1.7-0.1
		c0.7,0.1,1.1,0.5,1.3,1.1c0.1,0.4-0.1,0.7-0.4,0.8l-0.2,0c-1.6,0.3-3.2,0.8-4.7,1.3c-0.2,0.1-0.5,0.2-0.7,0.2c-0.4,0.1-0.8,0-1-0.3
		c-0.6-0.8-1-1.6-0.6-2.6c0.6-1.6,1.3-3.1,2-4.6c0.9-1.8,1.9-3.5,2.8-5.3C313.5,281.1,313.6,280.9,313.7,280.6z"/>
	<path class="st1" d="M226.9,292.1c-0.3-0.5-0.5-0.8-0.6-1.2c-0.2-0.4,0-0.7,0.4-0.9l0.2-0.1c1.4-0.2,2.7-0.6,4-1
		c0.6-0.2,1.1-0.3,1.7-0.4c0.3-0.1,0.6,0,1,0c0.6,0.1,1,0.5,1.3,1c0.2,0.5,0.1,0.9-0.5,1c-0.1,0-0.3,0-0.4,0.1
		c-1.4,0.3-2.7,0.8-4,1.2c-0.3,0.1-0.4,0.3-0.5,0.5c-0.4,0.7-0.8,1.4-1.1,2.1c-0.3,0.6-0.6,1.2-0.9,1.8c-0.1,0.1-0.1,0.3-0.2,0.5
		c0.3,0,0.6-0.1,0.9-0.1c0.3,0,0.6,0,1,0c0.7,0.1,1.1,0.6,1.2,1.2c0.1,0.3-0.1,0.6-0.4,0.7c-0.1,0.1-0.3,0.1-0.5,0.1
		c-1.2,0.2-2.3,0.6-3.4,1c-0.4,0.1-0.6,0.3-0.7,0.7c-0.6,1.4-1.3,2.8-1.9,4.3c-0.1,0.2-0.2,0.4-0.3,0.6c-0.3,0.5-0.7,0.5-1.1,0.2
		c-0.3-0.2-0.4-0.5-0.5-0.8c-0.1-0.6-0.1-1.1,0.1-1.7c0.2-0.7,0.5-1.5,0.8-2.2c1.2-2.7,2.5-5.3,3.9-7.9
		C226.6,292.6,226.8,292.3,226.9,292.1z"/>
	<path class="st1" d="M206.4,298.9c0.8-0.9,1.5-1.8,2.2-2.6c1.3-1.4,2.6-2.8,3.8-4.2c0.2-0.2,0.3-0.4,0.5-0.5c0.5-0.4,1-0.2,1.1,0.4
		c0.1,0.3,0,0.7,0,1c-0.1,0.5-0.3,1-0.6,1.4c-0.4,0.5-0.7,1-1.2,1.4c-1.7,1.9-3.4,3.9-5.2,5.8c-0.8,0.9-1.5,1.9-2,3.1
		c-0.4,1-0.8,2-1.2,3c-0.1,0.2-0.1,0.4-0.2,0.5c-0.2,0.3-0.6,0.4-0.9,0.2c-0.3-0.2-0.5-0.5-0.6-0.9c-0.1-0.6-0.1-1.2,0.1-1.8
		c0.1-0.5,0.3-0.9,0.5-1.3c0.8-1.5,1.2-3,1.2-4.7c0-0.9,0.1-1.9,0.1-2.8c0-0.9,0.1-1.9,0.2-2.8c0-0.3,0.1-0.6,0.2-1
		c0.2-0.6,0.6-0.7,1.1-0.5c0.4,0.2,0.6,0.5,0.7,0.9c0.1,0.4,0.2,0.7,0.2,1.1c0,0.6,0,1.3-0.1,1.9c0,0.6-0.1,1.3-0.1,1.9
		C206.3,298.6,206.3,298.7,206.4,298.9z"/>
	<path class="st1" d="M362.8,277.8c-0.2,1.4-0.9,2.5-1.6,3.6c-1.6,2.9-3.2,5.7-4.4,8.7l-0.1,0.3c-0.2,0.4-0.6,0.5-1,0.1
		c-0.4-0.4-0.5-0.9-0.6-1.4c0-0.5,0.1-1,0.2-1.4c0.3-0.8,0.6-1.6,1-2.4c1-2.2,2.1-4.3,3.3-6.3c0.1-0.2,0.3-0.4,0.3-0.8
		c-0.3,0-0.5,0-0.8,0c-0.5,0-1.1-0.1-1.6-0.3c-0.5-0.2-0.9-0.6-1.1-1.1c-0.2-0.5,0-0.9,0.6-0.9c2.2,0,4.3-0.5,6.5-0.7
		c0.6-0.1,1.3-0.1,1.9,0.1c0.4,0.1,0.8,0.2,1.1,0.5c0.2,0.2,0.4,0.5,0.5,0.7c0.2,0.5-0.1,0.9-0.6,0.9c-0.2,0-0.3,0-0.5,0
		C364.9,277.4,363.9,277.6,362.8,277.8z"/>
	<path class="st1" d="M249.3,299.1c0.4-0.1,0.5-0.1,0.7-0.2c0.7-0.2,1.5-0.4,2.2-0.6c0.5-0.1,0.9-0.1,1.3,0.1
		c0.5,0.2,0.8,0.5,0.9,0.9c0.2,0.5,0,0.8-0.5,0.9c-0.3,0.1-0.5,0.1-0.8,0.2c-1.4,0.3-2.7,0.9-4,1.4c-0.2,0.1-0.4,0.2-0.7,0.3
		c-0.5,0.1-0.8,0-1.1-0.4l-0.2-0.3c-0.6-0.7-0.7-1.5-0.3-2.3c0.3-0.7,0.6-1.4,0.9-2.2c1.5-3.3,3.1-6.6,4.9-9.7
		c0.2-0.4,0.4-0.7,0.6-1c0.1-0.2,0.2-0.3,0.4-0.4c0.3-0.3,0.7-0.2,0.9,0.1c0.3,0.4,0.4,0.9,0.3,1.4c0,0.4-0.1,0.7-0.2,1.1
		c-0.2,0.6-0.4,1.2-0.7,1.7c-1.1,2.3-2.3,4.5-3.5,6.8C250,297.4,249.7,298.2,249.3,299.1z"/>
	<path class="st1" d="M208.3,307.2c-0.2-0.5-0.2-1,0-1.5c0.2-0.5,0.5-0.8,0.9-1c0.8-0.4,1.5,0,1.6,0.8c0.2,1.2-0.8,2.7-2,2.9
		c-0.2,0-0.5,0-0.7,0c-0.4-0.1-0.5-0.5-0.2-0.8C208,307.5,208.2,307.4,208.3,307.2z"/>
	<path class="st1" d="M161.6,312.8c-0.2-0.4-0.2-0.9,0-1.3c0.2-0.5,0.5-0.9,1-1.1c0.7-0.4,1.4,0,1.6,0.8c0.1,0.3,0.1,0.6,0,1
		c-0.3,1-0.9,1.7-1.9,2c-0.3,0.1-0.5,0-0.8-0.1c-0.3-0.1-0.4-0.4-0.3-0.7C161.3,313.1,161.4,313,161.6,312.8z"/>
	<path d="M78.8,276.5l-0.1-0.1c-1,1.4-2.1,2.9-3.2,4.2c-0.6,0.8-1.5,1.3-2.3,1.9c-0.4,0.4-0.8,0.8-1.2,1.1c0.1,0.2,0.2,0.3,0.3,0.5
		c0.7-0.3,1.6-0.4,2.2-0.9c1-0.7,1.9-1.6,2.7-2.6c0.9-1.1,1.7-2.3,2.6-3.5C79.3,277.2,79,276.9,78.8,276.5z"/>
</g>
</svg>
