<?xml version="1.0" encoding="utf-8"?>
<!-- Generator: Adobe Illustrator 22.1.0, SVG Export Plug-In . SVG Version: 6.00 Build 0)  -->
<svg version="1.1" id="Layer_1" xmlns="http://www.w3.org/2000/svg" xmlns:xlink="http://www.w3.org/1999/xlink" x="0px" y="0px"
	 viewBox="0 0 500 500" style="enable-background:new 0 0 500 500;" xml:space="preserve">
<style type="text/css">
	.st0{fill:#89D2DC;}
	.st1{fill:#FFFFFF;}
	.st2{fill:#231F20;}
</style>
<g>
	<path class="st0" d="M302.5,345.3c-0.2,0-0.2,0-0.4,0c-0.3,0.1-0.6,0.1-0.8,0.2L302.5,345.3z"/>
	<path class="st0" d="M237.6,344.9c-0.2,0-0.3,0-0.4,0C237.2,344.9,237.1,344.9,237.6,344.9z"/>
	<path class="st0" d="M452.1,344.6c0.6,0,1-0.1,1.2-0.1C452.9,344.6,452.6,344.6,452.1,344.6z"/>
	<path class="st0" d="M445.6,340c0.3,0,0.7,0,1,0C446.1,339.9,445.8,340,445.6,340z"/>
	<path class="st0" d="M301.3,345.4l-0.5,0.1C300.9,345.5,301.1,345.5,301.3,345.4z"/>
	<path class="st0" d="M177.6,344.8c0,0-0.2-0.1-0.3-0.1l-0.2,0L177.6,344.8z"/>
	<path class="st0" d="M95.4,344.1l-0.3,0.1c1.4,0.1,5.1,0.1,9.9,0.1l0.3-0.2L95.4,344.1z"/>
	<path class="st0" d="M48.3,157.9c-0.5,0.1-1,0.1-1.5,0.2c-2.2,0.3-5.3,1.2-8.1,2.9c-2.8,1.8-5.4,4.4-7,7c-1.7,2.7-2.4,5.3-2.7,6.9
		c0.1-1.1,0.4-1.9,0.6-2.5c0.1-0.6,0.3-1,0.4-1.3c0.2-0.6,0.2-0.5,0-0.2c-0.3,0.6-0.9,2.6-1.1,3.4v0.6c-0.4,2.6-0.4,3.9-0.5,4.9
		c-0.1,1-0.1,1.7-0.2,3l0.1-0.2l0-0.3c0-0.3,0.1-0.1,0.1,0.2c0-0.1,0.1,0.2,0.1,1.6l0-0.3c0,2.2,0,6,0,7.7l-0.2,0
		c0.4,3.9-0.6,26.4-0.6,31.7c-0.2,5.3,0.1,11.9-0.1,18.5c-0.1,10.6-0.3,5.3-0.4,10.6c-0.1,6.6,0.2-1.3,0.2,1.3l-0.3,7.9
		c0-4.6-0.1-2.1-0.2-1.3c0,6.9-0.4,17.7,0,19.8c-0.2,9.2-0.3,9.3-0.4,13.2c0-0.7,0.1-1.7,0.1-2.5c0-0.8,0.1-1.5,0.1-1.5
		c-0.2,3.7,0,1.8,0.1,0.3c0.2,5.6-0.7,29.3-0.3,30.5h-0.1c0.4,1.3,0.5-0.8,1,3.3c0.1,0.9,0.2,1.8,0.4,2.7c0.2,0.7,0.4,1.3,0.7,2
		c0.3,0.6,0.5,1.3,0.8,1.9c1.1,2.5,0.5,1.4,0.4,1.4c1.7,3,4.4,6.2,7.9,8.5c1.8,1.2,3.8,2.1,5.9,2.8c2.1,0.6,4.2,1,6.3,1.1
		c-2.9-0.3-5.8-1.2-8.3-2.6c1.6,0.6,3.5,1.4,5.6,1.7c1.1,0.2,2.2,0.2,3.2,0.3c1.1,0,2.1,0.1,3.1,0.1c4,0.1,7.4,0.1,8,0l4,0.3
		c13.4,0.5,9.4-0.2,14.7-0.1l6.7,0.3l-6.7,0c6.7,0.2,9.4,0.3,14.7,0.5l0.1,0c-0.4,0-0.6,0-0.7,0l0.9,0c0.8-0.2,4.3-0.3,9-0.2
		c6.7,0,12-0.2,22.7,0.1l2.7-0.3l8,0.2v0.2c-7.9,0-22.7,0.1-32.8,0.1l-0.2,0.1c6,0,12.8-0.1,16.8-0.1c1.9,0,6.9,0.3,3.3,0.5l3.7-0.2
		c20,0,20.2,0,41.1,0.2l-1.8-0.1c4.1-0.1,8.3-0.1,9.4,0.1c12.6,0,25.6,0.2,33.7,0.5l1.8-0.3c2.7,0,6.6,0.5,7.9,0l5.7-0.1
		c3.6,0,5.8-0.1,10,0l0,0c0.3,0,0.5,0,0.8,0l0,0c8.2,0.1-0.1-0.3,9.3-0.1c3,0.2,3.3-0.4,7.9-0.3l4.6,0.4c8.3,0.2,9.7-0.2,21.7-0.2
		c5.8,0.1,8.6,0.5,4.7,0.8c5.3-0.4,2.4-0.3,9.4-0.4c1.1,0.2,0.3,0.2-1.2,0.3c6.2,0.2,3.8-0.1,8.5-0.1c1.4-0.3,2.9-0.8,4.4-0.8
		l-1.8-0.1c4.9-0.2,10.3-0.2,16.1-0.1l-0.2,0.2l6.1-0.1l0.4,0.2l8.7-0.1l-1.2-0.1c2.1,0,8.8-0.1,12.6,0l-0.1,0.1
		c10.9,0.3,19.8-0.1,32.5-0.1l-1.7,0.2c4.3,0.2,1.2-0.3,6.4-0.2l0.3,0.3c4.5-0.4,5.9,0.1,9,0.2l-1.5-0.4l5.9,0.1
		c6.5,0.1,4,0.4,3,0.6l4.4-0.3l0.9,0.3c3.2-0.4,3.2,0.1,8.9-0.1c0.5,0.1-1,0.2,1,0.2l9.3-0.4l-5.6,0.2l0.7-0.5
		c5.9-0.3,7.9,0,12.1-0.1l-2.9,0.1c6.8-0.1,7.2,0.1,11.1,0.2c-1.2-0.1-3-0.2-0.3-0.3c2,0,1.1,0.2,3,0.2c0.2-0.2,1.6-0.3,3.4-0.3
		c0.9,0,2,0,3.1,0c0.5,0,1.1,0,1.8,0c0.6,0,1.2,0,1.8-0.1c-0.1,0.1-0.2,0.1-0.5,0.2c1.2-0.3,1.9-0.3,4-0.8l-1.2,0.6l2-0.7l1.9-0.9
		c1.3-0.5,2.8-1.3,3.9-2c1.1-0.7,1.8-1.3,1.7-1.1c-0.4,0.3-0.8,0.7-1.2,1c5.9-3.8,10-10.2,10.9-17.2l0.3-0.3c0-0.5,0-1.5,0-2.7
		c0-1.1,0-2.3,0-3.4c0-2.3,0-4.2-0.2-3.9c0.3-3.6-0.2-14.1,0.3-12c0-12.4-0.5-19.2-0.2-34.3c0.4-5.4,0.3-20.2,0.3-29.9
		c-0.2-19-0.3-31.3-0.5-50.7c0.1-1.5,0.1-3,0.2-4.6c0-0.8,0-1.6,0-2.5c0-0.4,0-0.8,0-1.3c0-0.5,0-1-0.1-1.4
		c-0.1-1.9-0.5-3.9-1.1-5.8c-0.7-1.9-1.5-3.8-2.7-5.5c-2.2-3.5-5.4-6.3-8.9-8.3c-3.5-2-7.3-2.9-10.8-3.2c-1.3,0-2.4,0.1-3.6,0.2
		c-8.5-0.4-21.4,0.1-33.3-0.3c-2.9,0.1-4.4,0.1-5.1,0.1c0.5,0,1.4,0.1,1.6,0.2c-3.4-0.1-10.3,0-9.8-0.3l0.9,0
		c0.5-0.3-10.3,0.1-14.1-0.1l2.1,0.3l-6.4-0.1l1.7-0.1c-27.9,0.7-40.5-0.3-66.7,0.4c3.5-0.4-5.2,0.2-5.5-0.2
		c-6.6-0.5-12.2,0.1-17.7,0.2c0,0-0.1,0-0.4,0.1l-9.5,0c5.7-0.5-6.8,0.4-1.6,0c-24.7-0.4-56.9,0-85.5-0.2l1.3,0.1
		c-7.2,0-16.3,0.1-21.8-0.1c-5.5-0.2-12,0.3-14.2,0.3c-6,0.2-11.5-0.2-8.9-0.2c-6.4,0.1-12.5,0.5-21.5,0.3
		c-3.1-0.4-24.4,0.4-24.7-0.1l-0.1,0c-11.5-0.3-22.3,0.2-34.6-0.1c0,0,0.3,0,0.7-0.1L50.5,156"/>
	<path class="st0" d="M50.4,343.7c-0.2,0-0.4,0-0.5,0c0.7,0.1,1.3,0.1,1.9,0.2L50.4,343.7z"/>
	<path class="st0" d="M465.2,356.1c-2.7,0.2-5.3,0.3-8,0.5c-17.9,1.3-35.9,0.8-53.8,0.8c-13,0-26-0.1-39.1,0
		c-10.6,0.1-21.1,0.4-31.7,0.4c-7.2,0.1-14.4-0.1-21.6-0.1c-28.1,0-56.3,0.1-84.4,0.1c-5.9,0-11.8-0.2-17.8-0.1
		c-5.5,0-11,0.3-16.5,0.4c-5.6,0-11.2-0.2-16.8-0.2c-5.3,0-10.6,0.1-15.8,0.1c-16.2,0-32.3,0-48.5,0c-7.4,0-14.7,0.2-22.1,0.3
		c-2.3,0-4.6-0.3-6.9-0.3c-13.2,0-26.4,0.1-39.6,0.1c-2.5,0-4.9-0.1-7.4-0.1c-8.5,0-16.9-6.7-19.4-15.5c-0.5-1.9-0.8-3.9-0.8-5.8
		c-0.1-32.9-0.2-65.9-0.2-98.8c0-14.2,0-28.4,0.1-42.6c0-4,0.2-8,0.2-12c0-4.3-0.3-8.7-0.1-13c0.2-4.3-0.3-8.7,1-13
		c2-6.6,6.6-10.9,12.6-13.6c2.1-0.9,4.7-1.1,7.1-1.2c6.4-0.2,12.8-0.3,19.2-0.3c2.5,0,5.1,0.3,7.6,0.2c3.2-0.1,6.4-0.6,9.6-0.7
		c3.8-0.1,7.6-0.1,11.4,0c4.4,0.1,8.8,0.5,13.2,0.7c3.3,0.1,6.5-0.1,9.8-0.1c13.2,0,26.5,0,39.7,0.1c6.6,0,13.1,0,19.7,0.1
		c7.6,0.1,15.2,0.2,22.8,0.2c1.6,0,3.2-0.3,4.7-0.4c3-0.3,6-0.6,9-0.7c3-0.1,6-0.2,8.9,0.1c10,1.3,20.1,0.2,30.1,0.4
		c12.1,0.2,24.3,0.1,36.4,0.1c15.7,0,31.5,0,47.2,0.1c19.2,0.1,38.3,0.1,57.5,0.2c1.5,0,3,0,4.5,0.3c-4.6,0-9.1,0-13.7,0l0,0.4
		c3.2,0,6.4,0,9.6,0c3.5,0,6.9,0,10.4,0c4.6,0,9.1,0,13.7,0c6.3,0,12.6-0.1,18.9,0c2.4,0,4.7,0.4,7.1,0.4c3.3,0,6.6-0.2,10-0.2
		c8,0.1,15.9,0.3,23.9,0.6c1.8,0.1,3.7,0.6,5.7,0.9c-0.6-0.3-1.2-0.6-1.7-0.8l0-0.1c0.7,0.2,1.5,0.4,2.2,0.7
		c6.6,2.6,10.9,7.4,12.5,14.3c0.6,2.6,0.4,5.4,0.5,8.1c0.1,1.9-0.4,3.9,0.6,5.7c0.3,0.6,0.1,1.5,0.1,2.3c-0.1,8.7-0.3,17.4-0.4,26.1
		c-0.1,12.2,0,24.3-0.1,36.5c-0.4,22.8-0.9,45.7-1.3,68.5c-0.1,6.4,0,12.8-0.1,19.2c-0.1,3.8-0.4,7.5-0.5,11.3
		c-0.2,4.5-2.1,8.1-5.4,11.1c-2.3,2.1-4.9,3.6-7.8,4.5c0.5-0.3,1.1-0.5,1.6-0.9c2.2-1.6,4.6-3,6.5-5c3.2-3.3,4.5-7.4,3.9-12
		c-0.2-1.1,0-2.3,0-3.4c-0.1-8.3-0.2-16.7-0.2-25c0-17.3,0.2-34.7,0.2-52c0-24.6-0.1-49.3-0.2-73.9c0-0.9,0-1.9-0.3-2.8
		c0,0.7-0.1,1.3-0.1,2l-0.1,0c0-5.2,0-10.4,0-15.5c-0.1-9.2-6.9-16.2-16.1-16.2c-14.7-0.1-29.4-0.1-44.1-0.1
		c-28.8,0-57.6,0-86.4-0.1c-32.8-0.1-65.6-0.3-98.4-0.4c-51.1,0-102.1,0.2-153.2,0.2c-12.7,0-25.4-0.2-38.1-0.2
		c-3.5,0-7.1-0.1-10.6,0.2c-9,0.6-15.5,7.5-15.4,16.6c0,11.2,0.3,22.3,0.3,33.5c0,17.5-0.3,35-0.3,52.5c-0.1,29,0,57.9,0,86.9
		c0,9.5,7.2,16.7,16.7,16.7c19.8,0,39.6-0.1,59.4-0.1c3.2,0,6.5,0.2,9.7,0.2c26,0,52.1,0,78.1-0.1c23.2-0.1,46.5-0.3,69.7-0.3
		c39.4,0.1,78.7,0.3,118.1,0.4c20.9,0,41.7-0.2,62.6-0.2c5.4,0,10.8,0.5,16.2,0.8c4.9,0.2,9.7,0.4,14.5,1.7c0.1,0,0.2,0.1,0.4,0.1
		L465.2,356.1z"/>
	<path class="st0" d="M484,363.6c-0.5,1.5-1.1,2-2.6,1.9c-1.7-0.2-3.5,0.1-5.3,0.1c-3.7,0-7.3-0.2-11-0.2c-1.1,0-2.2,0.2-3.3,0.3
		c-0.1,0.1-0.1,0.3-0.2,0.4c0.4,0.4,0.7,0.8,1.1,1.1c3.5,2.2,4.4,5.6,4.1,9.5c0,0.3-0.1,0.7-0.2,0.9c-1.5,1.9-2.3,4.2-4.6,5.6
		c-3.2,1.8-6.1,1.8-9.6,0.5c-3.1-1.2-4.2-3.4-5.2-6c-0.7-1.8,0.1-3.5,2.1-4.5c0.2,1,0.6,2,0.6,3c0,2.5,2.8,5.2,5.2,5.1
		c0.6,0,1.3-0.1,1.8,0.1c1.5,0.7,2.9,0,3.9-0.8c2.3-1.8,3.8-4.1,3.1-7.2c-0.2-0.9-0.8-1.9-1.5-2.6c-2.1-2.3-4.7-3.4-7.7-3.8
		c-2.6-0.4-5.1-1.2-7.6-1.4c-2.9-0.3-5.9-0.3-8.8-0.3c-3.2,0-6.3,0.2-9.5,0.2c-3.8,0-7.7,0.1-11.5,0c-1.3,0-2.6-0.3-3.9-0.5
		c-0.4,0-0.9-0.1-1.3,0.1c-0.9,0.4-1.3-0.2-1.4-0.8c-0.1-0.4,0.2-1.3,0.5-1.4c1.1-0.3,2.2-0.4,3.3-0.4c2-0.1,4.1-0.2,6.1-0.2
		c1.6,0,3.1,0.2,4.7,0.3c1.1,0,2.1,0,3.2-0.1c1,0,1.9,0,2.9-0.1c2.4,0,4.9,0,7.3-0.1c0.7,0,1.4-0.2,2.2-0.1
		c3.6,0.1,7.2,0.2,10.7,0.2c5.5,0,11.1,0,16.6,0c4.4,0,8.8-0.1,13.1,0C482.2,362.6,483.1,363.2,484,363.6z"/>
	<path class="st0" d="M447.4,126.4c-2-0.8-2.9-2.5-2.3-4.2c0.5-1.4,1.2-2.9,2.1-4.1c0.5-0.7,1.4-1.1,2.1-1.5
		c0.5-0.3,1.1-0.6,1.7-0.8c1-0.3,2-0.7,3-0.8c3.1-0.4,5.8,0.9,7.8,3c3.8,3.9,4.5,10-0.7,14.1c-0.6,0.5-1.1,0.9-2,1.6
		c0.9,0.2,1.3,0.4,1.7,0.4c2.8,0.2,5.6,0.4,8.5,0c2.3-0.3,4.8,0,7.2,0.1c0.9,0,1.8,0.1,2.7,0c1.6-0.2,1.9,0,2.5,1.6
		c-1,0.8-2,1.3-3.4,1.2c-1.9-0.2-3.8,0-5.7,0c-0.9,0-1.9-0.3-2.8-0.3c-3.9,0.1-7.8,0.2-11.7,0.3c-4.9,0-9.8-0.1-14.7-0.1
		c-0.5,0-1,0-1.5,0c-2,0-4,0.1-6,0.1c-2.6,0.1-5.1,0.2-7.7,0.2c-1.3,0-2.6-0.3-3.9-0.4c-0.4,0-0.9,0-1.3,0.1
		c-1.1,0.1-2.2,0.4-3.2,0.4c-3.2,0-6.3-0.2-9.5-0.3c-0.6,0-1.2-0.3-1.7-0.6c-0.2-0.2-0.3-0.9-0.1-1.2c0.2-0.4,0.7-0.8,1.1-0.8
		c1.5-0.1,2.9-0.1,4.4-0.1c1.1,0,2.3-0.2,3.4-0.2c3.1,0,6.1-0.1,9.2,0c3.4,0,6.9,0.3,10.3,0.2c5.2-0.1,10.5,0,15.6-1.6
		c2.8-0.9,5.4-1.6,7.6-3.6c1.7-1.5,2.2-3.4,1.8-5.4c-0.6-2.9-2.4-4.9-5.4-5.8c-0.4-0.1-0.8,0-1.2,0.1c-0.6,0.1-1.2,0.3-1.9,0.3
		c-2.1,0-4.9,1.9-5.6,3.8c-0.1,0.2,0,0.5,0,0.8C447.7,124.1,447.6,125.2,447.4,126.4z"/>
	<path class="st0" d="M50.1,126.6c-0.2-1.3-0.2-2.5-0.5-3.6c-0.1-0.6-0.4-1.2-0.7-1.7c-1.3-1.9-2.8-3.2-5.4-2.9
		c-1.3,0.1-2.7-0.5-4,0.3c-2.7,1.5-5.1,5.2-3.5,8.9c0.1,0.2,0.2,0.5,0.4,0.7c2.3,2.2,4.7,4,8,4.4c2.9,0.4,5.8,1.4,8.7,1.6
		c4.4,0.3,8.8,0.2,13.2,0.2c5.3,0,10.7-0.2,16-0.2c1.3,0,2.7,0.3,4,0.5c0.4,0,0.8,0,1.2-0.1c0.9-0.4,1.4,0.2,1.5,0.8
		c0.1,0.4-0.4,1.3-0.7,1.4c-1,0.3-2.1,0.3-3.2,0.3c-1.9,0.1-3.9,0.2-5.8,0.1c-1.6,0-3.2-0.2-4.8-0.2c-1,0-2.1,0-3.1,0
		c-1.1,0-2.3,0-3.4,0.1c-2.4,0.1-4.8,0.1-7.2,0.2c-0.5,0-1,0.1-1.5,0.1c-3.6-0.1-7.3-0.2-10.9-0.2c-5.6,0-11.2,0-16.9,0
		c-4,0-7.9-0.2-11.9-0.1c-1.5,0-2.8-0.1-3.9-1.2c0.2-1.1,0.8-1.7,2.1-1.7c3,0.1,6.1,0,9.1,0c2.4,0,4.8,0.2,7.2,0.2
		c1.3,0,2.5-0.2,3.8-0.4c0.2-0.3,0.3-0.5,0.5-0.8c-0.5-0.3-1.1-0.5-1.6-0.8c-3.6-2.3-4.4-5.8-4.1-9.7c0-0.2,0-0.4,0.2-0.5
		c1.4-1.9,2.2-4.2,4.4-5.5c3.3-2,6.3-2,9.9-0.6c3.1,1.2,4.2,3.4,5.2,6C53.1,124,52.2,125.7,50.1,126.6z"/>
	<path class="st0" d="M52.2,373c1.9,0.9,2.9,2.6,2.3,4.2c-0.6,1.6-1.5,3-2.3,4.5c-0.1,0.2-0.3,0.5-0.6,0.6c-2.3,0.8-4.2,2.3-6.9,2.2
		c-2.8,0-5.1-1.1-6.9-2.9c-3.9-3.8-4.7-9.9,0.2-14c0.6-0.5,1.3-1,2.2-1.8c-0.8-0.2-1.3-0.4-1.7-0.4c-2.8,0-5.7,0.1-8.5,0.1
		c-2.3,0-4.5-0.1-6.8-0.1c-1.2,0-2.5-0.1-3.7,0c-1.3,0.1-1.6-0.8-2-1.6c1.6-2.1,3.8-1.3,5.7-1.3c4.8-0.1,9.7,0,14.5,0
		c2.2,0,4.4-0.1,6.7,0c4,0,8.1,0.2,12.1,0.2c0.8,0,1.6-0.2,2.4-0.2c3.2,0,6.5,0.1,9.7,0.2c0.2,0,0.4,0.1,0.5,0
		c2-0.8,3.9,0.1,5.9,0.1c0.4,0,0.9-0.1,1.3-0.2c1-0.1,2-0.4,3-0.3c3.2,0.1,6.3,0.2,9.5,0.3c0.6,0,1.2,0.3,1.7,0.6
		c0.3,0.2,0.4,0.9,0.3,1.1c-0.2,0.4-0.7,0.8-1.2,0.9c-1.5,0.1-2.9,0.1-4.4,0.1c-1.4,0-2.9,0.1-4.3,0.1c-2.7,0-5.4,0.1-8.1,0
		c-2.9,0-5.9-0.2-8.8-0.2c-4.5,0.1-9,0.2-13.4,0.7c-2.7,0.3-5.4,1.2-8,2c-4,1.3-6.3,5.6-4.8,9c0.9,2.3,2.5,4,5,4.6
		c0.4,0.1,0.8,0,1.2,0c0.7-0.1,1.3-0.3,2-0.3c2.1,0,4.9-1.9,5.6-3.9c0.1-0.2-0.1-0.5,0-0.8C51.9,375.3,52.1,374.2,52.2,373z"/>
	<path class="st1" d="M323.5,173.6c0,0.5,0,0.8,0,1.2c-2.6,0.2-5.1,0.5-7.6,0.6c-21.1,1.1-41.8,4.3-62.5,8.3
		c-12.9,2.5-25.9,4.9-38.9,6.9c-12.3,1.9-24.8,2.2-37.2,0.7c-0.3,0-0.7-0.1-1-0.2c-0.1-1,0.2-1.3,1.2-1.2c9.8,1.2,19.6,1.3,29.3,0.2
		c8-0.9,15.9-2.1,23.9-3.5c16-2.8,32-6.1,48.1-8.7c10-1.6,20.1-2.3,30.1-3.3c4.5-0.5,8.9-0.7,13.4-1.1
		C322.6,173.6,322.9,173.6,323.5,173.6z"/>
	<path class="st1" d="M176.4,228.5c0.1-0.6,0.2-0.9,0.2-1.2c4,0.3,8,0.6,11.9,0.8c9,0.4,18-0.1,26.9-1.6c17.1-2.9,34.2-6.1,51.4-9.2
		c13.4-2.4,26.8-4.3,40.4-5.1c5-0.3,9.9-0.8,14.9-1.2c0.5,0,1-0.1,1.7-0.1c0.1,0.4,0.1,0.8,0.1,1.2c-0.2,0.1-0.3,0.2-0.4,0.2
		c-7.5,0.6-15,1.1-22.5,1.9c-8.8,0.9-17.6,1.9-26.3,3.3c-16.9,2.9-33.8,6.2-50.7,9.2c-13,2.3-26.1,3.5-39.4,2.7
		C181.9,229.1,179.2,228.8,176.4,228.5z"/>
	<path class="st1" d="M275.8,193.5c-0.2-0.1-0.5-0.4-0.8-0.7c-0.7-0.8-0.5-1.5,0.4-1.9c1.8-0.7,3.5-1.5,5.4-2.2
		c1.6-0.6,3.3-1.1,4.7,0.3c1.4,1.5,1.5,3.3,0.9,5.2c-0.6,2-1.9,3.5-3.5,4.7c-1.6,1.2-3.3,2.3-5,3.4c0.6,0.8,1.3,1.7,1.8,2.7
		c0.4,0.8,0.5,1.9,0.4,2.8c-0.2,1.2-1.1,1.3-2,0.4c-1.2-1.4-2.4-2.8-3.7-4.4c-0.8,1.8-1.4,3.3-2.2,4.9c-0.2,0.5-0.8,0.8-1.2,1.2
		c-0.4-0.5-1.1-1-1.1-1.5c-0.1-1,0.1-2.1,0.4-2.9C272.1,201.4,274,197.5,275.8,193.5z M284.2,191.5c-2.5,0-4.3,1.1-5,3
		c-0.3,0.7-0.6,1.4-0.9,2c-0.4,0.7-0.8,1.5-1.2,2.2C280.3,197.1,283.2,195.3,284.2,191.5z"/>
	<path class="st1" d="M251.9,209.7c-1.3-0.7-2.4-1.2-3.5-1.8c-3.2-1.7-3.9-3.8-2.3-7c1.7-3.6,4.6-6.2,8.2-7.9
		c1.2-0.6,2.6-0.8,3.7,0.3c1.2,1.2,1.9,2.6,1.2,4.2c-0.9,1.9-2,3.7-3.1,5.5c-0.5,0.8-1.2,0.5-1.8-0.1c-0.8-1-0.7-2.2-0.1-3.2
		c0.6-1.3,1.4-2.5,2.2-3.9c-0.5,0.2-0.7,0.2-1,0.4c-2.3,1.5-4.3,3.3-5.7,5.7c-0.9,1.6-0.7,2.3,1,3.2c0.9,0.5,1.8,0.9,2.7,1.3
		c1.7,0.8,2.1,1.9,1.2,3.6c-1.4,2.8-4.7,4.3-8,3.6c-1.8-0.4-3.3-1.3-4.6-2.6c-0.9-1-0.7-2,0.7-2.1c1.1-0.1,2.2,0.2,3.3,0.5
		c1.1,0.3,2.1,1,3.3,1.3C250,210.9,251,210.7,251.9,209.7z"/>
	<path class="st1" d="M182.1,217.6c-0.5-0.4-0.9-0.7-1.3-1c-1.1-0.8-2.2-1.4-3.2-2.3c-2-1.7-2.5-3.6-1.4-6c1.7-3.8,4.8-6.1,8.7-7.3
		c1.3-0.4,2.5-0.2,3.5,0.9c1,1.2,1.8,2.7,1,4.2c-0.9,1.8-2,3.4-3.1,5.1c-0.5,0.8-1.3,0.5-1.8-0.2c-0.8-1.1-0.7-2.3-0.1-3.5
		c0.6-1.1,1.4-2.2,2.1-3.4c-0.2,0-0.3-0.1-0.4-0.1c-2.5,1.1-4.6,2.7-6.2,5c-1,1.5-0.9,2.3,0.6,3.3c1,0.7,2.2,1.3,3.2,2
		c1.5,0.9,1.8,2.2,1,3.7c-1.2,2.2-3.7,3.3-6.4,2.9c-2.6-0.5-4.7-1.9-6.3-4c-0.8-1-0.4-2,0.9-1.9c1,0.1,2.1,0.5,3,1
		c1.1,0.6,2.1,1.4,3.3,1.9C180.1,218.4,181.1,218.5,182.1,217.6z"/>
	<path class="st1" d="M317.9,187.1c-0.4,0.1-0.6,0.1-0.7,0.2c-4.4,1.7-8.6,8-8.4,12.8c0,0.8,0.4,2,0.9,2.2c0.6,0.3,1.9,0,2.4-0.6
		c1.3-1.2,2.3-2.7,3.5-4.1c0.4-0.4,0.9-0.7,1.4-1c0.3,0.5,0.7,1,0.8,1.5c0.1,0.6,0,1.3-0.3,1.8c-1.3,2.8-3.4,4.6-6.5,4.8
		c-3.2,0.3-5.5-1.6-5.5-4.9c0-1.8,0.3-3.8,0.9-5.5c1.1-3.3,3.2-5.9,6-8c1.1-0.8,2.3-1.4,3.6-1.8c1.4-0.5,2.8-0.2,3.8,1
		c1.1,1.3,1.6,2.7,1,4.4c-0.4,1.1-0.9,2.2-1.4,3.3c-0.5,1.1-1.4,1.2-2.2,0.3c-0.8-0.9-0.8-1.9-0.5-3
		C317,189.4,317.4,188.4,317.9,187.1z"/>
	<path class="st1" d="M290.3,199.9c1.6-2.3,3.1-4.5,4.8-6.7c1.6-2.1,3.2-4.2,4.9-6.2c0.3-0.4,0.9-0.5,1.4-0.7
		c0.2,0.5,0.8,1.1,0.6,1.5c-0.5,1.5-1.1,3-1.9,4.2c-2.8,4.1-5.7,8.1-8.6,12.1c-0.6,0.9-1.1,1.8-1.7,2.6c-0.8,1.1-1.8,1.2-2.5,0.1
		c-0.5-0.9-1.1-2.2-0.9-3.2c1-4.9,2.1-9.9,3.3-14.7c0.1-0.6,0.9-1,1.3-1.5c0.4,0.7,1.2,1.3,1.2,2c0,1.5-0.3,3-0.6,4.4
		c-0.4,2-1,4.1-1.4,6.1L290.3,199.9z"/>
	<path class="st1" d="M264.3,200.5c0.6,0,1.4-0.2,1.9,0.1c0.6,0.4,1.4,1,1.5,1.7c0.2,0.9-0.7,1-1.4,1.2c-0.8,0.2-1.6,0.5-2.4,0.7
		c-2.1,0.3-2.8,1.9-3.5,3.8c1.2-0.3,2.2-0.7,3.2-0.8c0.7-0.1,1.5,0,2,0.3c0.5,0.3,0.8,1,0.9,1.6c0,0.3-0.7,0.7-1.2,0.9
		c-1.8,0.7-3.6,1.3-5.5,1.9c-0.8,0.3-1.7,0.8-2.4,0c-0.8-0.8-1.2-1.8-0.8-3c0.3-0.8,0.6-1.6,0.9-2.3c1.7-3.4,3.5-6.9,5.3-10.3
		c0.4-0.7,0.7-1.3,0.1-2.1c-0.6-0.7-0.4-1.5,0.7-1.8c2.3-0.6,4.7-1.2,7-1.8c1.5-0.4,2.5,0,3.1,1c0.5,0.9,0.2,1.5-0.8,1.7l-0.3,0
		C268,193.5,265.6,196.4,264.3,200.5z"/>
	<path class="st1" d="M194.3,209.8c0.8,0.1,1.7,0,2.3,0.4c0.6,0.4,0.9,1.3,1.3,1.9c-0.5,0.3-1,0.7-1.6,0.8c-0.6,0.2-1.3,0.3-1.9,0.3
		c-2.2,0.1-3.3,1.5-3.8,3.6c1.1-0.2,2.3-0.6,3.4-0.5c0.9,0,1.9,0.4,2.5,1c0.8,0.8,0.4,1.6-0.7,1.9c-2,0.4-3.9,1-5.9,1.4
		c-0.7,0.1-1.8,0.1-2.1-0.3c-0.6-0.8-1.1-1.9-0.9-2.8c0.3-1.4,1-2.8,1.7-4.1c1.6-3.1,3.3-6.2,5-9.3c-0.2-0.4-0.5-0.8-0.6-1.3
		c-0.2-0.8,0.1-1.3,0.9-1.4c2.4-0.4,4.7-0.8,7.1-1.2c1.1-0.2,2.1,0.1,2.8,1.1c0.7,1,0.3,1.7-0.9,1.9c-1.4,0.2-2.7,0.6-4.1,0.8
		c-0.9,0.2-1.5,0.6-1.9,1.4c-0.7,1.4-1.6,2.7-2.4,4.1L194.3,209.8z"/>
	<path class="st1" d="M326.2,193.9c0.6,0,1.2-0.1,1.5,0c0.7,0.3,1.5,0.7,2,1.3c0.7,0.9,0.3,1.6-0.9,1.7c-0.9,0.1-1.7,0.3-2.6,0.3
		c-2.3,0-3,1.5-3.6,3.4c1.2-0.1,2.4-0.3,3.6-0.4c1.1-0.1,2,0.4,2.5,1.4c0.4,0.9,0.2,1.4-0.9,1.6c-1.9,0.3-3.9,0.7-5.8,1.2
		c-2.1,0.5-3.7-1-3.2-3.2c0.2-0.8,0.6-1.7,1-2.4c1.9-3.6,3.8-7.1,5.7-10.8c-1.2-2.5-1.1-2.5,1.9-2.8c1.8-0.1,3.6-0.4,5.4-0.6
		c1.3-0.1,2.4,0.2,3,1.4c0.5,1.1,0.2,1.7-1,1.7c-0.4,0-0.8,0-1.2,0C329.2,187.3,327.9,190.7,326.2,193.9z"/>
	<path class="st1" d="M217.1,201.7c-0.2-0.3-0.4-0.6-0.6-1c-0.3-0.8-0.1-1.4,0.8-1.6c2.2-0.5,4.3-1.1,6.5-1.6
		c1.2-0.3,2.5-0.4,3.4,0.8c0.8,1,0.5,1.8-0.7,2.1c-5.7,1.3-6,1.5-8.5,6.8l0,0.1c0.8,0.1,1.6,0,2.2,0.3c0.6,0.3,0.9,1.2,1.3,1.8
		c-0.5,0.3-1,0.7-1.5,1c-0.1,0.1-0.3,0.1-0.4,0.1c-2.8,0.4-4.9,1.6-5.7,4.5c-0.3,1-0.9,2-1.4,3c-0.2,0.4-0.7,0.8-1,0.8
		c-0.4,0-0.9-0.5-1.1-0.8c-0.2-0.6-0.4-1.3-0.2-1.9c0.4-1.4,0.9-2.9,1.5-4.2C213.5,208.4,215.3,205.1,217.1,201.7z"/>
	<path class="st1" d="M226.7,313.1c1.4-3.1,2.6-5.8,3.9-8.6c0.2-0.5,0.8-0.8,1.3-1.2c0.3,0.6,0.8,1.2,0.8,1.8c0,0.8-0.3,1.6-0.6,2.3
		c-1.6,3.9-3.2,7.7-4.8,11.6c-0.5,1.1-1.3,1.4-2,0.4c-0.5-0.8-0.9-1.8-1-2.8c-0.2-1.6-0.3-3.2-0.7-5c-0.9,2.5-1.8,5-2.8,7.4
		c-0.2,0.5-0.6,0.9-1,1.4c-0.4-0.6-1-1.1-1-1.7c0-1,0.2-2,0.5-2.9c1.5-3.7,3-7.4,4.6-11.1c0.5-1.2,1.4-1.3,2.1-0.2
		c0.4,0.6,0.6,1.4,0.6,2.2C226.8,308.8,226.7,310.8,226.7,313.1z"/>
	<path class="st1" d="M202.6,215.9c1.2-0.3,2.2-0.5,3.2-0.7c1.1-0.2,2.1,0,2.8,1c0.7,0.9,0.4,1.6-0.7,1.9c-1.9,0.5-3.8,1.1-5.7,1.6
		c-0.7,0.2-1.8,0.3-2.3-0.1c-1-0.7-1.5-1.9-1.1-3.2c0.1-0.4,0.3-0.8,0.5-1.2c2.6-4.9,5.2-9.8,7.9-14.6c0.3-0.5,1-0.8,1.5-1.2
		c0.3,0.7,1,1.4,0.9,2c-0.2,1.3-0.6,2.6-1.2,3.7c-1.6,3.1-3.3,6.2-5,9.3C203.1,214.7,202.9,215.2,202.6,215.9z"/>
	<path class="st1" d="M198.5,312.4c-0.2,3.3-1.5,6.6-4.1,9.2c-1.6,1.6-3.6,2.4-5.8,1.5c-2.3-0.9-3-2.9-3-5.1
		c0.1-4.7,2.2-8.3,6.1-10.8C194.9,305.2,198.5,307.8,198.5,312.4z M196,310.8c-0.2-0.5-0.3-1.7-0.9-2c-0.5-0.3-1.7,0.3-2.3,0.8
		c-2.9,2.4-4.7,5.6-4.5,9.5c0,0.8,0.5,1.9,1.1,2.2c0.5,0.3,1.7-0.2,2.2-0.7C194.4,318.1,195.6,314.9,196,310.8z"/>
	<path class="st1" d="M293.3,303.5c-0.2,3.6-1.4,6.6-3.6,9.1c-0.7,0.8-1.7,1.5-2.7,2c-2.8,1.2-5.6-0.3-6.4-3.3
		c-1.1-4.5,2.2-11.1,6.5-12.9c2.6-1.1,5.5,0.5,6.1,3.4C293.2,302.4,293.3,303.1,293.3,303.5z M290.8,302.3c-0.2-0.5-0.5-1.3-0.8-2.1
		c-0.8,0.3-1.8,0.5-2.5,1.1c-2.4,1.9-3.8,4.5-4.3,7.5c-0.2,1,0,2.1,0.1,3.1c0.2,1.2,1.1,1.4,2.1,1c0.6-0.3,1.1-0.7,1.5-1.1
		C289.3,309.2,290.4,306.1,290.8,302.3z"/>
	<path class="st1" d="M311.5,306.9c0.6,0.7,1.2,1.4,1.6,2.1c0.3,0.5,0.7,1.1,0.8,1.7c0.1,0.5-0.3,1.1-0.4,1.6
		c-0.4-0.3-0.9-0.4-1.3-0.8c-1.1-1.1-2.2-2.3-3.4-3.6c-0.5,1.5-0.9,2.8-1.4,4.1c-0.1,0.3-0.5,0.8-0.6,0.7c-0.3-0.1-0.9-0.4-0.9-0.7
		c-0.1-1-0.3-2.1,0-3.1c1-3.1,2.2-6.1,3.3-9.2c-0.1-0.1-0.4-0.2-0.5-0.4c-0.2-0.3-0.5-0.8-0.5-1.1c0-0.2,0.6-0.5,0.9-0.6
		c1.3-0.5,2.5-1,3.8-1.4c1.3-0.4,2.7-0.6,3.8,0.5c1.1,1.2,1.5,2.6,1,4.2c-0.6,2.4-2.4,3.8-4.4,5
		C312.8,306.2,312.2,306.5,311.5,306.9z M310.4,304.6c0.7-0.4,1.4-0.6,1.9-1c1.2-1.1,2.3-2.3,3.3-3.6c0.2-0.3-0.1-1-0.2-1.5
		c-1.1,0.5-2.7,0.7-3.3,1.5C311.3,301.1,311,302.8,310.4,304.6z"/>
	<path class="st1" d="M273.7,310.7c-0.8,0.2-1.8,0.3-2.7,0.6c-0.3,0.1-0.6,0.5-0.7,0.8c-0.5,1.1-0.8,2.3-1.3,3.5
		c-0.1,0.3-0.5,0.6-0.7,0.9c-0.3-0.3-0.9-0.6-0.9-0.9c-0.1-1.1,0-2.2,0.2-3.3c0.1-0.7,0.4-1.2-0.2-1.8c-0.5-0.5-0.3-0.9,0.4-1.2
		c0.5-0.2,1-0.7,1.2-1.1c1.1-2.4,2.1-4.8,3.2-7.2c0.2-0.4,0.7-0.7,1.1-1c0.3,0.5,0.9,1,0.8,1.4c0,1-0.3,2.1-0.6,3
		c-0.5,1.4-1.2,2.8-1.8,4.3c2-0.3,3.7-0.4,4.4-2.8c0.6-2,1.7-3.9,2.6-5.8c0.2-0.4,0.8-0.6,1.2-0.9c0.3,0.4,0.8,0.9,0.8,1.3
		c0,0.8-0.2,1.7-0.4,2.5c-0.5,1.4-1.2,2.8-1.8,4.1c-0.3,0.6-0.5,1.2,0.1,1.8c0.5,0.6,0.4,1.1-0.6,1.3c-0.5,0.1-1,0.5-1.2,0.9
		c-0.6,1.2-0.9,2.5-1.4,3.7c-0.2,0.4-0.5,0.6-0.8,0.9c-0.3-0.3-0.8-0.6-0.8-1C273.7,313.3,273.7,312.1,273.7,310.7z"/>
	<path class="st1" d="M326.8,297.2c-2.2,1.2-4.1,2.7-5.1,5.2c-0.4,0.9,0,1.5,0.7,2c1,0.6,2.1,1.1,3.1,1.7c1.6,0.8,1.9,1.8,1,3.4
		c-1,1.8-3.1,2.8-5.6,2.1c-1.6-0.5-3-1.6-4.5-2.4c-0.3-0.2-0.5-0.8-0.4-1c0.1-0.3,0.7-0.6,1-0.5c0.8,0.1,1.7,0.3,2.5,0.6
		c0.8,0.3,1.5,0.9,2.3,1.1c0.8,0.2,1.8,0,2.7,0c0-0.2,0.1-0.3,0.1-0.5c-0.4-0.3-0.7-0.6-1.1-0.8c-0.9-0.5-1.9-1-2.7-1.5
		c-2.1-1.4-2.6-3-1.7-5.3c1.1-2.8,3.2-4.8,6-6c1.1-0.5,2.1-0.4,3,0.5c0.9,1,1.7,2.1,1.2,3.4c-0.5,1.4-1.3,2.7-1.9,4
		c-0.4,0.7-0.9,0.5-1.3,0.1c-0.9-0.9-0.7-1.9-0.3-2.9c0.4-1,0.9-1.9,1.3-2.8L326.8,297.2z"/>
	<path class="st1" d="M293.7,309.4c0.2-0.6,0.3-1.8,0.8-2.8c1.2-2.8,2.5-5.6,3.8-8.3c0.2-0.4,0.8-0.9,0.9-0.8c0.4,0.2,0.9,0.6,0.9,1
		c0,0.9,0,1.9-0.3,2.8c-0.7,1.9-1.6,3.7-2.4,5.5c-0.5,1.2-0.9,2.4-1.1,3.6c-0.1,0.5,0.3,1.1,0.4,1.7c0.5-0.2,1.3-0.4,1.6-0.8
		c0.9-1.2,1.6-2.4,2.2-3.7c1.5-3.2,2.9-6.5,4.4-9.7c0.2-0.5,0.8-0.8,1.1-1.1c0.3,0.5,0.7,1,0.8,1.6c0.1,0.7,0,1.5-0.3,2.1
		c-1.5,3.4-2.9,6.9-4.6,10.2c-0.6,1.1-1.7,2.2-2.9,2.8C296.3,314.9,293.6,313.1,293.7,309.4z"/>
	<path class="st1" d="M202,309.3c-0.2-0.1-0.4-0.3-0.6-0.5c-0.8-0.8-0.6-1.3,0.4-1.7c1.2-0.4,2.4-0.9,3.6-1.3c1.5-0.5,3-0.9,4.2,0.4
		c1.3,1.3,1.5,3,0.9,4.7c-1.4,3.6-4.2,5.4-7.8,6.3c-0.5,0.1-1,0.5-1.2,0.9c-0.5,1.1-0.8,2.2-1.2,3.3c-0.1,0.3-0.5,0.8-0.7,0.8
		c-0.3,0-0.8-0.4-0.8-0.7c-0.2-0.7-0.3-1.6-0.1-2.2C199.6,316,200.8,312.7,202,309.3z M203.1,314.4c0.6-0.3,1.1-0.5,1.5-0.7
		c1.7-1.1,3.3-2.3,3.9-4.4c0.1-0.4-0.2-0.9-0.3-1.3c-1.1,0.4-2.7,0.6-3.2,1.4C204.1,310.7,203.7,312.6,203.1,314.4z"/>
	<path class="st1" d="M254.4,312.7c-0.8,0.2-1.5,0.3-2.1,0.5c-1.2,0.5-1.8-0.1-2.5-1c-0.6-0.9-0.5-1.6,0.2-2.3
		c2.7-2.7,5.4-5.4,8.1-8c0.5-0.5,1.2-1.2,2-0.4c0.7,0.8,1.6,1.6,1,2.9c-0.8,1.6-1.6,3.2-2.3,4.8c-0.2,0.4-0.1,1.1,0.1,1.6
		c0.4,0.9,0.4,1.4-0.7,1.4c-0.3,0-0.8,0.4-0.9,0.7c-0.6,1.3-1,2.7-1.6,4.1c-0.1,0.4-0.5,0.6-0.8,0.9c-0.3-0.3-0.8-0.6-0.9-0.9
		c-0.1-0.8-0.1-1.7,0-2.5C253.9,313.8,254.2,313.4,254.4,312.7z M256.8,306.2c-1.3,1.4-2.6,2.8-3.8,4.1
		C255.9,310.7,256.1,308.2,256.8,306.2z"/>
	<path class="st1" d="M243.5,315.3c0.6,0.2,1.5,0.4,2.2,0.8c0.3,0.2,0.5,0.8,0.5,1.1c0,0.2-0.6,0.4-1,0.5c-1.7,0.5-3.4,0.8-5.1,1.4
		c-1.2,0.4-2,0.1-2.6-1c-0.6-1.1,0.1-1.6,0.8-2.1c2.9-2.2,5.6-4.7,7.7-7.7c0.6-0.8,1-1.7,1.3-2.7c0.1-0.3-0.1-0.8-0.2-1.2
		c-0.4,0.1-0.9,0.1-1.1,0.4c-0.7,0.8-1.2,1.8-1.9,2.6c-0.6,0.7-1.3,1.3-2.1,1.7c-0.7,0.4-1.3-0.1-1-1c0.7-2,1.6-3.9,3.5-5.1
		c1.2-0.8,2.5-0.9,3.7-0.1c1.2,0.7,1.8,1.9,1.5,3.3c-0.2,1.1-0.6,2.3-1.3,3.2C246.8,311.5,245.1,313.4,243.5,315.3z"/>
	<path class="st1" d="M214.6,312.5c0.8,0.1,1.7,0.2,2.4,0.5c0.4,0.2,0.5,0.8,0.8,1.3c-0.4,0.2-0.7,0.4-1.1,0.6
		c-0.3,0.1-0.6,0.2-0.9,0.2c-2,0.2-3.5,1.1-3.6,3.4c0.8-0.2,1.6-0.4,2.4-0.5c0.7-0.1,1.4-0.1,2,0.2c0.4,0.2,0.6,0.8,0.9,1.2
		c-0.4,0.2-0.7,0.6-1.1,0.7c-1.3,0.4-2.6,0.8-3.9,1.1c-0.7,0.1-1.6,0.3-2.1-0.1c-0.9-0.6-1.3-1.6-0.8-2.8c1.3-3.1,2.5-6.2,3.8-9.4
		c0.3-0.7,0.6-1.2-0.1-1.9c-0.5-0.5-0.6-1.2,0.4-1.4c1.9-0.4,3.8-0.9,5.8-1.1c0.7-0.1,1.6,0.4,2.2,0.9c0.6,0.5,0.4,1.3-0.5,1.3
		c-3.7-0.1-5.5,2.1-6.4,5.4C214.6,312.3,214.6,312.4,214.6,312.5z"/>
	<path class="st1" d="M296.8,203.7c0.3-1,0.5-2,1-2.9c2.5-4.8,5.1-9.7,7.8-14.5c0.3-0.5,1-0.7,1.5-1.1c0.3,0.6,0.9,1.2,0.9,1.7
		c-0.1,1.1-0.3,2.3-0.8,3.3c-2.6,5-5.2,10-7.9,15c-0.5,1-1.4,1-1.9,0C297.1,204.9,297,204.3,296.8,203.7z"/>
	<path class="st0" d="M481.7,123.8c-0.2,0.3-0.6,1-1.2,1.3c-1.3,0.8-2.8,1.3-4.1,2c-2.6,1.3-5.1,2.6-7.7,3.9
		c-0.9,0.4-1.9,0.5-2.4-0.4c-0.2-0.4,0.4-1.5,0.9-1.8c1.9-1.2,3.9-2.2,6-3.2c2.3-1.1,4.7-2.1,7.1-3.1
		C481.2,122,481.7,122.3,481.7,123.8z"/>
	<path class="st0" d="M30,131.6c-1.6-0.7-2.9-1.3-4.3-1.9c-2.9-1.4-5.7-2.8-8.5-4.3c-0.6-0.3-1.1-0.9-1.3-1.5
		c-0.4-1.2,0.3-1.7,1.5-1.2c2.8,1.2,5.6,2.3,8.4,3.6c1.7,0.8,3.3,1.8,4.9,2.9c0.4,0.3,0.8,1.1,0.7,1.4C31.2,131,30.5,131.3,30,131.6
		z"/>
	<path class="st0" d="M17.7,375.8c0.5-0.5,0.9-1.2,1.5-1.5c1.5-0.8,3.2-1.5,4.8-2.3c2.3-1.1,4.6-2.4,7-3.5c0.5-0.2,1.3-0.3,1.8-0.2
		c0.9,0.2,1.1,0.9,0.5,1.7c-0.2,0.3-0.5,0.6-0.8,0.7c-2.2,1.1-4.3,2.3-6.5,3.3c-2.2,1-4.4,2-6.6,2.9C18.3,377.6,18,377,17.7,375.8z"
		/>
	<path class="st0" d="M469.6,368.3c1.5,0.7,2.8,1.3,4.1,1.9c2.9,1.4,5.9,2.9,8.8,4.4c0.5,0.3,1,0.8,1.2,1.3c0.1,0.4-0.1,1.1-0.3,1.5
		c-0.1,0.2-0.8,0-1.2-0.1c-2.8-1.2-5.5-2.3-8.2-3.6c-1.7-0.8-3.3-1.8-4.9-2.9c-0.4-0.3-0.8-1.1-0.7-1.4
		C468.4,368.9,469.1,368.6,469.6,368.3z"/>
	<path class="st1" d="M230.4,204.5c2-0.4,4-0.7,6-1.2c1-0.2,1.9-0.4,2.4,0.8c0.4,1.1-0.1,2.1-1.4,2.3c-2.7,0.5-5.4,0.8-8,1.1
		c-0.3,0-0.7-0.1-1-0.1c-1-0.2-1.4-1-1.3-2c0.1-1,0.7-1.3,1.7-1.3c0.6,0,1.1,0,1.7,0L230.4,204.5z"/>
	<path class="st1" d="M338,305.7c3.4,0.1,6.8,1,10,2.6c0.3,0.2,0.6,0.6,0.9,0.9c-0.3,0.3-0.6,0.7-1,0.8c-0.5,0.1-1.2,0.1-1.7-0.1
		c-3.2-1.5-6.6-2.3-10.2-2.3c-0.5,0-0.9-0.5-1.4-0.7c0.5-0.4,0.9-0.9,1.4-1.1C336.6,305.6,337.2,305.7,338,305.7z"/>
	<path class="st1" d="M176.2,321.4c0.6,0,1-0.1,1.4,0c0.4,0.1,0.7,0.3,1.1,0.4c-0.2,0.4-0.3,0.9-0.6,1.1c-0.4,0.3-1,0.4-1.5,0.4
		c-3.4,0.1-6.6,0.8-9.6,2.3c-0.2,0.1-0.5,0.4-0.7,0.3c-0.6-0.1-1.1-0.3-1.6-0.5c0.3-0.4,0.5-1,0.8-1.2
		C168.8,322.4,172.5,321.5,176.2,321.4z"/>
	<path class="st0" d="M55.5,118.3c2-0.1,2.4,1.5,2.9,2.7c1.1,2.4-0.1,5.7-2.3,6.7c-1,0.5-1.4,0.3-1.3-0.8c0-0.5,0.2-1.1,0.5-1.5
		c0.8-1.3,1.1-2.6,0.1-4C54.8,120.5,54.7,119.3,55.5,118.3z"/>
	<path class="st0" d="M57.7,381.4c-0.9-1.2-0.8-2.3-0.1-3.3c0.9-1.2,0.6-2.4,0-3.5c-0.1-0.2-0.3-0.3-0.3-0.4
		c-0.1-0.8-0.1-1.6-0.2-2.3c0.6,0.2,1.3,0.2,1.8,0.5c1.6,0.9,2.4,4.1,1.7,6.1C59.7,380.8,59.6,380.9,57.7,381.4z"/>
	<path class="st0" d="M440.7,377.5c0.3-2.5,0.4-4.6,2.7-5.5c1-0.4,1.5-0.1,1.4,1c-0.1,0.6-0.4,1.1-0.6,1.6c-0.7,1.2-1,2.4-0.1,3.6
		c0.3,0.4,0.5,1,0.5,1.5c0,0.6-0.3,1.2-0.5,1.7c-0.6-0.3-1.6-0.3-1.9-0.8C441.4,379.6,441,378.3,440.7,377.5z"/>
	<path class="st0" d="M31.9,375.4c-0.2,0.6-0.3,1.1-0.6,1.5c-1.5,1.9-3.1,3.8-4.7,5.6c-0.2,0.2-0.9,0.3-1,0.1
		c-0.3-0.4-0.7-1.1-0.5-1.4c0.6-1.4,1.4-2.7,2.3-4c0.7-1,1.7-1.7,2.6-2.5c0.3-0.3,0.9-0.7,1.1-0.5C31.4,374.4,31.6,375,31.9,375.4z"
		/>
	<path class="st0" d="M442.7,119.5c-0.2,0.7-0.3,1.4-0.6,1.8c-1,1.4-0.7,2.6,0.1,3.9c0.2,0.3,0.4,0.6,0.5,1c0,0.5-0.1,1-0.2,1.6
		c-0.5-0.1-1.1-0.1-1.5-0.3c-1.8-1-2.8-4-2.1-6.2c0.3-0.8,0.6-1.6,1.1-2.2c0.4-0.5,1.2-0.8,1.9-0.8
		C442.1,118.2,442.4,119.1,442.7,119.5z"/>
	<path class="st0" d="M475,118.1c-0.8,1.3-1.4,2.7-2.4,3.8c-0.9,1.2-2.1,2.1-3.2,3.1c-0.7,0.6-1.2,0.4-1.4-0.4
		c-0.1-0.7-0.1-1.5,0.3-2c1.5-1.9,3.1-3.8,4.7-5.6c0.2-0.2,0.7-0.3,0.9-0.2C474.3,117,474.5,117.5,475,118.1z"/>
	<path class="st0" d="M29.8,124.2c-0.3,0.4-0.5,1-0.9,1.3c-0.2,0.1-0.8-0.2-1.1-0.5c-1.4-1.4-2.8-2.8-4.1-4.4
		c-0.5-0.7-0.7-1.6-0.9-2.5c-0.1-0.3,0.3-0.8,0.6-1.1c0.2-0.1,0.8,0,0.9,0.2c1.6,1.9,3.2,3.8,4.8,5.7
		C29.5,123.2,29.6,123.7,29.8,124.2z"/>
	<path class="st0" d="M477.1,381.6c-0.4,0.6-0.6,1-1,1.3c-0.2,0.1-0.8,0-0.9-0.2c-1.6-1.8-3.2-3.7-4.7-5.6c-0.2-0.3-0.4-0.7-0.4-1
		c0.1-0.6,0.3-1.2,0.5-1.7c0.5,0.2,1,0.3,1.3,0.6c1,0.9,2.1,1.8,2.9,2.8C475.7,379,476.3,380.3,477.1,381.6z"/>
	<path class="st1" d="M169.3,309.6c0.8-1.1,1.7-1.4,2.8-0.8c2.5,1.3,5,2.6,7.4,4c0.3,0.2,0.7,0.6,0.7,0.8c0,0.3-0.5,0.7-0.8,0.8
		c-0.5,0.1-1.1,0.2-1.6,0c-2.8-1.4-5.5-2.9-8.3-4.4C169.5,310,169.5,309.8,169.3,309.6z"/>
	<path class="st1" d="M344.3,294.1c-0.4,0.1-0.8,0.2-1.2,0.4c-2.7,1.4-5.4,2.9-8.1,4.3c-0.5,0.2-1.2-0.1-1.8-0.2
		c0.3-0.5,0.4-1.2,0.8-1.4c2.5-1.4,5.1-2.8,7.7-4.1c1-0.5,2-0.2,2.1,0.6C343.9,293.8,344.1,294,344.3,294.1z"/>
	<path class="st1" d="M335.1,302.6c0.6-0.2,1.1-0.6,1.7-0.6c4.5,0,9.1,0,13.6,0c0.2,0,0.4,0.1,0.7,0.5c-0.5,0.2-1.1,0.6-1.6,0.6
		c-4.6,0-9.3,0-13.9,0c-0.2,0-0.3-0.1-0.5-0.2C335.1,302.9,335.1,302.7,335.1,302.6z"/>
	<path class="st0" d="M64.4,124.4c0,1.8-0.6,3.3-2.1,4.4c-0.4,0.3-1.4,0.4-1.7,0.2c-0.3-0.4-0.5-1.2-0.3-1.8c0.3-1.2,1-2.3,1.4-3.5
		c0.3-0.9,0.6-1.6,1.7-1.4c1,0.2,1.1,1,1,1.8C64.4,124.2,64.4,124.3,64.4,124.4z"/>
	<path class="st0" d="M66.5,375.5c0,0.8,0.1,1.7-1,1.9c-1.1,0.2-1.4-0.6-1.7-1.5c-0.3-1.1-0.9-2.1-1.2-3.2c-0.2-0.7,0-1.4,0.1-2.1
		c0.7,0.1,1.4,0,1.9,0.4C66.1,372.1,66.5,373.7,66.5,375.5z"/>
	<path class="st0" d="M435.2,375.3c-0.1-1.6,0.5-3.1,1.9-4.2c0.5-0.3,1.2-0.3,1.8-0.4c0.1,0.7,0.3,1.5,0.2,2.1
		c-0.3,1.2-0.9,2.3-1.3,3.4c-0.3,0.8-0.6,1.4-1.6,1.3c-1-0.1-1.1-0.9-1.1-1.7C435.2,375.7,435.2,375.6,435.2,375.3z"/>
	<path class="st0" d="M433.1,124.4c0-0.6-0.1-1,0-1.2c0.3-0.4,0.7-1.1,1-1.1c0.5,0,1.2,0.4,1.4,0.8c0.7,1.3,1.2,2.7,1.6,4.1
		c0.2,0.5,0,1.4-0.3,1.7c-0.3,0.3-1.2,0.2-1.6-0.1C433.7,127.5,433,125.9,433.1,124.4z"/>
	<path class="st0" d="M18.7,128.8c1.1,0.2,2.2,0.4,3.1,0.8c0.4,0.2,0.8,1,0.7,1.5c-0.1,0.4-0.8,0.9-1.2,0.9c-1.5,0-3.1-0.1-4.6-0.3
		c-0.9-0.1-1.2-0.8-0.7-1.6C16.6,129.1,17.6,128.8,18.7,128.8z"/>
	<path class="st0" d="M481.1,371.1c-1.4-0.3-2.4-0.4-3.3-0.8c-0.4-0.2-0.9-1-0.8-1.4c0.1-0.4,0.8-1,1.3-1c1.5-0.1,3,0.1,4.5,0.2
		c0.9,0.1,1.3,1.2,0.6,1.9C482.7,370.6,481.7,370.8,481.1,371.1z"/>
	<path class="st0" d="M20.3,370.9c-0.6-0.3-1.4-0.7-2.1-1.3c-0.2-0.2-0.2-0.9-0.1-1.2c0.1-0.3,0.7-0.5,1-0.5
		c1.3-0.1,2.5-0.1,3.8-0.2c0.9-0.1,1.6,0,1.8,1c0.3,1-0.3,1.5-1.2,1.7C22.7,370.5,21.7,370.6,20.3,370.9z"/>
	<path class="st0" d="M478.7,128.6c1.1-0.1,2.1,0.1,2.7,1.1c0.2,0.3,0.3,0.9,0.1,1.2c-0.2,0.3-0.7,0.5-1.1,0.5
		c-1.2,0.1-2.4,0.1-3.6,0.2c-0.9,0.1-1.7,0-1.9-1c-0.3-1,0.4-1.4,1.2-1.6C476.9,128.9,477.8,128.8,478.7,128.6z"/>
	<path class="st1" d="M178.4,318.1c-0.7,0.3-1.2,0.7-1.7,0.7c-4.8,0.1-9.6,0-14.4,0c-0.1-0.1-0.1-0.3-0.2-0.4
		c0.4-0.2,0.9-0.7,1.3-0.7c4.8-0.1,9.5,0,14.3,0C177.9,317.7,178,317.8,178.4,318.1z"/>
	<path class="st0" d="M405.6,364.9c-0.4,0.3-1,1-1.6,1.1c-1,0.2-1.6-0.6-1.6-1.6c0-0.9,0.5-1.6,1.5-1.6
		C405,362.9,405.4,363.5,405.6,364.9z"/>
	<path class="st0" d="M99.6,363.9c-0.4,1.2-0.7,1.9-1.7,1.9c-1.1,0-1.6-0.6-1.6-1.6c0-1,0.6-1.8,1.6-1.6
		C98.4,362.8,99,363.5,99.6,363.9z"/>
	<path class="st0" d="M95.8,133.8c1,0.1,1.4,0.7,1.4,1.7c-0.1,1-0.6,1.5-1.6,1.5c-1,0-1.5-0.7-1.5-1.7
		C94.2,134.3,94.7,133.8,95.8,133.8z"/>
	<path class="st0" d="M401.9,136.8c-1-0.1-1.6-0.7-1.5-1.7c0-1,0.6-1.5,1.5-1.5c1.1,0,1.5,0.7,1.5,1.7
		C403.4,136.2,402.8,136.7,401.9,136.8z"/>
	<path class="st1" d="M183.5,252.4c0.1,0.3,0.3,0.6,0.4,0.9c0.1,0.1,0.2,0.2,0.4,0.3c0.9-2.3,1.6-4.6,2.7-6.7
		c0.4-0.9,1.3-1.8,2.3-2.3c1.3-0.7,2.7-0.2,3.8,0.8c1,1,0.9,2.2,0.5,3.4c-2.4,6.7-4.8,13.3-7.2,20c-1.2,3.3-2.3,6.6-2.4,10.2
		c-0.1,3.6,1.7,5.1,5.3,4.4c2.1-0.4,3.9-1.5,5.2-3.1c1.8-2.3,3.5-4.6,5.1-7.1c2.1-3.1,4.1-6.4,6.1-9.6c0.3-0.5,0.5-1.2,0.7-1.8
		c1.8-5.5,3.6-11,5.4-16.5c0.5-1.7,2.1-2.5,3.8-2.1c2,0.5,3.2,2.2,2.7,4.1c-0.8,3.1-1.8,6.1-2.8,9.1c-1.5,4.8-3,9.6-4.3,14.5
		c-0.4,1.5-0.3,3.3,0,4.9c0.6,3.3,3.1,4.8,6.2,3.4c1.8-0.8,3.4-2.1,4.7-3.6c2.9-3.1,4.8-7,6.4-10.9c2.5-5.9,4.7-11.8,7.1-17.7
		c0.8-2,1.7-4,2.6-6c0.9-1.9,2.7-2.5,4.6-1.7c1.9,0.8,2.5,2.5,1.6,4.5c-3.5,8.3-6.2,16.8-8.3,25.5c-0.4,1.9-0.5,4-0.4,6
		c0.1,2.9,1.8,3.9,4.2,2.4c2.2-1.3,4.4-2.9,6-4.8c3-3.4,5.7-7.1,8.4-10.7c0.4-0.5,0.5-1.2,0.6-1.8c2.1-7.4,4.2-14.8,6.4-22.1
		c0.2-0.8,0.8-1.6,1.5-2.2c1.2-1,3-0.8,4.2,0.1c1.1,0.8,1.5,2.1,0.9,3.7c-1.2,3.7-2.4,7.5-3.5,11.2c-0.1,0.4-0.2,0.9-0.2,1.4
		c0.5-0.7,0.9-1.4,1.4-2.1c3-4,5.8-8.1,9-11.8c1.7-2,3.9-3.7,6.2-5.1c3.7-2.2,7.4-1.3,10.2,1.9c2.8,3.2,3.4,7.1,2.9,11.1
		c-0.5,4.4-2,8.5-3.6,12.6c-1.4,3.7-2.6,7.4-3.8,11.1c-0.3,1-0.2,2.3,0.1,3.3c0.4,1.5,1.4,1.7,2.5,0.6c1.7-1.7,3.3-3.5,4.9-5.3
		c2.8-3.4,5.5-6.8,8.2-10.2c0.3-0.4,0.6-0.9,0.7-1.4c1.5-8.3,5.5-15.4,10.3-22c2.3-3.2,5.1-5.9,8.5-8c2.4-1.4,4.9-2.3,7.7-2.5
		c2.3-0.1,4.3,0.8,6.3,2c0.2,0.1,0.5,0.3,0.8,0.5c1.1-2.9,2.1-5.7,3.3-8.4c3.4-7.7,6.8-15.3,10.2-22.9c1-2.3,2.7-3,4.6-2
		c1.9,1,2.5,3,1.4,5.1c-6.6,13.2-12,26.9-16.9,40.8c-1.7,4.9-3.1,9.8-3.6,14.9c-0.2,2.4,0.2,4.6,1.4,6.7c1.6,2.8,4,3.1,6.2,0.7
		c1-1,1.8-2.2,2.5-3.4c4.3-8.4,8.6-16.9,12.7-25c-0.6-0.7-1.1-1.4-1.6-2.1c-1.6-1.9-2.1-4.1-1.5-6.5c1-4.7,5.5-8.9,10.2-9.3
		c2.1-0.2,3.6,0.9,4,3c0.5,2.6,0.3,5.3-0.4,7.8c-0.1,0.5-0.3,0.9-0.4,1.4c2.9,0.2,5.8,0.2,8.6,0.5c1.7,0.2,3.4,0.8,4.9,1.5
		c3.2,1.7,4.4,4.9,3.2,8.3c-0.5,1.6-1.3,3.1-2.2,4.5c-1.4,2.3-3,4.5-4.2,6.8c-0.8,1.5-1.4,3.2-1.6,4.8c-0.3,2,0.8,3.1,2.8,3.3
		c2.6,0.2,5-0.4,7-1.9c2.4-1.9,4.7-4,6.8-6.2c1.9-2.1,3.5-4.5,4.9-6.9c0.7-1.1,0.7-2.6,0.9-3.9c1.2-8.1,4.4-15.4,8.8-22.3
		c1.1-1.7,3.1-2,4.8-0.9c1.6,1,2,2.8,0.9,4.6c-3.9,6.1-6.7,12.7-7.7,19.9c-0.3,2.4-0.4,4.9-0.1,7.3c0.5,3.8,3.2,5.1,6.7,3.5
		c1.3-0.6,2.6-1.5,3.7-2.5c4.2-3.9,7.7-8.4,10.7-13.2c0.9-1.4,1.3-3.2,2.1-4.7c2.8-5.7,5.6-11.3,8.5-16.9c0.9-1.7,2.2-2.3,3.8-2
		c2.3,0.4,3.4,2.4,2.6,4.6c-2.5,6.5-5.4,13-9.1,18.9c-1.8,2.8-3.1,5.8-4,8.9c-1.2,3.9-2.3,7.7-3.6,11.9c6.1-2.7,11.4-5.8,16-10.1
		c3.1-2.9,5.8-6.1,7.7-10c1.7-3.7,2.3-7.4,1.2-11.4c-0.6-2,0.3-3.6,2.3-4.1c1.9-0.6,3.7,0.3,4.3,2.3c1.6,5.2,1,10.3-1.2,15.2
		c-3.2,7.3-8.6,12.7-14.8,17.3c-5.1,3.7-10.6,6.5-16.5,8.7c-1,0.4-1.5,0.9-1.8,1.9c-2.4,7.1-5.9,13.5-11.1,18.9
		c-2.6,2.8-5.6,5.1-9.3,6.3c-7.3,2.4-15.6-2.3-16.9-9.7c-0.7-4,0.6-7.5,3.3-10.4c2.6-2.9,5.9-4.8,9.5-5.9c4.7-1.5,9.4-2.7,14.1-4.1
		c1.4-0.4,2.8-1,4.3-1.4c0.8-0.2,1.2-0.7,1.4-1.5c0.3-1.3,0.7-2.5,1.2-4.1c-0.9,0.7-1.5,1.2-2.2,1.7c-3,2.1-6.2,3.5-9.9,3.1
		c-3.4-0.4-5.9-2.1-7.7-5c-0.3-0.5-0.6-1-0.8-1.5c-1.8,2-3.5,4.1-5.5,5.9c-3.5,3.4-7.5,6-12.6,6.6c-3.4,0.4-6.5-0.4-9.1-2.5
		c-3.2-2.5-4.5-5.9-3.2-9.8c0.9-2.7,2.4-5.3,3.8-7.8c1-2,2.3-3.8,3.2-5.9c1-2.4,0.4-3.4-2.2-3.6c-3.1-0.2-6.2-0.2-9.3-0.1
		c-0.4,0-0.9,0.6-1.1,1.1c-3.7,7.1-7.2,14.3-11,21.4c-1.6,3.1-3.6,6-5.7,8.8c-1.1,1.5-2.6,2.7-4.2,3.7c-2.7,1.7-5.5,1.6-8.3,0
		c-3.3-1.9-5.4-4.8-6.5-8.6c-0.3,0.4-0.5,0.7-0.7,1c-1.8,2.6-3.4,5.3-5.3,7.8c-2.6,3.3-5.9,5.3-10.3,5.5c-4.2,0.2-7.3-1.8-9-5.6
		c-0.2-0.4-0.3-0.8-0.5-1.4c-1.8,2.1-3.5,4.1-5.3,6c-1.6,1.7-3.2,3.5-5,5.1c-2.3,2-5,2.9-8.1,2.2c-2.8-0.6-4.6-2.7-5.2-5.8
		c-0.6-3.6-0.1-7.1,1-10.5c1.2-3.7,2.7-7.3,4.1-11c1.4-3.6,2.4-7.2,2.1-11c-0.1-1.3-0.1-2.9-1.6-3.3c-1.6-0.5-2.9,0.2-4.1,1.4
		c-8.2,8.4-14,18.3-18.8,28.9c-1.5,3.4-3,6.8-4.5,10.2c-0.6,1.4-2.1,2.2-3.6,1.9c-1.7-0.4-3-2.2-2.9-4c0-0.6,0.2-1.2,0.3-2.1
		c-0.9,0.9-1.5,1.7-2.2,2.4c-2.6,2.6-5.3,5-8.9,6.1c-5.8,1.8-10-0.5-11.6-6.3c-0.1-0.2-0.1-0.5-0.2-1c-0.7,0.9-1.3,1.7-2,2.4
		c-2.3,2.8-5.1,5-8.6,5.9c-5.9,1.6-10.6-0.8-12.8-6.5c-0.2-0.5-0.3-0.9-0.6-1.6c-0.4,0.5-0.7,0.9-1,1.4c-2.2,3.1-4.5,6-7.6,8.3
		c-4.9,3.6-9.8,3.9-14.6,0.7c-2.3-1.5-3.8-3.6-4.3-6.4c-0.1-0.3-0.2-0.6-0.2-0.8c-1.7,2.3-3.3,4.7-5.2,6.9c-2.4,2.9-5.4,5.2-9.2,6.1
		c-5.6,1.3-10.1-0.8-12.8-6.5c-0.4,0.6-0.5,1.1-0.9,1.4c-3.7,3.9-7.8,7.4-12.7,9.8c-7,3.4-14.2,3.8-21.3,0.3
		c-2.4-1.2-4.9-2.5-7.3-3.7c-0.7-0.3-1.4-0.7-2-1.1c-1.1,1.8-2.2,3.6-3.3,5.3c-1.9,2.8-4.1,5.3-6.9,7.1c-2.8,1.8-5.8,2.9-9.2,2.3
		c-7.4-1.4-10.9-9.7-7-16.5c2.4-4.1,6.2-6.3,10.7-7.4c4.1-1,8.1-0.9,12.2,0.5c3.6-8.1,5.7-16.6,8.2-24.9c-2.5-0.4-5-0.6-7.3-1.4
		c-2.7-0.9-5.6-1.9-7.9-3.5c-10.6-7.1-9.4-22.7,2-28.5c1.9-0.9,3.8-0.4,4.8,1.4c1,1.8,0.4,3.4-1.5,4.6c-4.4,2.6-6.5,6.9-5.4,11.3
		c0.6,2.5,2.1,4.3,4.1,5.7c3.9,2.6,8.2,3.3,12.8,3.3c0.4,0,0.9-0.7,1-1.1c2-5.6,4.3-11,7.4-16.1c3.1-5,6.7-9.5,11.5-13
		c4.1-3,8.7-5,14-4.6c7,0.5,11.9,6.9,10.8,13.8c-0.7,4.5-3,8.3-6,11.6c-8.3,9.2-18.7,14.4-31,15.9c-1.7,0.2-2.3,0.8-2.8,2.4
		c-2.5,8.7-4.8,17.4-8.5,25.9c5,2.8,9.7,6,15.6,6.3c3.9,0.2,7.4-0.9,10.7-2.7c4.5-2.6,8.1-6.3,11.6-10.1c2.2-2.4,3.6-5,4.5-8.2
		c2.2-7.9,6.1-15.1,11.9-21.1c2.4-2.5,5.2-4.5,8.7-5.1C176.1,247,180.2,248.6,183.5,252.4L183.5,252.4z M119.6,253.6
		c10.6-1.8,19.4-6.2,26.2-14.3c1.4-1.7,2.7-3.7,3.4-5.8c1.6-4.8-2-8.6-7-7.6c-2.7,0.5-5,1.9-7.1,3.6
		C127.5,235.8,123.1,244.2,119.6,253.6z M308.5,262.2c0.3,1.7,0.5,3.1,0.9,4.4c0.7,2,2.9,2.9,4.8,1.9c1.2-0.7,2.4-1.6,3.3-2.6
		c1.6-1.9,3.2-3.8,4.4-5.9c3.1-5.8,6-11.6,8.8-17.5c1-2,1.5-4.3,2-6.5c0.6-2.7-1.4-4.7-4.2-4.2c-3.7,0.7-6.3,3.1-8.6,5.9
		c-4.2,5.1-7.4,10.9-9.7,17.1C309.3,257.1,309,259.8,308.5,262.2z M178.2,260.8c0.2-4.9-2.6-7.2-6.1-6.2c-1.2,0.3-2.5,1-3.5,1.8
		c-1.3,1.1-2.5,2.4-3.6,3.7c-3.3,4.4-5.8,9.2-7.7,14.4c-0.8,2.2-1.3,4.6-1.7,7c-0.4,2,0,4,1.8,5.3c1.7,1.2,3.5,0.6,5.2-0.3
		c1.2-0.7,2.4-1.5,3.4-2.5c1.3-1.4,2.6-2.9,3.6-4.6c2.3-4,4.5-8.1,6.5-12.3C177.2,264.8,177.8,262.2,178.2,260.8z M416.9,267
		c-1.3,0.4-2.3,0.7-3.3,1c-4.1,1.2-8.3,2.4-12.4,3.8c-2.3,0.8-4.4,2-5.8,4.1c-2.3,3.5-0.9,7.2,3.2,8.2c3.2,0.8,5.8-0.4,8.2-2.3
		C411.6,278.1,414.4,272.9,416.9,267z M98.9,291.9c-3.8-1.1-7.2-0.8-10.5,1c-2.1,1.1-3.5,2.9-4.1,5.2c-0.7,2.7,1.8,5.2,4.5,4.5
		c0.9-0.2,1.7-0.7,2.4-1.2C94.5,299,96.7,295.5,98.9,291.9z"/>
	<path class="st2" d="M289.3,272.2c-0.4-0.3-0.7-0.5-1-0.8c0.1-0.2,0.2-0.4,0.4-0.6c3.5-4.3,7.1-8.5,10.6-12.9
		c0.5-0.7,0.9-1.6,1-2.4c2.2-11.8,7.6-21.7,16.9-29.2c4-3.3,8.7-4.7,13.9-3.7c1.1,0.2,2.1,0.6,3.2,0.9c4.5-9.9,8.9-19.7,13.4-29.7
		c0.4,0.2,0.8,0.3,1.3,0.5c-4.7,10.4-9.3,20.7-13.9,30.8c-2.2-0.5-4.1-1.2-6.2-1.4c-4.5-0.4-8.4,1.4-11.7,4.3
		c-8.6,7.4-13.7,16.8-15.6,28c-0.2,0.9-0.6,1.8-1.1,2.5C296.8,263.2,293.1,267.6,289.3,272.2z"/>
	<path class="st2" d="M183.5,252.4c-1-3.8-4.2-6.3-8.3-6.5c-6.9-0.4-12.5,2.3-16.7,7.6c-4.8,6-8.6,12.7-10.1,20.3
		c-0.6,3.2-2.2,5.5-4.2,7.7c-4,4.4-8.4,8.2-14.2,10.1c-6.1,2-11.8,1.4-17-2.7c-0.2-0.2-0.5-0.4-0.8-0.6c0.5-0.4,0.7-0.7,1.1-1
		c4.1,3.6,8.8,4.6,14,3.6c3.6-0.7,6.7-2.4,9.6-4.6c3.4-2.6,6.4-5.7,8.9-9.2c0.3-0.4,0.5-1,0.6-1.6c1.8-9.4,6-17.6,12.4-24.6
		c4.8-5.2,10.9-7.4,18.1-6.2c2.5,0.4,4.5,1.8,6.3,3.9c0.6-1.6,1.1-3,1.6-4.5c0.4,0.1,0.8,0.2,1.3,0.4
		C185.3,247.2,184.4,249.8,183.5,252.4L183.5,252.4z"/>
	<path class="st2" d="M103.1,236.6c0.2,0.4,0.3,0.7,0.5,1.1c-0.1,0.1-0.2,0.3-0.3,0.3c-4.1,2.5-3,9,1.2,10.7
		c0.2,0.1,0.4,0.2,0.6,0.3c3.7,1.4,4,1.3,5.6-2.2c3.1-7,6.6-13.8,11.3-19.9c4.6-5.9,10.5-9.9,18-11.2c0.5-0.1,1.1-0.1,1.7-0.2
		c0,0.4,0.1,0.8,0.1,1.2c-0.2,0.1-0.2,0.2-0.3,0.2c-7.7,0.9-13.7,4.8-18.4,10.8c-5.2,6.7-8.9,14.2-12.2,22c-0.5,1.3-1.1,1.7-2.5,1.5
		c-2.3-0.4-4.5-0.9-6.3-2.3C98,245.7,98.4,239.1,103.1,236.6z"/>
	<path class="st2" d="M340.5,262.9c-0.4-0.8-0.6-1.1-0.8-1.5c0.1,0.1,0.3,0.1,0.4,0.2c2.2-4.1,4.6-8.2,6.7-12.3
		c2.3-4.6,4.4-9.4,6.7-14c0.3-0.7,0.4-1.1-0.2-1.7c-1.4-1.3-1.7-3.1-1.6-4.9c0.2-4.2,1.4-8.1,4.1-11.4c2.4-3.1,5.6-4.6,9.7-4.6
		c0,0.5,0,0.8,0,1.2c-0.2,0.1-0.3,0.2-0.4,0.2c-4.2,0.2-7.2,2.2-9.3,5.8c-1.5,2.6-2.4,5.5-2.6,8.5c-0.2,2.6,0.6,4,2.8,5.3
		C351,243.3,347,253.5,340.5,262.9z"/>
	<path class="st2" d="M382.2,256.5c-0.1-0.4-0.2-0.8-0.3-1.2c6.5-2.4,10.2-7.6,13.4-13.1c0.7-1.3,0.7-3,0.9-4.5
		c1-8.4,4.9-15.7,9.1-23c0.4,0.2,0.7,0.4,1.1,0.6c-0.1,0.3-0.2,0.5-0.3,0.8c-2.2,4.5-4.7,8.8-6.5,13.5c-1.4,3.7-1.7,7.7-2.6,11.5
		c-0.1,0.5-0.2,1.1-0.4,1.6c-2.2,3.9-4.9,7.6-8.4,10.5C386.5,254.7,384.5,255.9,382.2,256.5z"/>
	<path class="st2" d="M435.4,211.3c0.4,0.2,0.7,0.4,1.1,0.6c-0.2,0.5-0.5,0.9-0.7,1.4c-3.5,7-7,14.1-10.5,21.1
		c-3.2,6.4-7.4,11.8-13.7,15.3c-0.3,0.2-0.6,0.3-1,0.5c-0.2,0.1-0.4,0.2-0.8,0.3c-0.2-0.4-0.4-0.8-0.6-1.2
		c7.6-3.8,12.2-10.1,15.6-17.5c3.1-6.8,6.7-13.3,10-20C435.1,211.8,435.2,211.6,435.4,211.3z"/>
	<path class="st2" d="M283.6,241c2.2,1.4,2.5,3.6,2.1,5.8c-0.4,2.1-1.2,4.1-2,6.1c-1.9,5.1-4.1,10.2-5.8,15.4
		c-0.7,2-0.8,4.2-0.7,6.3c0.1,3.8,2,6.4,5.6,7.8c0.8,0.3,1.3,0.6,0.8,1.5c-3.3-0.2-6.7-3.4-7.5-7.2c-0.9-4-0.1-7.8,1.3-11.5
		c1.6-4.3,3.5-8.5,5.1-12.8c0.7-1.9,1.4-3.7,1.9-5.7c0.4-1.5,0.2-3-0.9-4.4c-0.3-0.3-0.1-0.9-0.2-1.4
		C283.3,241.1,283.5,241,283.6,241z"/>
	<path class="st2" d="M258,237.2c0.5,0.1,0.8,0.2,1.3,0.4c-0.7,2.6-1.5,5.2-2.2,7.7c-1.1,3.8-2.4,7.6-3.4,11.5
		c-1.5,5.8-4.8,10.5-8.5,15.1c-1.7,2.1-3.7,3.7-6.4,4.6c-0.1-0.5-0.2-0.8-0.4-1.3c3.3-1.2,5.4-3.7,7.4-6.3
		c3.8-4.9,6.2-10.5,7.8-16.5c1.2-4.7,2.7-9.3,4.1-14C257.7,238,257.9,237.7,258,237.2z"/>
	<path class="st2" d="M373.9,238c-2.9-1-5.7-0.5-8.5-0.3c-0.1-0.4-0.1-0.8-0.2-1.3c2.8-0.4,5.6-0.6,8.3,0.1c1.5,0.4,2,1.4,1.3,2.8
		c-0.8,1.7-1.7,3.2-2.5,4.8c-1.9,3.5-3.7,7.1-4.3,11.1c-0.7,5,1.5,8.6,6.2,10c0.9,0.3,0.8,0.7,0.6,1.4c-3.6,0-7.3-3.3-8.1-7.2
		c-0.7-3.6,0.1-7,1.5-10.2c1.2-2.7,2.7-5.4,4.1-8C372.8,240.2,373.3,239.2,373.9,238z"/>
	<path class="st2" d="M234.5,240.8c0.5,0.2,0.8,0.3,1.1,0.4c0,0.1,0.1,0.2,0.1,0.3c-2.7,7-5.3,14.1-8.1,21.1
		c-1.8,4.3-4.2,8.4-7.5,11.8c-1.5,1.6-3.2,2.9-5.5,3.5c-0.1-0.5-0.2-0.8-0.3-1.2c3.8-1.4,6-4.4,8.1-7.5c3.3-4.9,5.3-10.4,7.4-15.9
		C231.3,249.2,232.9,245.1,234.5,240.8z"/>
	<path class="st2" d="M209.1,244.2c0.3,0,0.4,0,0.6,0.1c0.2,0.1,0.4,0.2,0.7,0.3c-0.8,1.9-1.5,3.8-2.2,5.7c-2.6,6.4-4.6,13.2-8.5,19
		c-2.1,3.2-4.4,6.2-6.8,9.2c-1,1.2-2.6,2-4.2,3.1c-0.3-0.7-0.4-1.1-0.5-1.4c0.1-0.2,0.2-0.3,0.2-0.3c1.6-1.3,3.5-2.3,4.9-3.9
		c5-5.8,8.5-12.5,11.1-19.7C205.9,252.2,207.5,248.2,209.1,244.2z"/>
	<path class="st2" d="M80.8,286.4c-0.3-0.1-0.4-0.2-0.6-0.3c-0.1-0.1-0.3-0.2-0.4-0.3c0-0.1,0-0.3,0.1-0.4c2.1-3,5.2-4.2,8.7-4.8
		c3.9-0.6,7.7-0.1,11.5,0.6c2-5.8,4-11.5,5.9-17.2c0.6,0.2,0.9,0.4,1.3,0.5c-2.1,6.1-4.1,12.2-6.2,18.3c-2-0.3-4.1-0.7-6.2-0.8
		c-2.4-0.1-4.9,0-7.3,0.4C84.8,282.6,82.5,284,80.8,286.4z"/>
	<path class="st2" d="M431.9,252.1c-0.2-0.2-0.3-0.4-0.4-0.5c-0.1-0.2-0.2-0.4-0.2-0.5c3.4-2.5,6.8-4.9,9.9-7.6
		c2.3-2,4.4-4.2,6.2-6.6c2-2.6,3.1-5.6,2.5-8.9c-0.2-1.2-0.8-2.3-1.2-3.6c0.1-0.1,0.4-0.4,0.8-0.7c2,2.6,2.4,5.5,1.6,8.4
		c-0.5,1.9-1.3,3.8-2.4,5.5C444.3,243.8,438.1,248,431.9,252.1z"/>
	<path class="st2" d="M327.4,232.5c2.4,0.3,3.8,1.6,3.7,3.7c-0.1,1.8-0.5,3.6-1.2,5.3c-3,7.2-6.8,13.9-11.2,20.3
		c-1.7,2.5-4.1,4.4-6.9,5.7c-0.2-0.5-0.3-0.8-0.4-1.3c4.2-1.9,6.8-5.4,8.9-9.2c2.8-5.1,5.5-10.3,8.2-15.5c0.6-1.2,0.9-2.5,1.2-3.7
		c0.4-1.8-0.1-2.7-1.6-3.7C327.7,233.7,327.7,233.1,327.4,232.5z"/>
	<path d="M173.7,255.6c2.3,1.3,2.7,3.1,2.5,5.1c-0.1,1-0.4,2.1-0.8,3c-2.9,6.8-6.4,13.3-11,19.1c-0.8,1-1.7,1.8-2.6,2.6
		c-0.6,0.5-1.4,0.6-2.1,0.9c-0.1-0.2-0.2-0.3-0.3-0.5c0.4-0.4,0.8-0.8,1.2-1.1c0.8-0.7,1.6-1.2,2.3-1.9c5-6,8.7-12.8,11.6-20
		c0.7-1.8,1.2-3.8-0.5-5.5C173.5,257,173.7,256.3,173.7,255.6z"/>
	<path d="M95,293.4l-0.1-0.1c-1,1.4-2.1,2.8-3.2,4.2c-0.6,0.8-1.5,1.3-2.3,1.9c-0.4,0.4-0.8,0.8-1.2,1.1c0.1,0.2,0.2,0.3,0.3,0.5
		c0.7-0.3,1.6-0.4,2.1-0.9c1-0.7,1.9-1.6,2.6-2.6c0.9-1.1,1.7-2.3,2.5-3.5C95.6,294.1,95.2,293.8,95,293.4z"/>
	<path class="st2" d="M396.2,277.9c0.3,0.4,0.7,0.8,0.8,1.3c0.2,1.1,0.9,1.6,1.9,1.9c2,0.6,4.1,0.5,5.7-0.9c1.8-1.6,3.6-3.3,5.1-5.2
		c1.5-1.8,2.6-3.8,3.9-5.9c0.3,0.2,0.6,0.3,1.1,0.6c-2.6,4.5-5.2,8.8-9.4,11.7c-2.2,1.5-4.7,1.7-7.2,0.9c-2-0.7-2.7-2-2.4-4.1
		C396,278.1,396.1,278,396.2,277.9z"/>
	<path class="st1" d="M93.5,191.7c0.6,0,0.9,0,1.3,0.1c1.9,0.1,3.2,1,3.8,2.6c0.7,1.7,0.6,3.4-0.3,5.1c-1.2,2.3-2.9,4.2-5,5.8
		c-1.9,1.5-4,2.9-5.9,4.3c-1,0.7-1.8,1.6-2.7,2.4c-0.2,0.2-0.3,0.5-0.5,0.7c-0.1,0.2,0.1,0.6,0.4,0.7l0.4,0.1c2.5,0,5.1-0.2,7.5-1
		c0.9-0.3,1.9-0.7,2.8-1.1c1.3-0.6,2.5-1.5,2.7-2.9l0-0.2c0.1-0.4,0.3-0.8,0.9-0.8c0.6-0.1,1,0.2,1.3,0.6c0.8,1.1,0.7,2.2-0.3,3.2
		c-1,0.9-1.9,1.8-3.4,2.1c-0.7,0.1-1.3,0.5-1.9,0.8c-1.2,0.7-2.5,1-3.9,1.2c-1.3,0.2-2.6,0.5-3.9,0.6c-1.4,0.1-2.8-0.1-4.2-0.1
		c-1.8,0-3.6-0.3-5.3-0.1c-2.1,0.2-4.3,0.6-6,1.9c-0.5,0.3-0.9,0.8-1.3,1.2c-0.4,0.4-0.8,0.9-1.3,1.2c-0.8,0.6-1.9,0.1-2-0.8
		c0-0.4,0.1-0.9,0.3-1.3c0.9-1.8,2.2-3.2,3.9-4.4c2.6-1.9,5.1-3.8,7.6-5.7c1.1-0.8,2.2-1.8,3.3-2.6c1.5-1.1,3.1-2.1,4.6-3.1
		c0.8-0.5,1.6-1.2,2.2-1.9c0.3-0.4,0.7-0.7,1-1c0.5-0.7,1-1.3,1.5-2c0.3-0.5,0.3-1.1,0.1-1.7c-0.2-0.7-0.9-1.2-1.7-1.1
		c-1.7,0.1-3.1,1-4.3,2.1c-0.2,0.2-0.3,0.6-0.4,1c-0.3,1.7-1.4,3.1-2.4,4.5c-0.7,1-3.1,1.2-4.1,0.3c-0.5-0.4-0.8-0.9-0.8-1.5
		c0.1-1,0.2-2,0.4-2.9c0.1-0.5,0.5-1,0.8-1.4c1.7-2,4-3.3,6.6-4.3c0.5-0.2,1-0.3,1.5-0.3C89,191.8,91.3,191.2,93.5,191.7z"/>
	<path class="st1" d="M127,198.6c0,1.8-1,3.4-2.2,4.8c-1.8,2.2-4.2,3.8-6.8,5.2c-1.5,0.8-3.1,1.2-4.9,0.6c-0.3-0.1-0.7-0.1-1.1-0.1
		c-1.7,0-3.1-0.6-4.4-1.5c-0.9-0.6-1.4-1.5-1.7-2.5c-0.1-0.4-0.2-0.8-0.3-1.2c-0.3-2.1,1.3-3.6,3.5-3.4c1,0.1,1.8,0.3,2.6,1
		c2.2,1.9,5,2.2,7.8,2.3c0.7,0,1.2-0.3,1.7-0.6c1.3-0.9,1.9-2.1,2.6-3.3c0.6-1.1,0.6-2.2,0.5-3.4c-0.1-0.9-0.7-1.5-1.7-1.7
		c-0.5-0.1-1.1-0.3-1.7-0.2c-1.4,0.2-2.8,0.2-4.1,0.5c-2.2,0.4-4.2,1-5.8,2.4c-1,0.8-3,0.3-3.4-1c-0.2-0.7-0.4-1.4-0.2-2.1
		c0.4-1.2,0.8-2.3,1.3-3.4c0.4-1,1-1.9,1.4-2.8c0.1-0.2,0.2-0.3,0.2-0.5c0.2-0.5,0-0.9-0.6-1.1c-0.5-0.2-1.1-0.3-1.6-0.5
		c-0.7-0.3-1.5-0.7-2.1-1.1c-0.4-0.3-0.5-0.8-0.3-1.1c0.2-0.3,0.7-0.5,1.2-0.4c0.2,0.1,0.4,0.1,0.5,0.2c1.2,0.8,2.6,0.9,4,1
		c0.7,0,1.4,0,2.1,0.2c1.9,0.3,3.8,0.1,5.7,0.2c0.5,0,1-0.1,1.5-0.2c2.8-0.7,5.8-0.7,8.7-1c0.8-0.1,1.6-0.1,2.4-0.3
		c0.8-0.1,1.6-0.1,2.5,0.1c0.7,0.2,1.3,0.6,1.5,1.2c0.3,0.7-0.3,1.5-1.1,1.4c-2.8-0.5-5.6,0-8.3,0c-1.7,0-3.4,0.3-5.1,0.5
		c-2.6,0.4-3.5,1.3-3.7,3.8c0,0.2,0,0.3,0,0.5c0,1.1,0.3,1.7,1.9,1.5c1-0.1,2-0.1,3-0.1c0.8,0,1.5,0.2,2,0.8
		c0.2,0.3,0.5,0.5,0.8,0.7c1.3,0.9,1.7,2.1,1.7,3.5C127.1,197.7,127,198.1,127,198.6z"/>
	<path class="st1" d="M140,203.4c0-0.4,0.1-0.5,0.1-0.6c0.1-1.3,0.6-1.5-1.3-2.2c-0.7-0.3-1.2-0.9-1.6-1.5c-0.2-0.2-0.2-0.5-0.4-0.7
		c-0.8-0.8-0.8-1.7-0.8-2.6c0-1.1,0.2-2.3,0.6-3.3c0.1-0.3,0.3-0.6,0.4-0.8c0.7-1.1,1.6-2.1,2.7-3c0.9-0.8,1.9-1.6,3.1-2.1
		c0.3-0.1,0.5-0.4,0.7-0.7c0.3-0.5,0.5-1,0.5-1.5c0-0.3,0.1-0.6,0.2-0.9c0.1-0.2,0.3-0.4,0.5-0.4c0.3,0,0.6,0.1,0.7,0.4
		c0.1,0.3,0.1,0.5,0.1,0.8c0,0.3-0.2,0.7-0.2,1c-0.1,0.5,0.1,0.7,0.6,0.9c0.2,0.1,0.4,0.1,0.6,0.2c0.7,0.2,1.3,0.6,1.7,1.2
		c0.6,0.8,0.7,1.6,0.1,2.4c-0.4,0.7-1,1-1.9,0.9c-0.4,0-0.8-0.1-1.3-0.1c-0.9-0.1-1.1,0-1.4,0.9c-0.1,0.5-0.2,1-0.2,1.5
		c-0.1,0.6-0.1,1.2-0.2,1.7c-0.1,0.9-0.3,1.8-0.4,2.7c-0.1,0.3,0.1,0.6,0.4,0.8c0.3,0.2,0.7,0.2,1,0c0.3-0.2,0.5-0.4,0.8-0.6
		c0.8-0.7,1.7-1.3,2.3-2.2c0.1-0.1,0.2-0.2,0.3-0.4c0.2-0.2,0.5-0.3,0.8-0.2c0.4,0.1,0.5,0.4,0.6,0.7c0,0.2,0,0.3-0.1,0.5
		c-0.3,0.7-0.4,1.5-0.8,2.2c-0.6,1-1.4,1.9-2.6,2.3c-0.6,0.2-1.2,0.4-1.8,0.6c-0.8,0.2-1.2,0.5-1.4,1.2c-0.1,0.5-0.2,0.9-0.3,1.4
		c-0.1,0.3-0.1,0.6-0.1,0.9c-0.1,0.6-0.7,0.9-1.3,0.9c-0.5-0.1-0.9-0.6-0.8-1.2c0-0.2,0.1-0.3,0.1-0.5
		C139.9,203.7,140,203.4,140,203.4z M141.8,191.2c-0.3,0.1-0.4,0.2-0.5,0.3c-1,1.3-1,2.8-0.8,4.4l0.2,0.3c0.1,0.1,0.3,0.2,0.4,0.2
		c0.1,0,0.2-0.2,0.3-0.3l0.1-0.2c0.2-1.4,0.3-2.8,0.5-4.2C142,191.6,141.9,191.5,141.8,191.2z"/>
</g>
</svg>
