<?xml version="1.0" encoding="utf-8"?>
<!-- Generator: Adobe Illustrator 14.0.0, SVG Export Plug-In . SVG Version: 6.00 Build 43363)  -->
<!DOCTYPE svg PUBLIC "-//W3C//DTD SVG 1.1//EN" "http://www.w3.org/Graphics/SVG/1.1/DTD/svg11.dtd">
<svg version="1.1" id="Layer_1" xmlns="http://www.w3.org/2000/svg" xmlns:xlink="http://www.w3.org/1999/xlink" x="0px" y="0px"
	 width="960px" height="560px" viewBox="0 0 960 560" enable-background="new 0 0 960 560" xml:space="preserve">
<g>
	<path fill-rule="evenodd" clip-rule="evenodd" fill="#7C7C7C" d="M620.705,285.588c-4.748-3.073-10.198-5.256-15.596-6.897
		c-6.741-2.05-13.763-3.183-20.779-3.717c-7.441-0.567-14.839-0.099-22.272,0.329c-0.628,0.07-1.374-0.679-1.496-1.376
		c-1.478-5.775-1.465-11.804-0.992-17.71c0.509-6.354,1.687-12.556,2.915-18.799c0.613-3.118,1.217-6.238,1.806-9.36
		c0.608-3.229,1.354-6.481,1.651-9.757c0.479-5.254-0.196-10.842-3.625-15.043c-3.337-3.98-8.344-5.866-12.716-5.232
		c-3.088,0.451-5.926,1.985-8.146,4.15c-2.383,2.323-3.787,5.245-5.268,8.181c-3.217,6.377-6.014,12.952-8.934,19.467
		c-1.672-4.812-0.463-10.761-4.397-14.612c-1.718-1.584-4.081-2.307-6.38-2.399c-1.682-0.067-3.414,0.105-4.711,1.29
		c-1.328,1.431-1.822,3.235-1.958,5.14c-0.145,2.02-0.245,4.042-0.4,6.061c-0.181,2.333-0.376,4.666-0.527,7.002
		c-0.075,1.167-0.141,2.334-0.187,3.503c-0.047,1.195-0.664,2.493-1.025,3.632c-1.424,4.492-2.949,8.953-4.673,13.339
		c-0.856,2.181-1.762,4.343-2.724,6.479c-0.843,1.873-1.777,3.443-3.466,4.685c-0.706,0.384-1.568,0.154-2.097-0.69
		c-0.851-1.417-1.172-3.178-1.255-4.804c-0.125-2.463-0.243-4.926-0.282-7.392c-0.08-4.875,0.329-9.744,0.666-14.604
		c0.341-4.896,0.709-9.789,1.018-14.686c0.158-2.513,0.301-5.026,0.416-7.541c0.102-2.226-0.355-4.541-1.877-6.25
		c-2.089-2.144-4.465-2.771-6.685-2.882c-2.357-0.013-4.421,1.714-5.682,3.56c-1.394,2.04-1.925,4.478-2.579,6.828
		c-1.545,5.55-2.759,11.183-4.102,16.783c-1.333,5.56-2.794,11.084-4.869,16.419c-1.691,4.348-3.711,9.41-7.558,12.31
		c-0.457,0.391-0.91,0.306-1.485-0.309c-2.347-2.291-3.154-5.949-3.743-9.053c-0.809-4.266-1.119-8.578-1.158-12.916
		c-0.082-9.032,0.949-18.024,1.179-27.047c-0.097-2.046-1.893-3.611-3.502-4.604c-2.096-1.292-4.435-2.068-6.683-3.042
		c-1.138,2.218-1.759,4.679-2.487,7.068c-0.796,2.614-1.553,5.241-2.226,7.89c-1.283,5.049-2.265,10.196-2.561,15.405
		c-1.742,5.065-3.451,10.142-5.199,15.206c-0.854,2.472-1.718,4.941-2.599,7.404c-0.884,2.469-2.21,4.385-3.831,6.43
		c-0.784,0.837-1.742,1.179-2.708,0.055c-0.972-1.823-1.301-3.858-1.433-5.897c-0.145-2.237-0.264-4.483-0.272-6.726
		c-0.018-4.771,0.384-9.529,0.643-14.291c0.25-4.6,0.553-9.196,0.841-13.793c0.147-2.362,0.289-4.725,0.412-7.088
		c0.113-2.18,0.328-4.305-0.729-6.309c-0.955-1.929-3.265-3.459-5.38-3.771c-1.912-0.281-3.719-0.707-5.21,0.833
		c-1.796,2.711-2.457,5.573-3.422,8.384c-1.951-2.265-3.866-4.701-6.588-6.07c-2.221-1.117-4.694-1.657-7.17-1.692
		c-5.466-0.078-12.41,1.02-15.817,5.767c-3.66,5.098-6.775,10.272-8.884,16.208c-1.974,5.558-3.733,11.156-6.177,16.539
		c-1.913,4.211-4.214,8.364-7.114,11.982c-1.313,1.638-2.809,3.146-4.407,4.506c-1.329,1.131-3.058,1.979-4.841,1.538
		c-1.354-0.299-2.581-1.34-3.214-2.458c-0.683-1.259-1.3-2.563-1.734-3.929c-0.495-1.555-0.6-3.176-0.786-4.789
		c-0.378-3.269-0.77-6.536-1.09-9.812c-0.642-6.572-0.711-13.106-0.646-19.703c0.131-13.234,0.536-26.464,1.068-39.688
		c0.292-7.266,0.859-14.506,1.45-21.753c12.345-2.135,24.416-5.548,35.983-10.37c5.891-2.456,11.653-5.228,17.294-8.211
		c5.512-2.915,11.056-5.892,15.904-9.849c7.353-6.002,17.472-16.874,11.053-26.875c-2.992-4.662-8.513-7.173-13.727-8.416
		c-5.416-1.291-11.052-1.428-16.569-0.798c-5.355,0.611-10.743,1.973-15.878,3.576c-5.912,1.846-11.663,4.3-17.029,7.396
		c-10.517,6.068-19.505,14.835-25.895,25.157c-2.922,4.72-5.199,9.748-7.508,14.783c-25.024-7.827-50.079-15.339-75.667-21.122
		c-12.717-2.874-25.508-5.431-38.368-7.588c-12.992-2.18-25.96-3.769-39.161-3.547c-12.354,0.208-24.714,1.316-36.668,4.557
		c-10.473,2.839-21.263,7.242-29.536,14.446c-8.004,6.762-14.764,17.175-14.277,28.015c0.209,4.649,1.203,9.225,3.257,13.42
		c2.557,5.223,6.564,9.536,11.163,13.038c7.916,6.029,17.484,10.228,26.947,13.154c4.94,1.527,10,2.672,15.078,3.633
		c5.343,1.011,10.697,1.967,16.143,2.17c-0.709,2.074-1.72,3.992-2.599,6c-1.09,2.492-1.985,5.046-2.682,7.676
		c-1.599,6.038-2.085,12.193-1.472,18.409c1.222,12.395,6.013,23.979,14.026,33.517c7.022,8.357,16.209,14.866,25.928,19.715
		c10.288,5.135,21.607,7.972,33.137,7.669c6.232-0.163,12.438-1.192,18.422-2.938c5.319-1.551,10.649-3.681,15.385-6.572
		c9.775-5.97,16.5-15.438,20.485-26.056c2.052-5.467,3.388-11.107,3.114-16.975c-0.275-5.922-2.08-11.985-5.875-16.625
		c-3.755-4.591-9.108-7.496-15.011-8.057c-5.449-0.518-10.714,1.042-15.333,3.912c-2.23,1.386-4.088,3.456-4.016,6.239
		c0.073,2.81,1.998,5.509,4.103,7.236c2.279,1.869,5.078,2.802,8.001,2.814c2.663-0.062,6.207-1.326,7.034-4.17
		c0.493-1.271,0.015-3.403-0.912-4.751c0.936-0.127,1.719-0.633,2.813-0.315c2.263,1.712,4.962,3.507,6.563,5.89
		c1.378,2.051,2.057,4.891,2.574,7.276c1.201,5.543,0.579,10.959-2.234,15.896c-5.999,10.532-14.777,19.25-25.792,24.43
		c-10.589,4.98-23.121,7.5-34.777,5.856c-5.904-0.833-11.54-2.717-16.75-5.62c-4.553-2.538-8.588-5.874-12.311-9.505
		c-8.409-8.203-14.816-18.462-16.921-30.147c-2.102-11.666-0.1-23.652,5.074-34.267c0.739-1.517,1.436-3.305,2.438-4.672
		c0.634-0.851,1.984-0.871,2.931-0.931c1.684-0.106,3.364-0.259,5.04-0.45c3.241-0.368,6.465-0.874,9.676-1.451
		c6.421-1.153,12.91-2.345,19.24-3.929c11.129-2.784,21.532-8.072,29.331-16.63c1.598-1.753,3.104-3.592,4.521-5.493
		c0.97-1.3,1.811-2.571,2.358-4.102c0.9-2.516,0.809-5.463-0.74-7.719c-1.438-2.096-3.574-3.522-5.908-4.463
		c-4.319-1.742-9.422-2.434-14.004-1.407c-6.187,1.387-12.305,3.091-18.274,5.232c-11.455,4.109-21.729,10.889-30.224,19.6
		c-3.374,3.459-6.069,7.439-9.237,11.062c-0.788,0.901-1.642,1.645-2.842,1.906c-1.397,0.304-2.938,0.005-4.347-0.104
		c-3.171-0.246-6.338-0.55-9.492-0.953c-12.429-1.59-24.667-4.957-35.593-11.231c-4.973-2.855-9.854-6.43-13.643-10.769
		c-3.887-4.453-3.728-10.141-1.169-15.22c2.119-4.208,5.528-7.687,9.237-10.542c4.151-3.196,8.847-5.881,13.535-8.194
		c10.016-4.94,21.103-7.64,32.194-8.613c6.051-0.53,12.145-0.524,18.214-0.512c2.943,0.006,5.884,0.043,8.824,0.189
		c9.547,0.472,19.073,1.575,28.562,2.71c24.998,2.991,49.856,7.09,74.356,12.923c11.102,2.643,22.128,5.606,33.064,8.868
		c-0.586,6.572-1.292,13.135-1.721,19.72c-0.426,6.526-0.473,13.075-0.57,19.612c-0.193,13.029-0.098,26.094,1.346,39.058
		c0.364,3.271,0.813,6.532,1.36,9.776c0.524,3.108,1.068,6.236,2.131,9.214c0.989,2.772,2.463,5.313,4.324,7.589
		c1.328,1.623,2.837,3.428,4.609,4.584c2.036,1.328,4.242,2.24,6.721,2.191c2.683-0.052,5.529-0.751,8.041-1.664
		c5.269-1.914,9.059-5.789,12.401-10.159c2.565-3.354,4.543-7.083,6.535-10.792c2.419,10.354,12.231,18.915,23.142,18.527
		c4.76-0.169,7.183-4.428,9.083-8.217c2.627-5.24,4.384-11.009,5.743-16.694c0.616,3.343,1.38,6.657,2.181,9.96
		c0.741,3.056,1.595,5.931,3.46,8.515c1.717,2.376,4.09,4.131,6.788,5.25c2.763,1.146,5.936,1.794,8.736,0.421
		c2.732-1.398,4.619-4.283,6.136-6.839c2.149-3.624,3.183-7.743,4.432-11.729c1.417,7.216,6.246,13.625,12.852,16.894
		c2.823,1.396,5.935,2.247,9.078,2.417c3.137,0.17,5.588-0.829,7.558-3.34c4.653-6.128,6.514-13.825,8.549-21.099
		c1.479,5.369,1.913,11.49,4.794,16.362c1.294,2.189,3.03,4.051,5.184,5.414c2.005,1.269,4.11,1.901,6.39,2.453
		c2.344,0.544,5.042,0.156,7.56-2.54c3.793-3.782,5.433-8.787,7.011-13.765c0.195,3.305,0.28,6.675,1.469,9.809
		c1.029,2.717,2.901,5.684,5.619,6.976c2.046,1.044,4.233,1.274,6.481,0.253c2.243-1.068,3.542-3.125,4.325-5.398
		c0.858-2.491,1.689-4.991,2.495-7.5c1.787-5.57,3.484-11.168,5.227-16.752c1.724-5.524,3.412-11.09,5.457-16.505
		c1.853-4.906,4.204-9.583,7.608-13.608c0.64,1.007,1.058,2.183,1.096,3.381c0.042,1.304-0.445,2.636-0.733,3.895
		c-0.678,2.958-1.322,5.923-1.909,8.9c-1.133,5.736-2.054,11.52-2.572,17.346c-0.512,5.751-0.59,11.54-0.242,17.303
		c0.349,5.762,1.514,11.347,2.711,16.979c-6.505,0.591-12.932,1.8-19.355,2.948c-6.496,1.161-12.947,2.551-19.402,3.919
		c-12.947,2.744-25.869,5.605-38.784,8.493c-25.708,5.747-51.248,12.481-77.468,15.53c-9.86,1.146-20.07,2.293-29.977,1.105
		c-4.383-0.525-8.731-1.521-12.721-3.45c-3.407-1.647-7.064-4.092-8.369-7.839c-0.874-2.388-1.016-4.909-0.636-7.409
		c0.34-2.235,0.764-4.622,2.404-6.294c1.362-1.359,3.263-1.94,4.999-2.101c0.845,0.048,2.097,0.209,3.229,0.586
		c0.221,0.365,0.915,1.258-0.319,2.427c-0.313,0.307-0.906,0.274-1.305,0.416c-0.584,0.207-1.107,0.55-1.546,0.985
		c-1.239,1.428-1.178,2.748-0.962,4.394c0.921,4.684,7.321,6.98,11.115,4.215c2.549-1.901,2.691-5.951,2.272-8.789
		c-0.574-3.892-2.684-7.933-6.029-10.124c-4.055-2.566-9.569-2.736-14.393-0.986c-5.198,2.042-8.468,7.046-10.131,12.217
		c-1.892,5.882-1.069,12.118,1.733,17.569c5.45,10.599,18.095,15.455,29.224,17.394c12.26,2.135,24.635,2.439,37.002,1.148
		c12.944-1.351,25.646-4.408,38.145-7.956c25.431-7.22,50.667-15.06,76.328-21.457c12.791-3.188,25.682-5.823,38.631-8.282
		c1.282-0.164,1.806,0.979,2.321,1.934c0.754,1.395,1.507,2.789,2.377,4.116c1.696,2.588,3.666,4.983,5.858,7.166
		c4.349,4.33,9.446,7.9,14.913,10.677c9.661,4.906,20.742,7.898,31.63,7.563c5.658-0.175,11.84-1.044,16.675-4.194
		c4.734-3.085,8.411-7.66,7.363-13.626C629.74,292.814,625.075,288.417,620.705,285.588z M362.962,117.573
		c4.627-3.931,9.833-7.065,15.357-9.564c4.717-2.135,9.687-3.515,14.9-3.523c4.943-0.008,10.778,0.924,14.499,4.475
		c2.025,1.933,3.237,4.549,3.075,7.377c-0.141,2.488-1.18,4.698-2.499,6.762c-3.132,4.9-7.66,8.542-12.718,11.315
		c-5.577,3.057-11.686,5.343-17.626,7.584c-7.31,2.757-14.742,5.453-22.588,6.061c-3.533,0.23-7.068,0.313-10.604,0.251
		C347.558,136.48,353.648,125.486,362.962,117.573z M187.74,194.652c2.082-2.302,4.295-4.486,6.632-6.53
		c4.644-4.061,9.792-7.506,15.334-10.219c5.628-2.755,11.571-4.755,17.691-6.083c2.354-0.511,4.751-1.027,7.159-1.189
		c2.498-0.168,5.181-0.153,7.313,1.358c0.194,0.137,0.377,0.286,0.551,0.448c2.128,2.065,1.734,4.484-0.738,6.694
		c-6.587,6.623-13.769,12.35-22.533,15.795c-8.507,3.345-17.791,4.617-26.828,5.58c-3.282,0.359-6.563,0.706-9.846,1.039
		C183.574,198.978,185.872,196.718,187.74,194.652z M405.68,227.011c-0.968,4.775-2.054,9.531-3.453,14.2
		c-1.174,3.915-2.521,7.86-4.25,11.57c-1.455,3.12-3.354,6.36-6.146,8.46c-0.576,0.532-1.446-0.598-1.866-1.267
		c-1.956-3.143-2.954-6.704-3.513-10.335c-0.277-1.799-0.462-3.61-0.674-5.417c-0.235-2.011-0.071-3.996,0.194-6.002
		c1.006-7.623,4.107-14.723,8.729-20.838c1.877-2.375,4.542-4.508,7.762-4.271c0.968,0.137,1.688,0.302,2.629,1.383
		C408.158,218.224,406.541,222.766,405.68,227.011z M618.85,302.081c-1.5,4.649-6.643,7.36-11.166,8.098
		c-5.414,0.883-10.855,0.041-15.875-2.082c-5.54-2.344-10.866-5.376-15.266-9.515c-3.551-3.341-6.846-7.444-9.266-11.693
		c-0.999-1.752-1.646-3.734-2.364-5.611c1.055,0.016,2.103-0.301,3.151-0.301c10.813-0.114,21.785,0.479,32.276,3.298
		c4.761,1.279,9.248,3.174,13.155,6.23C616.908,293.174,620.366,297.462,618.85,302.081z"/>
	<path fill-rule="evenodd" clip-rule="evenodd" fill="#7C7C7C" d="M865.591,328.697c-5.167-8.848-13.185-15.835-21.892-21.078
		c-10.213-6.149-21.713-10.114-33.275-12.864c-11.553-2.747-23.493-3.659-35.338-3.857c-6.454-0.107-12.91-0.063-19.365-0.072
		c1.943-13.108,2.649-26.327,2.921-39.566c0.134-6.523,0.068-12.994-0.808-19.47c-0.696-5.146-1.748-11.355-6.876-14.04
		c-0.114-0.059-0.228-0.119-0.341-0.179c-1.049-0.484-2.17-0.615-3.177,0.752c-1.12,1.966-1.843,4.109-2.624,6.223
		c-0.848,2.292-1.732,4.57-2.59,6.858c-1.664,4.44-3.196,8.999-5.229,13.287c-1.87,3.943-4.344,7.617-7.192,10.919
		c-1.243,1.442-2.596,2.786-3.984,4.087c-1.088,1.02-2.066,1.921-3.496,2.371c-0.716,0.16-1.597,0.006-2.386-0.423
		c-1.708-0.772-3.27-2.684-4.044-4.337c-1.24-2.647-0.823-5.726-0.707-8.553c0.26-6.31,0.861-12.602,1.675-18.863
		c0.407-3.141,0.787-6.297,1.044-9.455c0.224-2.743,0.2-5.198-1.135-7.679c-2.337-4.34-6.514-6.857-11.163-8.037
		c-4.267,11.995-8.312,24.45-8.393,37.31c-0.009,1.382-0.669,2.755-1.107,4.064c-0.483,1.441-0.972,2.881-1.476,4.315
		c-0.985,2.801-2.034,5.582-3.212,8.308c-1.229,2.844-2.6,5.627-4.147,8.311c-1.473,2.554-3.061,5.159-5.356,7.064
		c-1.481,1.229-3.312,2.017-5.245,1.507c-2.229-0.496-3.139-3.285-3.487-5.234c-0.494-2.764-0.727-5.539-0.735-8.347
		c-0.018-6.257,0.854-12.498,1.988-18.639c0.579-3.133,1.311-6.227,1.963-9.345c0.624-2.983,1.129-5.958,0.641-9
		c-0.877-5.46-5.08-9.585-10.534-10.489c-0.978-0.162-1.947-0.098-2.932-0.09c-1.645,0.15-3.292-0.04-4.934-0.134
		c0.363-6.543,1.03-13.179,0.753-19.736c-0.121-2.886-0.678-5.784-1.582-8.527c-0.651-1.977-1.766-3.375-3.547-4.495
		c-4.575-2.879-9.931-0.975-12.996,3.142c-1.263,1.695-2.089,3.702-2.786,5.683c-0.97,2.755-1.528,5.599-1.413,8.528
		c0.198,5.092,2.004,9.669,5.256,13.575c2.92,3.507,6.668,5.734,10.762,7.681c-0.053,1-0.431,2.008-0.751,3h0.152
		c-1.49,7.762-4.138,15.349-7.659,22.422c-3.668,7.366-8.888,14.436-15.51,19.419c-0.061-0.023-0.084-0.089-0.088-0.14
		c-0.521,0.779-1.034,1.615-1.65,2.4c-1.034,0.291-2.193,0.52-3.391-0.377c-1.13-1.039-1.053-1.948-1.304-3.374
		c-0.294-1.669-0.508-3.318-0.626-5.01c-0.229-3.296-0.255-6.604-0.203-9.906c0.103-6.621,0.337-13.24,0.661-19.854
		c0.325-6.632,0.667-13.264,0.981-19.897c0.062-1.297-0.072-2.76,0.364-4.001c0.482-1.372,1.526-2.607,2.286-3.837
		c1.709-2.767,3.366-5.566,4.951-8.406c6.004-10.759,10.979-22.25,13.722-34.3c1.36-5.978,1.968-12.147,1.549-18.272
		c-0.397-5.817-1.503-12.068-4.821-17.006c-1.15-1.713-3.841-2.895-5.863-2.275c-2.18,0.668-4.14,1.957-5.821,3.469
		c-3.778,3.398-6.527,7.719-8.865,12.192c-2.909,5.567-5.102,11.423-6.909,17.432c-1.85,6.148-3.357,12.338-4.337,18.687
		c-2.207,14.302-2.601,28.85-3.23,43.284c-1.066-0.967-2.179-1.906-3.396-2.677c-1.022-0.647-2.194-0.949-3.359-1.238
		c-2.54-0.63-5.176-0.847-7.781-0.584c-5.482,0.553-10.664,3.046-14.276,7.24c-7.633,8.86-10.695,21.491-9.048,32.951
		c1.411,9.814,9.011,17.929,18.696,20.024c2.213,0.479,4.76,0.836,6.962,0.172c2.301-0.671,3.78-2.529,5.051-4.441
		c3.371-5.073,5.277-10.818,6.733-16.69c0.283-1.139,0.54-2.28,0.869-3.406c1.035,4.673,1.799,9.418,3.416,13.94
		c1.456,4.072,4.577,7.365,8.465,9.208c1.72,0.815,3.506,1.281,5.375,1.604c1.804,0.706,3.819-0.225,5.364-1.151
		c3.948-2.368,7.046-5.803,10.09-9.2l-0.3,0.3c4.733-5.445,8.411-11.794,11.099-18.477c1.429-3.553,2.507-7.215,3.625-10.873
		c1.13-3.694,1.811-7.476,2.685-11.238c0.487-1.297,1.685-1.106,2.513-0.115c1.692,2.095,0.452,5.77-0.022,8.198
		c-0.582,2.972-1.164,5.944-1.745,8.916c-0.798,4.075-2.194,7.93-2.379,12.12c-0.265,6.012-0.218,12.273,1.372,18.122
		c0.824,3.034,2.113,6.034,4.158,8.454c5.811,6.835,16.639,7.575,23.211,1.455c7.115-6.626,11.215-15.907,14.31-24.957
		c1.241,5.211,3.642,10.02,7.034,14.161c1.633,1.992,3.388,3.604,5.792,4.601c1.825,0.756,3.837,0.936,5.798,0.938
		c11.359,0.012,17.574-10.738,22.031-19.705h0.452c0.715,11.773-0.17,23.542-0.203,35.323c-0.08,0.371-0.151,0.957-1.079,1.386
		c-3.13,0.767-6.316,1.267-9.473,1.906c-3.086,0.625-6.134,1.441-9.144,2.364c-5.755,1.766-11.194,4.221-16.584,6.882
		c-10.748,5.307-21.7,11.218-30.134,19.901c-3.756,3.867-6.93,9.018-7.743,14.412c-0.828,5.496,1.552,10.634,5.999,13.89
		c9.023,6.609,21.986,5.217,32.049,2.188c5.418-1.631,10.547-3.979,15.476-6.741c5.202-2.915,10.189-6.18,14.753-10.027
		c4.406-3.716,8.229-7.999,11.615-12.655c3.204-4.401,5.544-9.223,7.544-14.273c0.313-0.79,0.623-1.582,0.936-2.373
		c0.286-0.741,1.334-1.12,2.145-1.012c12.769,0.557,25.516,1.845,38.085,4.191c6.414,1.198,12.779,2.669,19.061,4.436
		c5.812,1.635,11.588,3.596,17.008,6.275c10.288,5.089,19.686,12.89,26.011,22.539c2.858,4.36,5.21,10.048,4.833,15.368
		c-0.438,6.187-5.547,9.676-10.608,12.247c-6.853,3.481-14.707,5.202-22.37,5.394c-4.449,0.111-8.877-0.238-13.28-0.861
		c-2.269-0.322-4.529-0.704-6.778-1.145c-0.844-0.166-1.688-0.336-2.525-0.528c-0.459-0.105-1.063-0.173-1.456-0.464
		c-0.77-0.373-1.395-1.489-1.745-2.228c-0.664-1.4-1.134-2.922-1.701-4.364c-1.165-2.962-2.402-5.898-3.872-8.724
		c-2.378-4.725-5.349-9.244-8.728-13.312c-3.547-4.269-7.676-8.138-12.218-11.329c-4.729-3.323-9.8-6.945-15.61-7.944
		c-4.967-0.854-11.813,0.908-12.738,6.748c-0.407,2.564,0.643,5.233,1.424,7.638c0.928,2.855,2.082,5.633,3.501,8.28
		c2.724,5.078,6.611,9.657,11.215,13.126c4.813,3.626,10.13,6.764,15.422,9.63c3.069,1.663,6.202,3.208,9.386,4.638
		c1.561,0.7,3.133,1.374,4.715,2.021c1.188,0.485,2.673,0.981,2.928,2.456c0.709,6.432,1.526,12.909,1.03,19.39
		c-0.476,6.201-2.104,12.376-4.878,17.947c-5.009,10.053-14.057,18.551-24.143,23.421c-5.587,2.698-11.798,3.932-17.988,3.339
		c-5.672-0.544-11.104-2.56-16.087-5.263c-5.323-2.887-9.963-6.595-13.773-11.318c-3.621-4.488-6.26-9.617-8.431-14.933
		c-1.064-2.604-2.048-5.233-2.54-8.013c-0.586-3.302-0.396-6.832,0.396-10.076c0.771-3.165,2.036-6.577,3.944-9.241
		c0.952-1.33,2.26-2.403,3.705-3.165c1.192-0.629,2.783-1.543,4.17-1.509c0.769,0.343,0.627,0.587,0.723,1.097
		c0.053,0.688-0.503,1.159-0.688,1.776c-0.211,0.534-0.342,1.103-0.373,1.677c-0.072,1.387,0.492,2.684,1.47,3.655
		c4.169,4.114,11.435,1.978,13.686-3.125c2.163-4.903-2.115-9.271-5.967-11.729c-4.098-2.614-9.255-3.349-13.839-1.718
		c-4.887,1.738-8.559,5.643-10.771,10.241c-2.525,5.242-3.852,10.736-3.979,16.556c-0.124,5.614,0.851,11.375,2.364,16.767
		c1.538,5.481,4.212,10.687,7.934,15.001c3.41,3.953,7.548,7.46,11.941,10.282c4.875,3.132,10.345,5.511,16.031,6.662
		c5.381,1.09,10.813,1.205,16.262,0.681c11.001-1.059,21.477-5.622,29.978-12.628c7.208-5.939,13.298-13.737,16.749-22.464
		c2.01-5.079,3.196-10.404,3.626-15.848c0.442-5.603-0.163-11.296-0.799-16.863c6.505,0.693,13.007,1.571,19.558,1.659
		c6.168,0.082,12.372-0.618,18.348-2.156c4.9-1.262,9.933-3.019,14.216-5.744c4.601-2.929,8.583-7.434,10.79-12.426
		C872.858,350.338,871.19,338.285,865.591,328.697z M626.68,173.519c1.183-6.113,2.595-12.187,4.416-18.143
		c0.937-3.062,1.979-6.091,3.143-9.074c1.146-2.94,2.215-6.057,4.297-8.484c0.545-0.438,1.327-0.917,1.698,0.004
		c0.547,1.51,0.635,3.413,0.718,5c0.08,1.532-0.085,3.046-0.264,4.566c-0.576,4.885-1.647,9.633-3.181,14.306
		c-1.506,4.589-3.222,9.137-5.323,13.487c-1.03,2.131-2.15,4.219-3.391,6.235c-0.655,1.064-1.343,2.108-2.063,3.13
		c-0.609,0.865-1.172,1.852-2.149,2.324C625.303,182.421,625.946,177.971,626.68,173.519z M605.976,224.671
		c-1.17,7.458-2.568,14.9-4.843,22.11c-1.189,3.772-2.613,7.472-4.307,11.048c-1.548,2.945-3.145,5.792-5.82,7.874
		c-0.799,0.59-1.695-0.938-2.136-1.728c-2.356-4.132-3.421-8.802-3.787-13.511c-0.39-5.018,0.028-10.013,1.535-14.827
		c1.209-3.861,2.888-7.496,5.12-10.872c1.25-1.889,2.623-4.059,4.44-5.44c1.597-1.213,3.475-1.791,5.445-2.004
		c1.433,0.651,2.45,1.042,3.309,2.396C605.892,221.23,606.24,222.911,605.976,224.671z M655.488,206.222
		c0.006,2.252-0.32,4.501-0.598,6.75c-4.504-1.866-6.785-6.974-7.21-11.571c-0.262-2.835-0.083-5.535,0.439-8.334
		c0.413-2.211,0.708-5.097,2.578-6.625c0.64-0.266,1.1-0.347,2.058,0.477c1.021,1.063,1.147,2.847,1.418,4.218
		c0.327,1.665,0.608,3.34,0.828,5.022C655.438,199.493,655.635,202.861,655.488,206.222z M731.941,317.579
		c-2.365,5.014-5.496,9.516-9.245,13.591c-7.178,7.797-16.843,14.653-27.774,15.131c-5.177,0.227-11.324-1.238-14.383-5.802
		c-3.164-4.725-1.492-10.638,1.689-14.863c6.05-8.031,15.463-12.887,24.487-16.79c9.622-4.163,19.586-6.451,30.1-6.317
		C735.74,307.717,734.204,312.782,731.941,317.579z M785.73,366.131c-7.213-3.051-14.324-6.929-19.966-12.437
		c-2.286-2.232-4.498-4.654-6.223-7.354c-2.135-3.341-4.331-6.734-5.54-10.542c-0.158-0.785-0.199-2.348,1.025-3.479
		c1.724-1.847,4.077-1.92,6.245-0.841c4.085,2.219,8.26,4.412,12.045,7.121c3.645,2.607,6.947,5.719,9.869,9.113
		c2.723,3.164,5.03,6.705,7.012,10.373c0.933,1.726,1.732,3.506,2.517,5.302c0.936,2.144,1.938,4.317,2.318,6.643
		C791.916,368.831,788.817,367.552,785.73,366.131z"/>
	<path fill-rule="evenodd" clip-rule="evenodd" fill="#7C7C7C" d="M471.819,396.022c-1.809-0.187-3.777,0.639-5.034,1.916
		c0.043,0.264-0.311,0.479-0.461,0.66c-0.342,0.416-0.639,0.869-0.881,1.351c-0.44,0.878-0.691,1.845-0.749,2.825
		c0.233,1.093,0.048,1.938,1.278,3.528c1.882,2.054,3.787,3.05,5.703,2.256c1.066-0.573,1.358-1.725,1.397-2.625
		c-0.009-0.732-0.093-1.357-0.516-1.873c-0.464-0.711-1.289-1.129-2.064-1.094c-0.438,0.097-1.245-0.001-1.372,0.889
		c-0.021,0.086-0.015,0.138,0.059,0.214c-0.394-0.015-0.807,0.063-1.196-0.149c-0.394-0.893,0.027-1.612,0.638-2.389
		c1.589-1.784,3.913-1.197,5.944-0.751c4.631,2.584,4.443,8.413,1.95,12.466c-2.732,4.441-8.74,5.492-13.489,5.069
		c-3.187-0.285-6.355-1.006-9.493-1.61c-3.17-0.61-6.33-1.274-9.479-1.986c-6.364-1.439-12.683-3.071-18.96-4.852
		c-6.36-1.804-12.677-3.759-18.958-5.822c-3.15-1.035-6.412-1.808-9.611-2.679c-3.201-0.871-6.407-1.727-9.618-2.562
		c-12.728-3.312-25.545-6.31-38.487-8.658c-6.387-1.158-12.804-2.158-19.247-2.954c-6.469-0.799-12.982-0.968-19.495-0.938
		c-6.449,0.03-12.755,0.962-19.025,2.421c-5.812,1.353-11.444,3.438-16.615,6.434c-9.553,5.534-18.202,15.754-16.059,27.555
		c2.197,12.102,14.941,17.188,25.836,18.593c4.723,0.608,9.502,0.601,14.251,0.361c0.547-0.008,1.197,0.492,1.188,1.034
		c-0.685,4.861-0.462,10.161,2.941,14.039c2.482,2.828,8.045,4.773,10.794,1.168c1.046-1.301,1.093-1.893,1.265-2.855
		c0.143-1.688,0.427-3.541-1.089-5.323c-0.571-0.373-1.318-0.52-1.951-0.508c-0.38-0.056-1.202,0.173-1.991,0.79
		c-0.573,0.46-1.082,1.146-1.084,1.81c-0.242,0.898-0.026,1.922,0.837,2.843c0.39,0.134,0.815,0.298,1.197,0
		c0.147,0.56,0.99,1.021,0.025,1.542c-0.411,0.052-0.811,0.534-1.222,0.402c-2.628,0.188-4.399-2.609-5.237-4.758
		c-0.58-1.485-1.108-3.107-1.311-4.691c-0.228-1.775,0.391-3.482,0.714-5.206c0.389-0.697,1.208-0.863,1.917-1.049
		c1.025-0.268,2.059-0.494,3.077-0.791c2.311-0.674,4.569-1.518,6.79-2.443c4.327-1.806,8.753-3.723,12.659-6.338
		c3.495-2.342,6.24-5.494,8.376-9.097c1.765-2.978,4.321-7.222,1.844-10.512c-2.318-2.941-6.972-2.787-10.193-1.735
		c-2.043,0.668-4.062,1.808-5.952,2.82c-2.136,1.146-4.194,2.432-6.135,3.884c-3.529,2.64-6.398,5.987-8.975,9.54
		c-1.402,1.933-2.704,3.941-3.831,6.049c-0.532,0.996-1.025,2.014-1.469,3.052c-0.215,0.503-0.594,2.063-1.416,1.983
		c-11.324,1.428-24.021,0.706-33.209-6.935c-4.59-3.817-3.053-9.913-0.109-14.239c3.269-4.803,8.026-8.699,13.025-11.584
		c4.991-2.88,10.55-4.584,16.189-5.623c6.353-1.172,12.781-1.923,19.231-2.275c12.884-0.703,25.819,0.194,38.545,2.267
		c12.628,2.056,24.973,5.409,37.301,8.775c12.341,3.37,24.655,6.855,37.088,9.875l-0.15,0.149c6.278,1.77,12.631,3.321,19.083,4.313
		c6.239,0.96,12.816,1.596,19.119,0.911c2.925-0.317,5.784-1.046,8.461-2.271c1.147-0.524,2.19-1.212,3.088-2.102
		c0.978-1.063,1.991-2.199,2.767-3.427c2.877-4.567,2.434-10.874-0.818-15.142C477.592,397.531,474.805,396.338,471.819,396.022z
		 M317.331,420.324c2.502-2.015,5.227-3.766,8.158-5.087c2.381-1.072,6.099-2.907,8.292-0.58c0.367,0.416,0.618,1.116,0.546,1.709
		c-0.228,2.027-1.799,3.905-2.986,5.457c-1.57,2.056-3.419,3.917-5.401,5.575c-4.038,3.377-8.892,5.498-13.864,7.099
		c-2.124,0.679-4.255,1.38-6.393,1.87c-0.138-0.011-0.285-0.011-0.446-0.146C307.917,429.986,312.052,424.576,317.331,420.324z"/>
</g>
<g>
	<path fill-rule="evenodd" clip-rule="evenodd" fill="#61D8CA" d="M104.7,248.153c-1.805,1.477-3.987,3.542-4.368,5.979
		c-0.186,0.68-0.045,2.157,0.449,2.961c1.829,2.957,4.694,6.583,8.652,5.706c2.267-0.371,4.211-2.207,5.725-3.809
		c1.867-1.977,3.386-4.226,4.811-6.533c3.265-5.29,5.829-10.952,8.299-16.645c-0.614,0.247-1.229,0.494-1.841,0.744
		c-4.868,2.117-9.837,4.021-14.466,6.644C109.407,244.647,106.972,246.295,104.7,248.153z"/>
	<path fill-rule="evenodd" clip-rule="evenodd" fill="#61D8CA" d="M141.939,268.472c1.092,2.438,2.549,4.694,4.242,6.756
		c1.626,1.98,3.357,3.295,6.013,3.372c0.975-0.168,2.132-0.397,3.268-1.552c1.604-2.137,0.71-4.657-0.426-6.777
		c-1.329-2.479-2.829-4.758-3.745-7.444c-1.629-4.777-1.804-9.838-1.908-14.837c0.114-5.272,0.498-10.557,1.594-15.725
		c1.109-5.23,2.833-10.976,6.003-15.35c-0.419,0.526-0.839,1.052-1.254,1.581c-7.335,9.32-13.895,19.774-15.862,31.663
		C138.84,256.351,139.358,262.709,141.939,268.472z"/>
	<path fill-rule="evenodd" clip-rule="evenodd" fill="#61D8CA" d="M85.673,211.303c1.739,1.934,3.702,3.746,5.902,5.145
		c4.96,3.153,10.632,4.701,16.481,5.009c12.364,0.651,24.361-4.023,35.275-9.356c-0.333,0.136-0.667,0.272-1.005,0.395
		c-9.827,3.012-20.184,2.211-30.117,0.183c-4.323-0.883-8.699-2.169-12.635-4.191c-2.181-1.121-4.279-2.45-6.065-4.136
		c-1.568-1.48-3.168-3.256-5.223-4.056c-1.351-0.5-2.487-0.83-4.115,0.321c-1.609,1.351-2.129,3.22-1.831,4.906
		C82.697,207.854,84.143,209.601,85.673,211.303z"/>
	<path fill-rule="evenodd" clip-rule="evenodd" fill="#61D8CA" d="M813.504,402.465c3.865,9.971,3.855,21.234,2.106,31.666
		c-0.808,4.813-1.974,9.559-4.286,13.892c-1.273,2.388-3.029,4.284-4.608,6.454c-1.198,1.646-2.141,3.581-1.6,5.634
		c0.644,1.638,1.843,2.16,2.916,2.63c2.352,0.919,5.021-0.621,6.721-2.127c2.033-1.835,3.872-3.864,5.358-6.171
		c3.282-5.096,4.77-11.127,4.822-17.156c0.112-12.822-5.599-24.944-11.895-35.795C813.198,401.814,813.357,402.136,813.504,402.465z
		"/>
	<path fill-rule="evenodd" clip-rule="evenodd" fill="#61D8CA" d="M878.691,387.842c-0.026-0.201-0.069-0.4-0.128-0.595
		c-0.369-0.991-0.573-1.62-1.619-2.524c-3.599-2.439-7.925,1.939-10.816,3.682c-2.283,1.376-4.966,2.206-7.525,2.898
		c-2.844,0.769-5.758,1.253-8.69,1.511c-5.602,0.493-11.317,0.284-16.89-0.423c-5.646-0.715-11.191-2.001-16.168-4.858
		c0.555,0.38,1.109,0.761,1.668,1.137c9.904,6.705,20.961,12.56,33.077,13.573c6.138,0.514,12.309-0.485,17.764-3.417
		c2.424-1.303,4.576-2.979,6.574-4.859C877.584,392.416,879.005,390.224,878.691,387.842z"/>
	<path fill-rule="evenodd" clip-rule="evenodd" fill="#61D8CA" d="M861.908,426.263c-2.22-1.839-4.79-3.262-7.338-4.586
		c-5.38-2.797-11.089-4.844-16.793-6.864c0.291,0.594,0.581,1.189,0.875,1.782c2.413,4.623,4.637,9.351,7.516,13.712
		c1.604,2.431,3.394,4.737,5.366,6.881c1.647,1.789,3.967,3.945,6.526,4.168c2.251,0.444,4.391-1.61,5.796-3.079
		c1.688-1.765,2.94-4.136,2.192-6.621C865.532,429.461,863.574,427.644,861.908,426.263z"/>
	<path fill-rule="evenodd" clip-rule="evenodd" fill="#61D8CA" d="M126.505,336.32c0.27-0.449,0.722-1.052,1.304-1.067
		c0.588-0.287,1.177,0.213,1.583-0.525c0.046-1.018-2.891-0.432-3.427-0.428c-1.99,0.013-3.981-0.209-5.97-0.021
		c-0.398,0.086-0.392,0.929,0.449,0.869c0.657,0.143,1.065-0.241,1.869,0.803c0.358,0.796,0.127,1.752-0.035,2.567
		c-0.256,1.29-0.528,2.576-0.812,3.859c-0.54,2.448-1.12,4.887-1.706,7.323c-1.146,4.764-2.303,9.526-3.337,14.315h-0.127
		c-3.169-9.722-6.276-19.434-9.506-29.164c-0.083-0.412-0.836-0.737-1.075-0.032c-0.685,1.347-0.992,3.074-1.414,4.515
		c-0.794,2.715-1.589,5.431-2.384,8.146c-1.551,5.298-3.102,10.597-4.653,15.895c-0.098,0.335-0.196,0.671-0.294,1.006h-0.127
		c-1.172-4.885-2.406-9.754-3.562-14.643c-0.576-2.435-1.132-4.874-1.65-7.321c-0.271-1.282-0.533-2.566-0.781-3.853
		c-0.133-0.692-0.688-2.082-0.264-2.77c-0.022-1.047,3.005-0.19,1.937-1.504c-1.839-0.205-3.694-0.026-5.537,0.013
		c-0.986,0.021-1.961-0.053-2.944-0.081c-0.881-0.025-1.76-0.179-2.605,0.16c-0.683,0.577,0.816,0.801,1.09,0.815
		c0.856,0.044,1.364,0.497,1.752,1.254c1.283,2.696,1.76,5.918,2.516,8.795c0.845,3.216,1.688,6.432,2.533,9.647
		c1.689,6.434,3.38,12.866,5.078,19.298c0.204,0.469,0.135,1.24,0.828,1.457c0.726-0.1,0.929-1.229,1.123-1.782
		c0.444-1.262,0.891-2.523,1.313-3.794c0.872-2.618,1.707-5.249,2.521-7.886c1.657-5.373,3.223-10.772,4.833-16.159h0.085
		c3.198,9.717,6.263,19.416,9.595,29.148c0.1,0.476,0.996,0.685,1.221-0.167c2.017-7.461,3.9-14.957,5.885-22.427
		c0.98-3.689,1.985-7.373,3.041-11.042C125.326,339.886,125.612,337.801,126.505,336.32z"/>
	<path fill-rule="evenodd" clip-rule="evenodd" fill="#61D8CA" d="M158.359,373.933c-0.832,0.04-2.824-0.146-3.665-1.683
		c-1.576-2.748-2.516-5.774-3.42-8.793c-0.974-3.253-2.056-6.473-3.07-9.713c-2.104-6.724-4.156-13.465-6.439-20.13
		c-0.096-0.458-0.898-0.968-1.224-0.061c-0.829,1.825-1.303,3.855-1.904,5.765c-0.634,2.018-1.267,4.035-1.899,6.054
		c-1.265,4.036-2.527,8.073-3.801,12.106c-1.275,4.043-2.562,8.083-3.868,12.116c-0.461,1.422-0.954,2.894-2.25,3.782
		c-0.588,0.403-1.19,0.499-1.884,0.54c-0.437,0.025-1.199-0.081-1.029,0.609c0.382,0.617,1.167,0.355,1.754,0.346
		c0.962-0.016,1.925-0.065,2.889-0.068c2.032-0.006,4.064,0.078,6.096,0.023c0.388-0.015,0.297-1.087-0.276-0.895
		c-0.701-0.072-1.478,0.285-2.185-0.632c-0.831-1.673,0.345-4.151,0.827-5.782c0.647-2.196,1.278-4.398,1.99-6.575
		c0.259-0.32,1.458-0.104,1.836-0.104c0.928,0,1.856-0.001,2.784-0.002c1.724-0.001,3.448,0,5.171,0.01
		c0.488,0,0.87,2.199,0.986,2.59c0.332,1.111,0.667,2.222,1,3.332c0.625,2.092,1.241,4.187,1.805,6.296
		c0.082,0.278-0.34,0.899-0.897,0.949c-0.307,0.172-0.111,0.788,0.485,0.725c3.427,0.15,6.798,0.289,10.285,0.03
		C158.93,374.701,158.79,373.83,158.359,373.933z M143.891,358.152c-2.623-0.004-5.24,0.013-7.868-0.012
		c-0.408-0.235,0.559-2.602,0.681-3.017c0.37-1.26,0.74-2.521,1.11-3.781c0.707-2.408,1.418-4.814,2.141-7.218
		c0.25-0.261,0.79,1.997,0.868,2.271c0.358,1.246,0.718,2.491,1.077,3.737c0.753,2.611,1.502,5.225,2.214,7.849
		C144.118,358.064,143.988,358.172,143.891,358.152z"/>
	<path fill-rule="evenodd" clip-rule="evenodd" fill="#61D8CA" d="M169.632,349.564c-1.967-1.928-4.971-4.522-4.876-7.561
		c0.003-1.577-0.053-3.251,1.808-5.01c1.896-1.421,4.092-1.546,6.262-0.205c1.857,1.345,2.711,3.77,2.769,5.996
		c0.271,0.588,0.836-0.042,0.766-0.451c0.056-2.549,0.165-5.076,0.144-7.648c-1.683-1.199-4.558-1.331-6.548-1.26
		c-2.284,0.082-4.494,0.847-6.215,2.371c-3.61,3.198-3.884,8.924-2.198,13.152c1.568,4.613,5.92,7.521,8.87,11.158
		c2.622,3.233,4.069,9.274-0.05,12.06c-1.065,0.706-2.26,0.921-3.197,0.902c-1.081-0.006-2.37-0.25-3.682-1.306
		c-1.231-1.217-2.076-2.622-2.371-4.337c-0.121-0.703-0.182-1.416-0.294-2.121c-0.179-0.527,0.282-1.127-0.522-1.315
		c-0.813,1.026-0.486,2.946-0.541,4.175c-0.081,1.817-0.204,3.641,0.047,5.45c0.544,1.139,2.768,1.565,3.854,1.784
		c1.935,0.39,3.938,0.335,5.866-0.063c7.984-1.997,9.431-11.79,6.25-18.276C174.323,354.101,171.952,351.839,169.632,349.564z"/>
	<path fill-rule="evenodd" clip-rule="evenodd" fill="#61D8CA" d="M217.944,373.874c-0.95-0.045-1.804-0.109-2.46-0.894
		c-0.614-1.168-0.5-2.587-0.551-3.865c-0.067-1.71-0.117-3.421-0.152-5.131c-0.069-3.29-0.086-6.581-0.077-9.872
		s0.045-6.582,0.082-9.873c0.02-1.711,0.039-3.423,0.055-5.134c0.011-1.199-0.065-2.544,0.852-3.453
		c0.643-0.542,1.629-0.304,2.635-0.706c0.378-0.54-0.522-0.846-1.043-0.761c-3.926,0.222-7.815-0.038-11.776,0.062
		c-0.316-0.049-0.56,0.846,0.109,0.881c1.128,0.164,2.21-0.367,3.353,1.199c0.492,0.91,0.417,2.078,0.448,3.078
		c0.038,1.254,0.035,2.51,0.046,3.764c0.025,2.682,0.032,5.365-0.07,8.046c-0.223,0.29-1.428,0.098-1.77,0.098
		c-0.661,0-1.322,0-1.983,0c-1.454,0-2.908,0.001-4.362,0.002c-2.777,0-5.554-0.002-8.331-0.013
		c-0.448-0.135-0.179-2.662-0.182-3.097c-0.008-1.298-0.027-2.597-0.032-3.895c-0.009-2.479,0.033-4.962,0.285-7.43
		c0.064-0.576,0.603-1.414,1.356-1.559c0.636-0.225,1.187,0.026,1.955-0.376c0.379-0.54-0.522-0.846-1.044-0.761
		c-3.926,0.222-7.814-0.038-11.775,0.062c-0.316-0.049-0.56,0.846,0.108,0.881c1.128,0.164,2.21-0.367,3.352,1.199
		c0.642,1.187,0.458,2.893,0.459,4.194c0.001,1.711,0.011,3.421,0.022,5.132c0.024,3.422,0.059,6.843,0.063,10.264
		c0.004,3.423-0.022,6.846-0.12,10.267c-0.049,1.713-0.116,3.425-0.207,5.136c-0.202,0.999-0.197,2.113-1.361,2.459
		c-0.643,0.2-1.256-0.03-1.934,0.341c-0.239,0.264,0.115,0.872,0.772,0.775c4.044-0.183,8.086-0.034,12.13-0.009
		c0.289,0.1,1.277-0.613,0.178-0.94c-1.127-0.164-2.289,0.299-3.489-0.965c-0.604-1.149-0.533-2.57-0.598-3.832
		c-0.086-1.685-0.126-3.372-0.141-5.059c-0.028-3.248,0.037-6.497,0.045-9.745c0.228-0.438,2.889-0.13,3.4-0.13
		c1.456-0.001,2.912-0.003,4.368-0.004c2.914-0.002,5.828,0,8.742,0.023c0.415,0.21,0.156,1.845,0.156,2.254
		c0,0.91,0.005,1.82,0.011,2.731c0.011,1.95,0.024,3.901-0.003,5.853c-0.025,1.823-0.086,3.646-0.217,5.466
		c-0.083,1.149-0.082,2.842-1.423,3.24c-0.645,0.203-1.273-0.035-1.94,0.348c-0.171,0.17-0.01,0.734,0.457,0.742
		c2.396-0.012,4.792-0.078,7.189-0.069c1.198,0.005,2.397,0.028,3.594,0.087c0.836-0.103,1.614,0.315,2.314-0.367
		C219.802,373.903,218.209,373.886,217.944,373.874z"/>
	<path fill-rule="evenodd" clip-rule="evenodd" fill="#61D8CA" d="M273.641,336.356c-4.097-2.017-8.635-2.309-13.126-2.194
		c-2.144,0.055-4.286,0.178-6.431,0.178c-1.07,0-2.141-0.031-3.208-0.116c-1.069,0.042-2.12-0.248-3.148,0.187
		c-0.676,0.732,1.295,0.765,1.55,0.77c0.929,0.018,1.621,0.379,2.162,1.147c0.798,1.475,0.465,3.773,0.477,5.386
		c0.016,2.248,0.022,4.497,0.024,6.745c0.003,4.364-0.011,8.729-0.006,13.094c-0.022,2.472,0.024,4.946-0.1,7.416
		c-0.068,1.367,0.17,4.29-1.539,4.806c-0.643,0.208-1.255-0.026-1.934,0.346c-0.255,0.282,0.167,0.887,0.812,0.776
		c3.169-0.188,6.353-0.147,9.514,0.147c3.081,0.287,6.13,0.535,9.194-0.089c5.344-1.087,9.631-4.542,11.959-9.447
		c2.404-5.065,3.073-11.044,2.044-16.547C280.972,344.067,278.319,338.65,273.641,336.356z M272.883,369.201
		c-1.59,1.704-3.733,2.965-6.05,3.337c-2.753,0.441-5.494,0.654-8.019-0.768c-1.431-0.932-1.398-2.5-1.448-4.037
		c-0.081-2.527-0.12-5.057-0.136-7.585c-0.035-5.058,0.019-10.114,0-15.172c0.039-2.492-0.104-4.93,0.148-7.477
		c0.529-0.858,2.036-0.754,2.909-0.783c1.612-0.055,3.216,0.152,4.78,0.538c2.527,0.623,4.706,1.947,6.54,3.785
		c3.464,3.471,4.78,8.457,4.992,13.235C276.821,359.276,276.484,365.34,272.883,369.201z"/>
	<path fill-rule="evenodd" clip-rule="evenodd" fill="#61D8CA" d="M319.966,373.935c-3.714,0.038-5.992-3.656-7.839-6.335
		c-2.616-3.794-4.955-7.766-7.419-11.656c2.548-2.56,4.66-5.662,5.338-9.262c0.568-3.015,0.247-6.563-1.647-9.091
		c-2.268-3.026-5.975-3.383-9.474-3.388c-2.093-0.003-4.184,0.092-6.276,0.099c-1.046,0.004-2.093-0.015-3.138-0.078
		c-0.807-0.048-1.794-0.23-2.531,0.187c-0.677,0.731,1.295,0.765,1.55,0.77c0.928,0.018,1.621,0.379,2.162,1.147
		c0.798,1.475,0.464,3.774,0.476,5.387c0.016,2.248,0.023,4.496,0.025,6.744c0.003,4.364-0.012,8.729-0.006,13.093
		c-0.023,2.474,0.025,4.949-0.098,7.421c-0.068,1.361,0.17,4.301-1.54,4.807c-0.643,0.2-1.255-0.03-1.934,0.341
		c-0.238,0.264,0.114,0.871,0.772,0.775c3.775-0.155,7.549-0.067,11.325,0.003c0.273,0.048,1.374-0.152,0.712-0.904
		c-0.939-0.154-1.866-0.071-2.901-0.447c-0.835-0.646-0.798-1.188-1.062-2.101c-0.124-1.42-0.197-2.843-0.238-4.268
		c-0.086-2.982-0.031-5.967-0.004-8.949c0.016-0.089,0.178-0.211,0.305-0.19c1.37,0.06,2.729,0.014,4.109,0.179
		c0.899,0.873,1.365,2.084,1.972,3.155c0.716,1.261,1.413,2.531,2.111,3.802c1.424,2.594,2.945,5.129,4.826,7.421
		c1.204,1.359,2.673,2.136,4.485,2.254c1.954,0.128,3.966,0.113,5.92,0.009C320.263,374.906,320.647,374.098,319.966,373.935z
		 M297.063,355.204c-0.467-0.051-0.957-0.556-0.875-0.918c-0.008-5.593-0.01-11.187,0-16.781c-0.046-0.332,0.364-0.645,0.679-0.665
		c1.938-0.254,3.737-0.292,5.697,1.484c2.083,2.056,2.626,4.966,2.72,7.775c0.104,3.145-0.378,6.123-2.508,8.573
		C301.64,356.065,298.515,355.697,297.063,355.204z"/>
	<path fill-rule="evenodd" clip-rule="evenodd" fill="#61D8CA" d="M344.672,334.21c-0.84,0.04-1.682,0.08-2.524,0.083
		c-1.93,0.007-3.859-0.104-5.789-0.045c-0.214,0.038-0.467,0.529,0.024,0.785c0.283,0.164,0.965,0.181,1.22,0.755
		c0.349,1.42-0.126,2.882-0.663,4.188c-0.611,1.487-1.274,2.957-1.918,4.431c-1.418,3.245-2.886,6.47-4.208,9.757
		c-2.574-5.811-5.486-11.629-7.641-17.417c-0.106-0.657-0.107-1.271,0.639-1.55c0.468-0.175,0.968-0.143,0.718-0.829
		c-0.75-0.328-1.603-0.2-2.39-0.14c-0.971,0.075-1.951,0.12-2.926,0.11c-1.867-0.02-3.734-0.188-5.601-0.076
		c-0.607,0.146-0.092,1.068,0.357,0.888c2.664,0.229,4.205,3.652,5.256,5.702c1.426,2.782,2.718,5.634,4.104,8.436
		c1.3,2.631,2.86,5.404,3.467,8.301c0.633,3.021,0.317,6.324,0.281,9.395c-0.129,2.073,0.271,4.192-0.74,6.227
		c-0.724,0.904-1.76,0.51-2.747,0.886c-0.273,0.147,0.06,0.896,0.601,0.791c3.975-0.136,7.95-0.072,11.924,0.011
		c0.34,0.051,1.375-0.188,0.788-0.862c-1.165-0.309-2.203,0.187-3.622-0.84c-0.957-1.562-0.839-3.392-0.82-5.147
		c0.019-1.81-0.011-3.622-0.061-5.433c-0.05-1.841-0.064-3.696,0.269-5.516c0.378-2.071,1.353-3.896,2.205-5.799
		c1.612-3.601,3.203-7.215,5.098-10.68c0.833-1.522,1.65-3.429,3.035-4.538c0.515-0.412,1.206-0.767,1.857-0.892
		c0.561-0.106,1.176,0.097,1.237-0.684C345.803,334.016,345.142,334.187,344.672,334.21z"/>
	<path fill-rule="evenodd" clip-rule="evenodd" fill="#61D8CA" d="M389.771,334.062c-0.571,0.313-1.615,0.164-2.255,0.19
		c-1.977,0.082-3.955,0.104-5.933,0.101c-3.832-0.009-7.663-0.119-11.496-0.103c-0.476-0.002-0.436,1.002,0.177,0.889
		c1.093,0.138,2.144-0.34,3.248,1.193c0.641,1.188,0.459,2.892,0.461,4.194c0.002,1.713,0.011,3.427,0.022,5.141
		c0.023,3.559,0.055,7.117,0.055,10.676c0,3.428-0.028,6.855-0.121,10.281c-0.042,1.562-0.027,3.153-0.219,4.702
		c-0.13,1.051-0.179,2.044-1.341,2.452c-0.63,0.197-1.229-0.031-1.894,0.341c-0.253,0.241,0.193,0.869,0.6,0.769
		c3.994-0.135,7.987-0.073,11.979,0.009c0.345,0.063,1.476-0.212,0.758-0.895c-1.239-0.264-2.534,0.286-3.747-1.028
		c-0.605-1.17-0.539-2.617-0.605-3.897c-0.081-1.58-0.116-3.162-0.129-4.743c-0.026-3.164,0.039-6.328,0.011-9.492
		c0.004-0.122,0.011-0.431,0.296-0.411c2.278,0.056,4.525-0.153,6.835,0.311c0.958,0.353,1.485,1.226,1.702,2.182
		c0.127,0.562-0.096,1.878,0.609,2.014c0.392-0.38,0.359-0.948,0.333-1.448c-0.041-0.762,0.018-1.54,0.07-2.301
		c0.11-1.622,0.33-3.237,0.359-4.865c-0.25-0.503-0.841,0.537-0.981,0.703c-0.631,0.668-1.366,0.618-2.207,0.704
		c-2.31,0.003-4.622,0.128-6.931-0.004c-0.197-0.312-0.085-0.846-0.084-1.188c0.001-0.646,0-1.293,0-1.939
		c-0.002-1.293-0.008-2.585-0.011-3.878c-0.004-2.462,0.003-4.924,0.066-7.385c0.034-0.132,0.167-0.263,0.325-0.246
		c2.407,0.077,4.798,0.057,7.223,0.234c0.604,0.152,1.449,0.269,2.098,1.531c0.377,0.965,0.036,1.753,0.452,2.832
		c0.204,0.293,0.698-0.174,0.654-0.664c0.188-2.299,0.099-4.472,0.542-6.902C390.571,333.507,390.109,333.876,389.771,334.062z"/>
	<path fill-rule="evenodd" clip-rule="evenodd" fill="#61D8CA" d="M417.803,366.918c-0.078,0.83-0.395,2.533-1.188,3.66
		c-0.819,1.294-2.571,1.401-3.931,1.469c-1.75,0.02-3.811,0.185-5.425-0.626c-1.602-0.704-1.413-3.343-1.468-4.74
		c-0.099-2.512-0.141-5.025-0.153-7.54c-0.027-5.159,0.067-10.318,0.03-15.479c0.082-2.459-0.248-4.834,0.448-7.38
		c0.406-1.504,2.577-0.799,3.563-1.366c0.212-0.206-0.18-0.817-0.604-0.722c-3.926,0.093-7.853,0.119-11.778-0.009
		c-0.406-0.105-1.431,0.343-0.688,0.9c0.992,0.213,2.253-0.268,3.268,1.241c0.642,1.186,0.458,2.893,0.46,4.193
		c0.003,1.713,0.012,3.427,0.022,5.14c0.023,3.559,0.055,7.116,0.055,10.675c0,3.427-0.028,6.854-0.121,10.28
		c-0.042,1.562-0.028,3.152-0.218,4.701c-0.13,1.056-0.18,2.042-1.342,2.457c-0.643,0.208-1.255-0.026-1.933,0.346
		c-0.255,0.282,0.167,0.887,0.812,0.776c6.384-0.511,12.828,0.389,19.157,0.067c0.46,0.016,1.204-0.741,1.146-1.357
		c0.384-2.214,0.593-4.33,0.619-6.655C418.626,366.602,417.999,366.157,417.803,366.918z"/>
	<path fill-rule="evenodd" clip-rule="evenodd" fill="#61D8CA" d="M452.34,334.193c-1.847,0.017-3.693,0.081-5.54,0.083
		c-0.923,0.001-1.847-0.014-2.77-0.058c-0.777-0.037-1.729-0.228-2.431,0.193c-0.623,0.684,1.091,0.764,1.346,0.77
		c0.964,0.02,1.677,0.332,2.242,1.146c0.749,1.382,0.455,3.463,0.459,4.974c0.005,1.963,0.03,3.926,0.053,5.89
		c0.048,4.058,0.09,8.117-0.068,12.173c-0.142,3.638-0.167,7.547-2.455,10.591c-1.82,2.422-5.026,3.293-7.898,2.597
		c-1.396-0.268-3.231-1.647-4.241-3.272c-2.66-4.354-2.255-9.801-2.263-14.697c-0.009-5.784-0.153-11.575,0.188-17.354
		c0.018-0.811,0.617-1.644,1.381-1.91c0.642-0.224,1.715,0.158,1.984-0.641c-0.152-0.775-1.219-0.47-1.757-0.468
		c-1.206,0.005-2.412,0.101-3.621,0.093c-2.548-0.016-5.098-0.166-7.646-0.021c-0.359,0.113-0.33,0.845,0.193,0.848
		c1.128,0.164,2.21-0.367,3.353,1.199c0.748,1.382,0.463,3.488,0.476,5.001c0.017,1.997,0.021,3.995,0.021,5.993
		c0.001,3.996-0.015,7.993,0.022,11.989c0.225,4.071,0.351,8.447,3.813,12.705c2.784,3.081,7.143,4.089,11.168,3.529
		c4.5-0.626,8.028-3.894,9.549-8.118c1.754-4.871,1.563-10.438,1.482-15.533c-0.042-2.648,0.018-5.293-0.002-7.939
		c-0.02-2.567-0.171-5.153,0.433-7.674c0.569-1.21,1.815-0.986,3.063-1.27C453.213,334.787,452.833,334.086,452.34,334.193z"/>
	<path fill-rule="evenodd" clip-rule="evenodd" fill="#61D8CA" d="M477.044,334.062c-0.571,0.313-1.615,0.164-2.255,0.19
		c-1.977,0.082-3.955,0.104-5.933,0.101c-3.833-0.009-7.664-0.119-11.496-0.103c-0.476-0.002-0.436,1.002,0.178,0.889
		c1.093,0.138,2.144-0.34,3.248,1.193c0.641,1.188,0.458,2.893,0.46,4.194c0.002,1.713,0.012,3.427,0.022,5.141
		c0.023,3.559,0.055,7.117,0.056,10.676c0,3.428-0.028,6.855-0.121,10.281c-0.042,1.562-0.027,3.153-0.219,4.702
		c-0.13,1.052-0.18,2.044-1.342,2.452c-0.629,0.197-1.228-0.031-1.893,0.341c-0.252,0.241,0.193,0.869,0.6,0.769
		c3.994-0.135,7.986-0.073,11.979,0.009c0.345,0.063,1.477-0.212,0.759-0.895c-1.239-0.264-2.534,0.286-3.747-1.028
		c-0.604-1.169-0.539-2.618-0.604-3.897c-0.081-1.58-0.117-3.162-0.129-4.743c-0.026-3.164,0.04-6.328,0.011-9.492
		c0.004-0.122,0.011-0.431,0.296-0.411c2.278,0.056,4.525-0.153,6.835,0.311c0.958,0.353,1.485,1.226,1.703,2.182
		c0.127,0.562-0.096,1.878,0.609,2.014c0.392-0.38,0.359-0.948,0.332-1.448c-0.04-0.762,0.019-1.54,0.07-2.301
		c0.11-1.622,0.33-3.237,0.359-4.865c-0.25-0.503-0.841,0.537-0.98,0.703c-0.631,0.668-1.366,0.618-2.207,0.704
		c-2.31,0.003-4.622,0.128-6.931-0.004c-0.197-0.312-0.085-0.846-0.085-1.188c0.001-0.646,0.001-1.293,0-1.939
		c-0.003-1.293-0.008-2.585-0.011-3.878c-0.005-2.462,0.002-4.924,0.065-7.385c0.034-0.132,0.168-0.263,0.325-0.246
		c2.407,0.077,4.798,0.057,7.222,0.234c0.603,0.152,1.449,0.269,2.097,1.531c0.378,0.965,0.037,1.753,0.453,2.832
		c0.204,0.293,0.697-0.174,0.654-0.664c0.188-2.299,0.099-4.472,0.542-6.902C477.845,333.507,477.382,333.876,477.044,334.062z"/>
	<path fill-rule="evenodd" clip-rule="evenodd" fill="#61D8CA" d="M503.408,334.062c-0.57,0.313-1.615,0.164-2.255,0.19
		c-1.977,0.082-3.955,0.104-5.933,0.101c-3.832-0.009-7.664-0.119-11.496-0.103c-0.476-0.002-0.437,1.002,0.178,0.889
		c1.093,0.138,2.144-0.34,3.248,1.193c0.641,1.188,0.458,2.892,0.46,4.194c0.002,1.713,0.011,3.427,0.022,5.141
		c0.022,3.559,0.055,7.117,0.055,10.676c0.001,3.428-0.027,6.855-0.12,10.281c-0.042,1.562-0.027,3.153-0.219,4.702
		c-0.13,1.052-0.18,2.044-1.342,2.452c-0.629,0.197-1.228-0.031-1.894,0.341c-0.252,0.241,0.193,0.869,0.601,0.769
		c3.993-0.135,7.986-0.073,11.979,0.009c0.345,0.063,1.477-0.212,0.759-0.895c-1.239-0.264-2.534,0.286-3.747-1.028
		c-0.604-1.17-0.539-2.617-0.604-3.897c-0.081-1.58-0.116-3.162-0.13-4.743c-0.025-3.164,0.04-6.328,0.012-9.492
		c0.004-0.122,0.011-0.431,0.296-0.411c2.278,0.056,4.525-0.153,6.835,0.311c0.957,0.353,1.485,1.226,1.703,2.182
		c0.127,0.562-0.098,1.878,0.607,2.014c0.393-0.38,0.359-0.948,0.333-1.448c-0.04-0.762,0.019-1.54,0.07-2.301
		c0.11-1.622,0.33-3.237,0.359-4.865c-0.251-0.503-0.841,0.537-0.98,0.703c-0.632,0.668-1.366,0.618-2.207,0.704
		c-2.31,0.003-4.622,0.128-6.931-0.004c-0.197-0.312-0.085-0.846-0.085-1.188c0.001-0.646,0.001-1.293,0-1.939
		c-0.003-1.293-0.009-2.585-0.011-3.878c-0.005-2.462,0.002-4.924,0.065-7.385c0.034-0.132,0.168-0.263,0.325-0.246
		c2.407,0.077,4.797,0.057,7.222,0.234c0.604,0.152,1.449,0.269,2.098,1.531c0.378,0.965,0.037,1.753,0.453,2.832
		c0.204,0.293,0.698-0.174,0.654-0.664c0.188-2.299,0.099-4.472,0.542-6.902C504.209,333.507,503.746,333.876,503.408,334.062z"/>
	<path fill-rule="evenodd" clip-rule="evenodd" fill="#61D8CA" d="M553.043,334.062c-0.571,0.313-1.615,0.164-2.256,0.19
		c-1.977,0.082-3.954,0.104-5.933,0.101c-3.832-0.009-7.663-0.119-11.495-0.103c-0.477-0.002-0.437,1.002,0.178,0.889
		c1.092,0.138,2.143-0.34,3.247,1.193c0.642,1.187,0.459,2.893,0.461,4.194c0.002,1.713,0.011,3.427,0.022,5.141
		c0.022,3.559,0.055,7.117,0.055,10.676c0.001,3.428-0.027,6.855-0.121,10.281c-0.042,1.563-0.028,3.153-0.219,4.702
		c-0.129,1.052-0.18,2.044-1.341,2.452c-0.63,0.197-1.229-0.031-1.894,0.341c-0.253,0.241,0.193,0.869,0.6,0.769
		c3.994-0.135,7.987-0.073,11.979,0.009c0.346,0.063,1.477-0.212,0.759-0.895c-1.238-0.264-2.533,0.286-3.746-1.028
		c-0.605-1.169-0.539-2.618-0.604-3.897c-0.081-1.58-0.117-3.162-0.13-4.743c-0.025-3.164,0.039-6.328,0.011-9.492
		c0.005-0.122,0.011-0.431,0.296-0.411c2.278,0.056,4.525-0.153,6.836,0.311c0.957,0.353,1.484,1.226,1.701,2.182
		c0.128,0.562-0.096,1.878,0.609,2.014c0.393-0.38,0.359-0.948,0.332-1.448c-0.039-0.762,0.02-1.541,0.071-2.301
		c0.109-1.622,0.329-3.237,0.358-4.865c-0.25-0.503-0.841,0.537-0.98,0.703c-0.631,0.668-1.365,0.618-2.207,0.704
		c-2.311,0.003-4.622,0.128-6.931-0.004c-0.197-0.312-0.085-0.846-0.085-1.188c0.002-0.646,0.001-1.293,0-1.939
		c-0.002-1.293-0.008-2.585-0.011-3.878c-0.005-2.462,0.003-4.924,0.066-7.385c0.033-0.132,0.167-0.263,0.324-0.246
		c2.407,0.077,4.798,0.057,7.223,0.234c0.604,0.152,1.448,0.269,2.098,1.531c0.377,0.965,0.036,1.753,0.452,2.832
		c0.205,0.293,0.698-0.174,0.654-0.664c0.188-2.299,0.099-4.472,0.543-6.902C553.843,333.507,553.381,333.876,553.043,334.062z"/>
	<path fill-rule="evenodd" clip-rule="evenodd" fill="#61D8CA" d="M578.04,333.491c-5.357-0.341-10.501,1.359-13.97,5.643
		c-6.061,7.484-6.579,19.078-2.262,27.516c1.876,3.668,5.029,6.804,8.951,8.202c4.457,1.589,9.831,0.972,13.789-1.609
		c4.877-3.136,7.645-8.596,8.65-14.187c0.971-5.395,0.535-11.535-1.801-16.55C588.94,337.229,583.819,333.859,578.04,333.491z
		 M584.908,368.744c-2.811,4.525-8.467,5.367-12.781,2.453c-4.523-2.928-6.368-8.914-7.006-13.957
		c-0.708-5.6-0.479-12.364,2.691-17.236c2.81-4.318,8.76-5.143,12.892-2.29c4.642,3.204,6.425,9.305,6.894,14.649
		C588.064,357.698,587.813,364.066,584.908,368.744z"/>
	<path fill-rule="evenodd" clip-rule="evenodd" fill="#61D8CA" d="M619.942,366.918c-0.078,0.83-0.395,2.533-1.188,3.66
		c-0.819,1.294-2.57,1.401-3.931,1.469c-1.751,0.02-3.81,0.184-5.426-0.626c-1.602-0.704-1.412-3.344-1.467-4.74
		c-0.1-2.512-0.141-5.025-0.154-7.54c-0.025-5.159,0.068-10.318,0.031-15.479c0.081-2.459-0.248-4.834,0.447-7.38
		c0.404-1.504,2.578-0.8,3.563-1.366c0.212-0.206-0.18-0.817-0.604-0.722c-3.926,0.093-7.852,0.119-11.777-0.009
		c-0.406-0.105-1.432,0.343-0.688,0.9c0.992,0.213,2.253-0.268,3.268,1.241c0.642,1.186,0.459,2.893,0.461,4.193
		c0.002,1.713,0.011,3.427,0.022,5.14c0.022,3.559,0.054,7.116,0.055,10.675c0,3.427-0.028,6.854-0.121,10.28
		c-0.042,1.562-0.027,3.152-0.218,4.701c-0.13,1.056-0.181,2.042-1.343,2.457c-0.643,0.208-1.255-0.026-1.934,0.346
		c-0.255,0.282,0.167,0.887,0.813,0.776c6.385-0.511,12.828,0.389,19.157,0.067c0.46,0.016,1.204-0.741,1.146-1.357
		c0.385-2.214,0.594-4.33,0.619-6.655C620.766,366.602,620.139,366.157,619.942,366.918z"/>
	<path fill-rule="evenodd" clip-rule="evenodd" fill="#61D8CA" d="M649.86,336.356c-4.097-2.017-8.635-2.309-13.126-2.194
		c-2.144,0.055-4.286,0.178-6.431,0.178c-1.07,0-2.142-0.031-3.208-0.116c-1.068,0.042-2.119-0.248-3.147,0.187
		c-0.677,0.731,1.295,0.765,1.55,0.77c0.928,0.018,1.621,0.379,2.162,1.147c0.799,1.475,0.465,3.773,0.477,5.386
		c0.017,2.248,0.022,4.497,0.024,6.745c0.003,4.364-0.011,8.729-0.006,13.094c-0.022,2.472,0.024,4.946-0.1,7.416
		c-0.068,1.366,0.17,4.29-1.538,4.806c-0.644,0.208-1.256-0.026-1.934,0.346c-0.256,0.282,0.166,0.887,0.812,0.776
		c3.169-0.188,6.353-0.147,9.515,0.147c3.08,0.287,6.13,0.535,9.193-0.089c5.344-1.087,9.631-4.542,11.959-9.447
		c2.404-5.067,3.071-11.042,2.043-16.547C657.192,344.068,654.539,338.648,649.86,336.356z M649.104,369.201
		c-1.59,1.704-3.734,2.965-6.051,3.337c-2.754,0.442-5.494,0.653-8.02-0.768c-1.431-0.932-1.397-2.5-1.447-4.037
		c-0.08-2.527-0.119-5.057-0.136-7.585c-0.034-5.058,0.019-10.114,0-15.172c0.039-2.492-0.104-4.93,0.148-7.477
		c0.529-0.858,2.036-0.754,2.908-0.783c1.612-0.055,3.216,0.152,4.779,0.538c2.527,0.624,4.706,1.947,6.541,3.785
		c3.464,3.472,4.778,8.456,4.992,13.235C653.042,359.275,652.703,365.341,649.104,369.201z"/>
	
		<rect x="228.256" y="350.281" transform="matrix(-0.7072 -0.7071 0.7071 -0.7072 147.0911 771.6655)" fill-rule="evenodd" clip-rule="evenodd" fill="#61D8CA" width="10.182" height="10.182"/>
	
		<rect x="350.328" y="350.281" transform="matrix(-0.7072 -0.7071 0.7071 -0.7072 355.4857 857.9771)" fill-rule="evenodd" clip-rule="evenodd" fill="#61D8CA" width="10.182" height="10.182"/>
	
		<rect x="513.599" y="350.281" transform="matrix(-0.7071 -0.7071 0.7071 -0.7071 634.1731 973.4272)" fill-rule="evenodd" clip-rule="evenodd" fill="#61D8CA" width="10.181" height="10.182"/>
</g>
</svg>
