<svg id="svg" xmlns="http://www.w3.org/2000/svg" xmlns:xlink="http://www.w3.org/1999/xlink" width="400" height="400" viewBox="0, 0, 400,400"><g id="svgg"><path id="path0" d="M70.407 105.798 C 52.889 108.050,38.904 129.225,31.930 164.055 C 23.363 206.847,23.740 236.994,32.896 241.427 C 39.918 244.826,48.080 236.210,57.328 215.639 L 59.630 210.518 59.885 212.448 C 60.984 220.751,68.396 224.190,74.545 219.250 C 77.793 216.641,83.720 208.589,89.470 198.976 C 91.195 196.092,92.520 194.147,92.413 194.654 C 91.767 197.732,91.326 211.041,91.743 214.886 C 93.646 232.429,103.526 233.135,111.120 216.271 L 112.706 212.751 112.918 216.330 C 113.391 224.278,116.100 228.216,121.298 228.509 C 128.383 228.910,136.005 220.896,144.198 204.432 L 147.497 197.803 147.263 200.745 C 145.597 221.655,158.196 227.958,168.224 211.231 L 170.223 207.897 170.430 213.534 C 170.776 222.937,171.917 225.854,175.115 225.519 C 178.017 225.214,178.610 224.793,179.473 222.427 C 179.904 221.244,181.354 217.207,182.696 213.456 C 192.802 185.196,200.636 172.162,208.590 170.379 C 214.214 169.119,214.252 171.285,208.888 187.317 C 203.803 202.514,202.801 210.555,205.290 216.182 C 208.504 223.447,218.198 221.436,225.665 211.957 C 226.931 210.348,227.999 209.032,228.037 209.032 C 228.075 209.032,228.120 211.065,228.137 213.548 C 228.190 221.524,230.790 227.380,235.072 229.169 C 240.062 231.254,244.568 227.099,252.199 213.376 C 254.029 210.085,255.585 207.334,255.656 207.263 C 255.727 207.192,255.693 210.439,255.580 214.478 C 254.841 241.046,262.780 250.752,272.140 234.725 C 276.103 227.940,283.822 208.117,286.596 197.604 C 287.596 193.814,291.095 183.354,292.280 180.610 L 293.012 178.916 295.871 178.675 C 297.443 178.542,299.782 178.433,301.069 178.433 L 303.410 178.433 303.406 180.184 C 303.404 181.290,302.846 183.499,301.893 186.175 C 294.949 205.672,294.051 209.315,294.027 218.065 C 294.000 227.724,296.020 230.968,302.062 230.968 C 308.911 230.968,315.027 224.835,322.270 210.704 L 325.098 205.187 325.340 206.649 C 326.550 213.958,329.576 217.682,334.683 218.145 C 341.096 218.726,347.046 211.439,354.676 193.659 C 355.563 191.591,356.327 189.937,356.373 189.983 C 356.495 190.105,353.329 208.805,352.742 211.429 C 352.110 214.255,351.673 214.556,337.867 221.663 C 321.734 229.968,316.855 233.576,311.916 240.858 C 299.117 259.727,309.814 284.987,328.339 279.639 C 342.455 275.564,355.321 252.659,363.900 216.330 L 364.745 212.752 367.540 210.932 C 376.071 205.376,385.095 196.117,382.827 195.247 C 381.465 194.724,380.632 195.160,377.761 197.894 C 374.610 200.894,371.929 203.030,367.962 205.703 L 365.601 207.293 365.853 206.043 C 371.240 179.296,371.518 176.986,369.504 175.632 C 367.573 174.335,361.872 174.071,359.721 175.179 C 358.873 175.616,357.361 178.669,352.998 188.756 C 344.570 208.238,339.960 215.431,336.938 213.814 C 334.063 212.275,334.410 206.450,338.271 191.490 C 341.497 178.989,341.013 177.826,332.486 177.594 L 329.453 177.512 328.408 181.382 C 327.832 183.512,326.870 187.908,326.269 191.152 L 325.177 197.051 321.135 205.161 C 312.938 221.612,305.243 230.404,301.935 227.097 C 300.178 225.339,300.720 222.889,305.812 209.585 C 317.089 180.119,315.733 173.431,298.821 175.082 C 293.542 175.598,293.900 176.011,295.453 171.197 C 296.165 168.992,297.006 166.065,297.323 164.692 C 297.820 162.541,298.316 161.649,300.910 158.241 C 311.312 144.569,316.682 132.210,316.682 121.936 C 316.682 103.777,299.195 99.910,283.730 114.649 C 271.413 126.389,264.261 144.391,258.976 176.959 C 258.236 181.521,257.552 185.653,257.457 186.141 C 257.287 187.013,257.266 187.006,256.187 185.697 C 253.336 182.239,246.444 180.784,242.581 182.825 C 238.685 184.883,236.577 187.321,232.967 193.947 C 226.764 205.330,220.475 213.445,216.123 215.679 C 212.039 217.775,212.522 213.186,218.232 195.643 C 223.991 177.950,223.559 170.337,216.590 166.709 C 205.000 160.675,191.892 175.440,181.581 206.143 C 180.468 209.456,179.554 211.954,179.549 211.695 C 179.543 211.436,180.369 207.318,181.382 202.544 C 184.475 187.982,183.664 184.878,176.774 184.913 C 172.747 184.934,172.807 184.855,171.899 191.298 C 170.256 202.948,161.116 218.864,157.795 215.858 C 155.756 214.014,155.999 209.753,158.896 196.490 C 161.334 185.327,161.311 183.736,158.692 182.642 C 156.227 181.612,149.677 182.076,149.677 183.281 C 149.677 183.499,148.662 186.023,147.421 188.890 C 134.635 218.420,121.843 232.893,122.287 217.327 C 122.428 212.390,123.907 205.479,127.606 192.474 C 130.997 180.553,130.510 179.367,121.909 178.588 L 119.254 178.347 118.789 179.957 C 118.534 180.842,117.321 185.465,116.095 190.230 C 110.231 213.013,104.022 226.112,101.157 221.739 C 99.611 219.380,100.201 212.790,103.426 196.421 C 106.110 182.796,106.089 181.974,103.037 180.808 C 101.599 180.259,96.094 180.207,95.652 180.738 C 95.610 180.788,94.417 182.945,93.001 185.530 L 90.426 190.231 90.215 188.186 C 89.505 181.310,80.802 177.669,73.497 181.192 C 68.553 183.576,62.845 190.989,61.000 197.419 C 57.908 208.202,45.261 231.967,40.807 235.363 C 33.918 240.618,32.650 223.169,37.845 194.582 L 38.427 191.376 43.085 187.402 C 73.278 161.636,90.505 132.987,86.064 115.930 C 84.195 108.753,78.100 104.809,70.407 105.798 M76.417 110.738 C 86.429 115.022,81.398 137.794,65.916 158.276 C 58.471 168.125,39.912 186.864,39.515 184.932 C 39.122 183.012,44.740 158.070,47.747 148.387 C 55.496 123.435,67.930 107.107,76.417 110.738 M307.370 111.678 C 314.730 117.010,311.747 134.012,300.363 151.613 C 297.403 156.189,297.796 155.926,296.364 154.295 C 288.733 145.604,271.867 164.595,278.962 173.889 L 280.290 175.629 277.933 177.861 C 273.562 181.999,268.962 185.873,268.844 185.518 C 268.476 184.413,273.832 159.974,276.376 151.152 C 284.379 123.401,298.582 105.312,307.370 111.678 M293.608 157.189 C 294.126 159.954,293.589 161.140,289.821 165.556 C 285.817 170.248,285.538 170.225,286.634 165.300 C 288.244 158.065,292.782 152.787,293.608 157.189 M290.653 172.318 C 289.971 174.480,289.632 174.717,288.458 173.849 C 287.770 173.340,287.805 173.255,289.378 171.644 C 291.360 169.615,291.484 169.681,290.653 172.318 M286.212 177.869 C 287.398 178.152,288.435 178.450,288.517 178.532 C 288.598 178.613,287.439 182.482,285.940 187.128 C 284.442 191.774,283.131 196.157,283.027 196.866 C 282.532 200.244,274.773 220.550,270.983 228.387 C 262.917 245.064,261.474 236.009,266.753 201.843 L 268.405 191.152 269.961 189.862 C 272.674 187.612,281.055 180.052,282.376 178.663 C 283.075 177.928,283.739 177.333,283.851 177.340 C 283.963 177.348,285.026 177.585,286.212 177.869 M85.347 186.287 C 88.848 189.788,88.620 194.024,84.583 200.489 C 72.371 220.049,66.986 222.833,68.525 208.792 C 70.219 193.332,79.703 180.643,85.347 186.287 M253.923 189.395 C 256.462 192.493,256.763 197.900,254.639 202.227 C 247.547 216.674,240.234 226.751,238.268 224.786 C 235.696 222.214,237.302 207.352,241.150 198.107 C 244.678 189.634,250.734 185.504,253.923 189.395 M349.303 225.498 C 339.341 261.393,328.158 278.911,318.391 273.923 C 308.454 268.848,307.761 252.615,316.987 241.027 C 321.343 235.555,326.103 232.235,340.182 224.849 C 345.607 222.002,350.201 219.522,350.390 219.336 C 351.124 218.616,350.969 219.496,349.303 225.498 M77.330 246.778 C 76.918 247.190,73.863 254.313,68.732 266.820 C 68.359 267.730,68.014 268.018,67.300 268.018 C 66.710 268.018,66.359 268.224,66.359 268.571 C 66.359 269.024,66.994 269.124,69.862 269.124 C 72.729 269.124,73.364 269.024,73.364 268.571 C 73.364 268.172,72.954 268.018,71.889 268.018 C 70.125 268.018,70.097 267.839,71.277 264.147 L 72.102 261.567 76.014 261.463 L 79.926 261.358 81.043 264.688 L 82.160 268.018 80.896 268.018 C 80.018 268.018,79.631 268.187,79.631 268.571 C 79.631 269.028,80.307 269.124,83.502 269.124 C 86.697 269.124,87.373 269.028,87.373 268.571 C 87.373 268.229,87.026 268.018,86.459 268.018 C 85.213 268.018,84.704 266.930,81.112 256.584 C 79.049 250.644,78.247 247.873,78.511 247.609 C 79.065 247.054,78.981 246.267,78.367 246.267 C 78.078 246.267,77.611 246.497,77.330 246.778 M31.336 247.886 C 31.336 248.168,31.732 248.499,32.216 248.620 C 33.167 248.859,33.421 249.399,38.794 262.642 C 40.269 266.275,41.664 269.311,41.895 269.387 C 42.140 269.469,43.691 266.289,45.628 261.731 L 48.941 253.934 51.993 261.714 C 53.671 265.992,55.227 269.493,55.451 269.493 C 55.804 269.493,58.023 264.549,63.310 251.982 C 64.419 249.347,64.877 248.639,65.533 248.546 C 67.985 248.196,66.236 247.373,63.041 247.373 C 59.750 247.373,58.052 248.238,60.737 248.547 C 62.686 248.771,61.571 253.567,57.555 262.233 L 56.221 265.111 53.160 257.256 C 51.476 252.936,50.006 249.194,49.894 248.940 C 49.750 248.613,50.131 248.479,51.205 248.479 C 52.305 248.479,52.719 248.328,52.719 247.926 C 52.719 247.467,52.002 247.373,48.479 247.373 C 44.956 247.373,44.240 247.467,44.240 247.926 C 44.240 248.252,44.580 248.482,45.069 248.485 C 46.504 248.495,47.913 250.339,47.937 252.240 C 47.948 253.132,43.145 264.700,42.763 264.700 C 42.580 264.700,36.390 249.441,36.331 248.848 C 36.322 248.747,36.853 248.612,37.512 248.548 C 40.603 248.250,38.746 247.373,35.023 247.373 C 32.119 247.373,31.336 247.482,31.336 247.886 M92.906 248.176 C 87.092 251.183,88.515 257.487,95.601 260.108 C 99.256 261.459,100.440 263.772,98.829 266.414 C 96.856 269.649,91.062 268.440,90.459 264.667 C 90.054 262.134,88.848 262.668,88.848 265.381 C 88.848 268.093,89.415 268.666,92.645 269.220 C 98.405 270.206,101.567 268.084,101.567 263.230 C 101.567 259.532,100.850 258.673,96.136 256.719 C 91.668 254.867,90.398 252.426,92.702 250.121 C 94.463 248.360,99.260 249.327,99.839 251.560 C 100.389 253.683,101.382 253.266,101.382 250.912 C 101.382 247.685,96.749 246.189,92.906 248.176 M104.700 247.903 C 104.700 248.231,105.156 248.477,105.897 248.548 C 107.500 248.703,107.553 249.039,107.606 259.447 L 107.650 268.018 106.359 268.018 C 105.458 268.018,105.069 268.185,105.069 268.571 C 105.069 269.031,105.786 269.124,109.309 269.124 C 112.832 269.124,113.548 269.031,113.548 268.571 C 113.548 268.175,113.143 268.018,112.113 268.018 C 110.288 268.018,110.230 267.854,110.230 262.643 L 110.230 258.433 115.956 258.433 L 121.681 258.433 121.578 263.134 L 121.475 267.834 120.092 267.949 C 119.188 268.023,118.710 268.246,118.710 268.594 C 118.710 269.025,119.506 269.124,122.949 269.124 C 126.393 269.124,127.189 269.025,127.189 268.594 C 127.189 268.246,126.711 268.023,125.806 267.949 L 124.424 267.834 124.424 258.249 L 124.424 248.664 125.829 248.548 C 126.711 248.475,127.181 248.269,127.090 247.995 C 126.854 247.284,118.341 247.184,118.341 247.892 C 118.341 248.253,118.804 248.473,119.724 248.549 L 121.106 248.664 121.377 252.350 C 121.745 257.352,122.223 256.959,115.772 256.959 L 110.230 256.959 110.230 252.719 L 110.230 248.479 111.705 248.479 C 112.770 248.479,113.180 248.326,113.180 247.926 C 113.180 247.467,112.463 247.373,108.940 247.373 C 105.500 247.373,104.700 247.473,104.700 247.903 M142.673 247.926 C 142.673 248.313,143.063 248.479,143.975 248.479 C 145.659 248.479,145.567 247.936,145.696 258.710 L 145.806 268.019 144.424 268.019 C 143.484 268.018,143.041 268.184,143.041 268.535 C 143.041 270.073,155.153 269.666,158.015 268.031 C 165.672 263.658,163.976 249.578,155.574 247.776 C 152.537 247.125,142.673 247.240,142.673 247.926 M165.161 247.903 C 165.161 248.231,165.617 248.477,166.359 248.548 C 167.906 248.697,168.035 249.564,168.078 260.184 L 168.111 268.018 166.820 268.018 C 165.919 268.018,165.530 268.185,165.530 268.571 C 165.530 269.032,166.267 269.124,169.954 269.124 C 173.641 269.124,174.378 269.032,174.378 268.571 C 174.378 268.164,173.953 268.018,172.762 268.018 C 170.783 268.018,170.703 267.813,170.696 262.719 L 170.691 259.078 171.843 259.309 C 172.477 259.435,173.114 259.539,173.259 259.539 C 173.405 259.539,173.974 260.367,174.525 261.379 C 175.076 262.391,176.511 264.548,177.716 266.172 L 179.905 269.124 183.071 269.124 C 186.375 269.124,187.278 268.496,184.724 267.974 C 182.105 267.438,174.940 258.802,177.115 258.802 C 177.957 258.802,179.965 256.913,180.511 255.605 C 181.759 252.617,180.650 249.690,177.707 248.203 C 175.643 247.160,165.161 246.910,165.161 247.903 M186.175 247.886 C 186.175 248.168,186.590 248.503,187.097 248.631 C 188.045 248.869,188.380 249.322,192.148 255.470 L 194.286 258.958 194.286 263.488 L 194.286 268.018 192.811 268.018 C 191.746 268.018,191.336 268.172,191.336 268.571 C 191.336 269.033,192.094 269.124,195.945 269.124 C 199.795 269.124,200.553 269.033,200.553 268.571 C 200.553 268.162,200.123 268.018,198.894 268.018 L 197.235 268.018 197.235 263.519 L 197.235 259.020 199.690 254.948 C 202.923 249.583,203.766 248.479,204.627 248.479 C 205.022 248.479,205.346 248.230,205.346 247.926 C 205.346 247.478,204.752 247.373,202.212 247.373 C 199.672 247.373,199.078 247.478,199.078 247.926 C 199.078 248.270,199.427 248.479,200.000 248.479 C 201.609 248.479,200.864 250.919,197.706 255.993 L 196.647 257.694 194.268 253.547 C 191.355 248.469,191.358 248.479,192.784 248.479 C 193.545 248.479,193.917 248.298,193.917 247.926 C 193.917 247.470,193.241 247.373,190.046 247.373 C 186.985 247.373,186.175 247.481,186.175 247.886 M220.092 247.880 C 220.092 248.232,220.522 248.474,221.276 248.548 C 222.907 248.707,222.962 249.047,223.005 259.263 L 223.041 268.018 221.751 268.018 C 220.850 268.018,220.461 268.185,220.461 268.571 C 220.461 269.033,221.219 269.124,225.069 269.124 C 228.920 269.124,229.677 269.033,229.677 268.571 C 229.677 268.155,229.231 268.018,227.874 268.018 C 225.629 268.018,225.622 268.003,225.622 262.643 L 225.622 258.433 229.677 258.433 L 233.733 258.433 233.733 260.123 C 233.733 261.310,233.870 261.767,234.194 261.660 C 234.942 261.412,235.044 254.378,234.299 254.378 C 233.898 254.378,233.733 254.754,233.733 255.668 L 233.733 256.959 229.677 256.959 L 225.622 256.959 225.622 252.849 L 225.622 248.740 228.443 248.978 C 229.994 249.109,231.902 249.217,232.682 249.217 C 233.610 249.217,234.357 249.472,234.839 249.954 C 235.244 250.359,235.651 250.691,235.743 250.691 C 235.891 250.691,236.677 248.212,236.678 247.742 C 236.679 247.641,232.947 247.506,228.385 247.443 C 221.215 247.344,220.092 247.403,220.092 247.880 M244.679 248.079 C 239.432 250.192,236.991 255.959,238.496 262.686 C 240.608 272.123,256.136 271.740,258.790 262.185 C 259.794 258.570,259.002 252.911,257.153 250.487 C 254.970 247.626,248.774 246.430,244.679 248.079 M261.751 247.926 C 261.751 248.267,262.097 248.479,262.651 248.479 C 264.085 248.479,264.147 248.908,264.147 258.708 L 264.147 268.016 262.765 268.017 C 261.782 268.018,261.382 268.178,261.382 268.571 C 261.382 269.046,262.504 269.124,269.264 269.124 L 277.146 269.124 277.609 268.007 C 278.212 266.549,277.945 266.348,276.440 267.129 C 274.517 268.126,268.069 268.353,267.406 267.447 C 266.876 266.721,266.678 253.607,267.147 250.190 L 267.381 248.479 268.990 248.479 C 270.175 248.479,270.599 248.333,270.599 247.926 C 270.599 247.465,269.862 247.373,266.175 247.373 C 262.488 247.373,261.751 247.465,261.751 247.926 M278.710 247.926 C 278.710 248.313,279.100 248.479,280.012 248.479 C 281.696 248.479,281.604 247.936,281.732 258.710 L 281.843 268.019 280.461 268.019 C 279.521 268.018,279.078 268.184,279.078 268.535 C 279.078 270.073,291.190 269.666,294.052 268.031 C 301.709 263.658,300.012 249.578,291.611 247.776 C 288.574 247.125,278.710 247.240,278.710 247.926 M153.550 249.459 C 160.790 251.925,162.918 264.100,156.666 267.289 C 154.776 268.254,149.149 268.358,148.795 267.435 C 148.672 267.115,148.571 262.801,148.571 257.850 L 148.571 248.848 150.165 248.848 C 151.041 248.848,152.564 249.123,153.550 249.459 M175.015 249.572 C 179.991 251.831,178.782 257.691,173.276 258.002 L 170.691 258.148 170.691 253.498 L 170.691 248.848 172.074 248.856 C 172.834 248.860,174.158 249.183,175.015 249.572 M252.389 250.160 C 258.110 253.697,257.791 265.430,251.907 267.889 C 246.021 270.348,240.912 265.690,240.928 257.880 C 240.944 250.050,246.336 246.418,252.389 250.160 M289.587 249.459 C 296.827 251.925,298.954 264.100,292.703 267.289 C 290.813 268.254,285.186 268.358,284.832 267.435 C 284.709 267.115,284.608 262.801,284.608 257.850 L 284.608 248.848 286.202 248.848 C 287.078 248.848,288.601 249.123,289.587 249.459 M79.102 259.244 C 79.293 259.848,79.026 259.908,76.114 259.908 C 73.704 259.908,72.962 259.794,73.099 259.447 C 73.200 259.194,73.997 257.262,74.870 255.155 L 76.458 251.324 77.675 254.953 C 78.344 256.948,78.986 258.880,79.102 259.244 M131.953 255.824 C 131.041 256.736,130.876 257.193,130.876 258.802 C 130.876 260.410,131.041 260.867,131.953 261.780 C 132.865 262.692,133.322 262.857,134.931 262.857 C 136.539 262.857,136.996 262.692,137.909 261.780 C 138.821 260.867,138.986 260.410,138.986 258.802 C 138.986 257.193,138.821 256.736,137.909 255.824 C 136.996 254.912,136.539 254.747,134.931 254.747 C 133.322 254.747,132.865 254.912,131.953 255.824 M208.556 255.490 C 205.396 257.975,207.156 262.868,211.202 262.849 C 213.847 262.836,215.300 261.293,215.300 258.496 C 215.300 255.287,211.160 253.441,208.556 255.490 " stroke="none" fill="#000000" fill-rule="evenodd"></path></g></svg>